<svg xmlns="http://www.w3.org/2000/svg" width="57.902" height="38.025" viewBox="0 0 57.902 38.025">
  <g id="Group_190" data-name="Group 190" transform="translate(-888.9 -3205.9)">
    <g id="Group_189" data-name="Group 189" transform="translate(889 3206)">
      <rect id="Rectangle_193" data-name="Rectangle 193" width="23.011" height="24.534" transform="translate(3.368 6.851)" fill="#ff9401" stroke="#ff9401" stroke-width="0.2"/>
      <path id="Path_192" data-name="Path 192" d="M46.706,89.59V85.353c0-6.943.01-20.778.01-20.778l-24.04.011-.029.023a.118.118,0,0,1-.033.025,3.444,3.444,0,0,0-2.836,3.627V88.069c0,1.476,0,2.952.006,4.428a3.47,3.47,0,0,0,.582,2.109,3.506,3.506,0,0,0,2.957,1.542l22.7,0c.039,0,.077,0,.115,0a.639.639,0,0,0,.472-.275.568.568,0,0,0,.079-.486ZM21.511,91.3a2.128,2.128,0,0,1,1.628-.835c.5-.009,1.007-.012,1.511-.012l2.049.005H45.381l-.018,4.421c-.347.006-2.132.015-2.242.015H33.258c-3.114,0-6.228,0-9.871.012a2.315,2.315,0,0,1-2.314-1.769A2.195,2.195,0,0,1,21.511,91.3ZM22.6,89.2l-1.553.737a1.288,1.288,0,0,1-.011-.153v-2.8c0-6.8,0-11.439,0-18.9A2.135,2.135,0,0,1,22.6,65.95Zm1.29-.018V65.854H45.435V89.177Z" transform="translate(-19.776 -58.325)" fill="#0c38ed" stroke="#0c38ed" stroke-width="0.2"/>
      <path id="Path_193" data-name="Path 193" d="M132.187,81.044c-.072,0-.144-.006-.216-.006l-.235,0c0-1.616-.022-29.582-.023-31.178a2.454,2.454,0,0,0-1.969-2.567l-.03-.022a.124.124,0,0,0-.069-.02l-21.422.087.034,1.949c.006.88,0,1.76,0,2.641v2.826l-.012,3.758.014,24.411a1.983,1.983,0,0,0,1.939,2.058c2.562,0,6.754,0,10.946,0s8.383,0,10.945,0a1.973,1.973,0,0,0,.1-3.939Zm-5.517,2.768H112.111l.164-1.592.06,0H132a.8.8,0,0,1,.827.656.781.781,0,0,1-.481.863,1.471,1.471,0,0,1-.488.073Q129.263,83.814,126.67,83.812Zm-17.2-35.407,19.66.023a1.27,1.27,0,0,1,1.333.927,1.473,1.473,0,0,1,.045.394c0,2.251,0,13.808-.009,22.3,0,4.372,0,7.93,0,8.987H111.9c-.7,0-.862.163-.862.87v.949c0,.588-.3.956-.794.959s-.786-.364-.786-.95Z" transform="translate(-76.311 -47.253)" fill="#0c38ed" stroke="#0c38ed" stroke-width="0.2"/>
      <path id="Path_194" data-name="Path 194" d="M131.485,78.8c-.953-.806-1.909-1.608-2.875-2.4a.481.481,0,0,0-.805.359,4.356,4.356,0,0,0,0,.462v.016c-1.361,0-8.157,0-8.559,0-.43.006-.6.18-.6.6,0,.889,0,1.778,0,2.667,0,.449.17.619.613.619s.863,0,1.319,0l7.226.019v0a1.245,1.245,0,0,0,.01.411,1.136,1.136,0,0,0,.289.475c.173.141.379.054.542-.08.943-.786,1.89-1.569,2.834-2.362A.475.475,0,0,0,131.485,78.8ZM127.8,80.153h-8.173V78.231H127.8l.253.006c.321,0,.6-.041.738-.414.552.459,1.078.9,1.643,1.367-.549.456-1.082.9-1.64,1.367-.138-.372-.42-.4-.741-.4Z" transform="translate(-82.969 -65.804)" fill="#ff9401" stroke="#ff9401" stroke-width="0.2"/>
      <path id="Path_195" data-name="Path 195" d="M127.685,105.389c.953.806,1.909,1.608,2.875,2.4a.481.481,0,0,0,.805-.359,4.36,4.36,0,0,0,0-.462v-.016c1.361,0,8.157,0,8.559,0,.43-.006.6-.18.6-.6,0-.889,0-1.778,0-2.667,0-.449-.17-.619-.613-.619s-.863,0-1.319,0l-7.227-.019v0a1.244,1.244,0,0,0-.01-.411,1.131,1.131,0,0,0-.289-.475c-.173-.141-.379-.055-.542.08-.943.786-1.89,1.569-2.834,2.362A.475.475,0,0,0,127.685,105.389Zm3.687-1.354h8.173v1.922h-8.176l-.253-.006c-.321,0-.6.042-.738.414-.552-.459-1.078-.9-1.643-1.367.549-.456,1.082-.9,1.64-1.367.138.372.42.4.741.4Z" transform="translate(-88.616 -82.296)" fill="#ff9401" stroke="#ff9401" stroke-width="0.2"/>
      <g id="Group_186" data-name="Group 186" transform="translate(25.668 0.101)">
        <path id="Path_196" data-name="Path 196" d="M98.082,47.533V48.8H94.907a2.744,2.744,0,0,0-2.738,2.738v9.042H90.917V51.541A3.99,3.99,0,0,1,94.8,47.555v-.022Z" transform="translate(-90.917 -47.533)" fill="#0c38ed" stroke="#0c38ed" stroke-width="0.2"/>
      </g>
      <rect id="Rectangle_194" data-name="Rectangle 194" width="8.699" height="1.263" rx="0.631" transform="translate(35.439 5.197)" fill="#0c38ed" stroke="#0c38ed" stroke-width="0.2"/>
      <rect id="Rectangle_195" data-name="Rectangle 195" width="8.699" height="1.263" rx="0.631" transform="translate(35.439 7.723)" fill="#0c38ed" stroke="#0c38ed" stroke-width="0.2"/>
      <rect id="Rectangle_196" data-name="Rectangle 196" width="8.699" height="1.263" rx="0.631" transform="translate(43.216 26.925)" fill="#0c38ed" stroke="#0c38ed" stroke-width="0.2"/>
      <rect id="Rectangle_197" data-name="Rectangle 197" width="8.699" height="1.263" rx="0.631" transform="translate(43.216 29.451)" fill="#0c38ed" stroke="#0c38ed" stroke-width="0.2"/>
      <g id="Group_188" data-name="Group 188" transform="translate(9.368 14.741)">
        <g id="Group_187" data-name="Group 187" transform="translate(0.155 0.148)">
          <path id="Path_197" data-name="Path 197" d="M57.784,91.729a4.708,4.708,0,0,1-.24.49q-2.853,4.279-5.712,8.554c-.248.371-.566.458-.863.254s-.323-.521-.073-.9q2.853-4.278,5.708-8.556c.185-.278.427-.445.736-.3C57.522,91.354,57.641,91.575,57.784,91.729Z" transform="translate(-48.802 -91.22)" fill="#fff" stroke="#fff" stroke-width="0.2"/>
          <path id="Path_198" data-name="Path 198" d="M68.191,107.779a2.085,2.085,0,0,1-2.06,2.142,2.139,2.139,0,0,1-.016-4.273A2.089,2.089,0,0,1,68.191,107.779Zm-2.965,0a.908.908,0,1,0,1.806.005.905.905,0,1,0-1.806-.005Z" transform="translate(-57.336 -100.442)" fill="#fff" stroke="#fff" stroke-width="0.2"/>
          <path id="Path_199" data-name="Path 199" d="M49.48,94.552a2.046,2.046,0,1,1-2.052-2.127A2.029,2.029,0,0,1,49.48,94.552Zm-1.127-.008a.918.918,0,1,0-1.833,0,.92.92,0,1,0,1.833,0Z" transform="translate(-45.391 -91.99)" fill="#fff" stroke="#fff" stroke-width="0.2"/>
        </g>
        <path id="Path_200" data-name="Path 200" d="M50.465,99.747c-.277.416-.242.787.1,1.019a.647.647,0,0,0,.368.123.769.769,0,0,0,.62-.4q2.854-4.267,5.7-8.539a1.9,1.9,0,0,0,.152-.3c.027-.06.057-.127.094-.2a.09.09,0,0,0-.015-.1c-.042-.046-.082-.1-.123-.149a1.02,1.02,0,0,0-.349-.329.615.615,0,0,0-.255-.059.735.735,0,0,0-.592.4Q54.3,94,52.438,96.791Z" transform="translate(-48.361 -90.811)" fill="#fff" stroke="#fff" stroke-width="0.2"/>
        <path id="Path_201" data-name="Path 201" d="M65.732,105.208a2.154,2.154,0,0,0-2.122,2.219,2.238,2.238,0,0,0,.639,1.613,2.121,2.121,0,0,0,3-.007,2.231,2.231,0,0,0,.646-1.606A2.187,2.187,0,0,0,65.732,105.208Zm.563,2.908a.754.754,0,0,1-.548.22.831.831,0,0,1-.808-.906v-.007a.8.8,0,0,1,.812-.877v-.09l.018.09a.8.8,0,0,1,.79.884A.939.939,0,0,1,66.3,108.116Z" transform="translate(-56.882 -100.014)" fill="#fff" stroke="#fff" stroke-width="0.2"/>
        <path id="Path_202" data-name="Path 202" d="M47.082,92.018a2.115,2.115,0,0,0-2.122,2.194,2.255,2.255,0,0,0,.6,1.591,2.072,2.072,0,0,0,1.523.639h0a2.213,2.213,0,0,0-.007-4.423Zm.566,2.879a.774.774,0,0,1-.559.235.787.787,0,0,1-.559-.235.954.954,0,0,1-.26-.678.828.828,0,0,1,.808-.88l.011-.09v.09a.83.83,0,0,1,.826.884A.919.919,0,0,1,47.649,94.9Z" transform="translate(-44.961 -91.583)" fill="#fff" stroke="#fff" stroke-width="0.2"/>
      </g>
    </g>
  </g>
</svg>
