<svg xmlns="http://www.w3.org/2000/svg" width="52.043" height="53.497" viewBox="0 0 52.043 53.497"><g transform="translate(-8.255)"><path d="M725.316,1274.381c.586,3.69-2.623,7.266-7.167,7.988s-8.7-1.685-9.289-5.375S724.73,1270.69,725.316,1274.381Z" transform="translate(-682.113 -1229.484)" fill="#ffd400"/><path d="M858.715,1272.644a11.306,11.306,0,0,1-1.716,9.783c.1-.012.191-.018.288-.033,4.544-.722,7.753-4.3,7.167-7.988C864.231,1273,861.715,1272.512,858.715,1272.644Z" transform="translate(-821.251 -1229.508)" fill="#ffc000"/><path d="M458.141,604.905l-.6.1-3.4-11.8c-2.2-7.293-7.1-12.081-13.613-13.332a7.169,7.169,0,1,0-13.705,2.354,17.361,17.361,0,0,0-8.524,16.67l.35,12.287-.892.142a5.34,5.34,0,0,0-4.436,6.111h0a5.34,5.34,0,0,0,6.111,4.436l40.389-6.414a5.34,5.34,0,0,0,4.436-6.112h0A5.34,5.34,0,0,0,458.141,604.905Zm-23.379-27.311a2,2,0,0,1,0,.216.19.19,0,0,1,0,.024c-.028.13-.056.261-.1.388a.252.252,0,0,1-.018.042c-.011.021-.121.242-.191.348l-.013.018a2.659,2.659,0,0,1-.289.307.3.3,0,0,1-.039.031l-.009.005c-.078.05-.244.155-.324.2l-.011.006-.023.011-.024.009c-.131.045-.264.084-.4.119a.261.261,0,0,1-.052.008h-.009c-.086,0-.308.009-.395.01h-.013l-.027,0-.03-.005c-.087-.02-.285-.068-.371-.091l-.007,0-.013,0-.028-.012-.013-.007c-.084-.044-.248-.134-.331-.181l-.008,0a.321.321,0,0,1-.053-.038c-.1-.09-.2-.182-.3-.281l-.025-.028a1.454,1.454,0,0,1-.313-.7q0-.2-.01-.392a1.458,1.458,0,0,1,.27-.7l.04-.042a1.507,1.507,0,0,1,1.512-.915l.057.01.026.006c.128.031.258.06.385.095a.515.515,0,0,1,.082.03,3.99,3.99,0,0,1,.36.2l.027.019a3.394,3.394,0,0,1,.294.276.2.2,0,0,1,.02.022,1.647,1.647,0,0,1,.348.78A1.884,1.884,0,0,1,434.762,577.594Z" transform="translate(-404.507 -571.695)" fill="#ffd400"/><path d="M423.121,626.067c-2.479-13.927-.071-23.6,7.437-26.573-4.211-2.807-2.906-7.358-.867-10.452a7.129,7.129,0,0,0-2.873,9.012,17.362,17.362,0,0,0-8.524,16.67l.35,12.287-.892.142a5.34,5.34,0,0,0-4.436,6.111h0a5.34,5.34,0,0,0,6.111,4.436l2.621-.416c-4.507-.167-6.89-6.73-1.239-9.1C420.84,628.173,422.956,626.169,423.121,626.067Z" transform="translate(-404.507 -587.53)" fill="#ffdf00"/><path d="M785.219,606.146l-.6.1-3.4-11.8c-2.2-7.293-7.1-12.082-13.613-13.332a7.141,7.141,0,0,0-6.079-7.6c.429.865,2.11,1.566,2.61,3.939.911,4.325-.039,5.862.154,6.384.107.289,9.048.407,11.928,14.573.7,3.449,1.574,8.322-.8,11.1,4.179,1.473,5.542,5.29,2.82,8.569l8.656-1.375a5.339,5.339,0,0,0,4.436-6.111h0A5.34,5.34,0,0,0,785.219,606.146Z" transform="translate(-731.585 -572.936)" fill="#ffc000"/><path d="M541.163,1091.9l-.6.1-.131-1.26c-.67.3-25.282,6.382-38.78,5.751l.014,1.658C506.36,1099.519,536.5,1095.487,541.163,1091.9Z" transform="translate(-487.529 -1058.691)" fill="#ff9e00"/><path d="M585.252,790.123a2.134,2.134,0,0,0-2.173-.842c-.065.014-.125.044-.189.061-.006,0-.012,0-.018,0a3.181,3.181,0,0,0-1.943.677,6.192,6.192,0,0,0-1.883,2.39,2.961,2.961,0,0,0,.3,3.468,3.36,3.36,0,0,0,3.4.36,4.682,4.682,0,0,0,3.046-4.073A3.318,3.318,0,0,0,585.252,790.123Z" transform="translate(-559.827 -775.537)" fill="#fcf600"/><path d="M574.2,932.454a1.464,1.464,0,0,0-.473-.578l-.328-.179a1.458,1.458,0,0,0-.76-.081l-.165.026a1.5,1.5,0,0,0-1.214,1.673l.113.375a1.464,1.464,0,0,0,.472.578l.328.179a1.452,1.452,0,0,0,.76.081l.165-.026a1.5,1.5,0,0,0,1.214-1.673Z" transform="translate(-552.886 -909.237)" fill="#fcf600"/><path d="M476.2,1270.134c-2.755-1.065-5.929-.8-8.818-1.4-1.764-.368-2.082,2.448-.313,2.792,3.013.585,6.572,1.087,9.233-.748A.38.38,0,0,0,476.2,1270.134Z" transform="translate(-453.942 -1225.824)" fill="#fcf600"/><path d="M676.828,1272.556l-1.98.28a.823.823,0,0,0,.258,1.624l1.969-.347A.789.789,0,0,0,676.828,1272.556Z" transform="translate(-649.559 -1229.436)" fill="#fcf600"/><path d="M711.171,1320.7a9.386,9.386,0,0,1-8.289-4.987l.861-.456a8.413,8.413,0,0,0,15.719-2.5l.96.168a9.392,9.392,0,0,1-9.251,7.772Z" transform="translate(-676.513 -1267.203)" fill="#fd9700"/><path d="M411.066,614.906a5.828,5.828,0,0,1-.9-11.583l.469-.074-.338-11.859a17.728,17.728,0,0,1,8.4-16.886,7.536,7.536,0,0,1-.391-1.466,7.655,7.655,0,1,1,15.121-2.4,7.515,7.515,0,0,1,.089,1.322c6.457,1.4,11.391,6.33,13.575,13.585l3.286,11.394.175-.028a5.827,5.827,0,0,1,1.828,11.51l-40.389,6.414A5.881,5.881,0,0,1,411.066,614.906Zm14.806-49.752a6.66,6.66,0,0,0-6.118,9.356l.173.4-.373.219a16.787,16.787,0,0,0-8.285,16.211l.363,12.741-1.315.208a4.853,4.853,0,0,0,1.522,9.585l40.389-6.414a4.853,4.853,0,0,0-1.522-9.586l-1.026.164-3.524-12.216c-2.152-7.148-6.853-11.763-13.237-12.988l-.425-.082.031-.432a6.657,6.657,0,0,0-6.654-7.162Z" transform="translate(-396.996 -564.18)" fill="#fd9700"/><path d="M702.883,626.128a2.474,2.474,0,1,1,.389-.031A2.429,2.429,0,0,1,702.883,626.128Zm0-3.969a1.537,1.537,0,0,0-.236.018,1.5,1.5,0,1,0,.236-.018Z" transform="translate(-674.195 -617.714)" fill="#fd9700"/><path d="M1038.323,633.108c.287.163.569.336.843.521q.186.126.368.259l.181.135c.145.107-.25-.2-.047-.035a13.275,13.275,0,0,1,1.414,1.323c.213.233.4.488.612.721-.087-.1-.168-.222-.037-.046.045.06.09.121.134.182q.145.2.281.408a12.517,12.517,0,0,1,.936,1.694,1.466,1.466,0,0,0,.873.672,1.462,1.462,0,0,0,1.651-2.147,13.865,13.865,0,0,0-5.733-6.21,1.462,1.462,0,1,0-1.476,2.524Z" transform="translate(-990.874 -626.365)" fill="#fd9700"/><path d="M1115.141,606.492l1.57,1.7a1.5,1.5,0,0,0,2.067,0,1.47,1.47,0,0,0,.428-1.034c-.017-.129-.035-.259-.052-.388a1.461,1.461,0,0,0-.376-.645l-1.57-1.7a1.5,1.5,0,0,0-2.067,0,1.47,1.47,0,0,0-.428,1.034q.026.194.052.389a1.466,1.466,0,0,0,.376.645Z" transform="translate(-1063.28 -601.573)" fill="#fd9700"/></g></svg>