<?xml version="1.0" encoding="utf-8"?>
<!-- Generator: Adobe Illustrator 23.0.1, SVG Export Plug-In . SVG Version: 6.00 Build 0)  -->
<svg version="1.1" id="Layer_1" xmlns="http://www.w3.org/2000/svg" xmlns:xlink="http://www.w3.org/1999/xlink" x="0px" y="0px"
	 viewBox="0 0 219 65" style="enable-background:new 0 0 219 65;" xml:space="preserve">
<style type="text/css">
	.st0{opacity:0.5;}
	.st1{fill:none;}
	.st2{fill:none;stroke:#B0B3BA;}
	.st3{enable-background:new    ;}
	.st4{fill:#2E3192;}
	.st5{fill:#048C47;}
</style>
<g transform="translate(1501 59)" class="st0">
	<path class="st1" d="M-1497-59h211c2.2,0,4,1.8,4,4V2c0,2.2-1.8,4-4,4h-211c-2.2,0-4-1.8-4-4v-57C-1501-57.2-1499.2-59-1497-59z"/>
	<path class="st2" d="M-1497-58.5h211c1.9,0,3.5,1.6,3.5,3.5V2c0,1.9-1.6,3.5-3.5,3.5h-211c-1.9,0-3.5-1.6-3.5-3.5v-57
		C-1500.5-56.9-1498.9-58.5-1497-58.5z"/>
</g>
<g class="st3">
	<path class="st4" d="M31.8,21.1v7c-0.7,0.3-1.5,0.6-2.4,0.8s-1.9,0.3-2.9,0.3c-1.5,0-2.8-0.3-3.9-0.9c-1.1-0.6-2-1.4-2.5-2.5
		c-0.6-1.1-0.9-2.4-0.9-3.9c0-1.5,0.3-2.8,0.9-3.9c0.6-1.1,1.4-1.9,2.5-2.5c1.1-0.6,2.4-0.9,3.8-0.9c1,0,2,0.1,2.9,0.4
		s1.6,0.7,2.2,1.2l-1,2.2c-0.7-0.5-1.3-0.8-1.9-1c-0.6-0.2-1.3-0.3-2-0.3c-2.7,0-4.1,1.6-4.1,4.8c0,3.3,1.4,4.9,4.3,4.9
		c0.8,0,1.6-0.1,2.4-0.3v-3.1h-2.8v-2.2H31.8z"/>
	<path class="st4" d="M36,28.8c-1-0.3-1.8-0.7-2.5-1.2l1-2.2c1.4,1,2.9,1.4,4.6,1.4c0.9,0,1.6-0.1,2.1-0.4c0.5-0.3,0.7-0.7,0.7-1.2
		c0-0.5-0.2-0.8-0.7-1.1c-0.4-0.3-1.2-0.5-2.3-0.8c-1.3-0.3-2.3-0.6-3-0.9c-0.7-0.4-1.3-0.8-1.6-1.3c-0.3-0.5-0.5-1.2-0.5-2
		c0-0.9,0.2-1.6,0.7-2.3c0.5-0.7,1.1-1.2,2-1.6c0.9-0.4,1.8-0.6,3-0.6c1,0,2,0.1,2.9,0.4c0.9,0.3,1.7,0.7,2.2,1.2l-1,2.2
		c-1.3-1-2.6-1.4-4.1-1.4c-0.8,0-1.4,0.2-1.9,0.5s-0.7,0.8-0.7,1.3c0,0.3,0.1,0.6,0.3,0.8c0.2,0.2,0.5,0.4,0.9,0.6
		c0.4,0.2,1,0.3,1.8,0.5c1.8,0.4,3.1,0.9,3.9,1.6c0.8,0.6,1.2,1.5,1.2,2.6c0,1.3-0.5,2.4-1.6,3.2c-1,0.8-2.5,1.2-4.3,1.2
		C38,29.2,36.9,29,36,28.8z"/>
	<path class="st4" d="M49.8,29V17.3h-4.5v-2.5h12.1v2.5H53V29H49.8z"/>
	<path class="st4" d="M75.6,29.2c-1.3-0.4-2.3-0.9-3.1-1.6c-1.3,1.1-2.7,1.6-4.3,1.6c-1,0-1.9-0.2-2.7-0.5s-1.4-0.8-1.8-1.4
		s-0.6-1.3-0.6-2.1c0-0.9,0.2-1.6,0.7-2.3s1.2-1.3,2.1-1.8c-0.9-1-1.4-2-1.4-3c0-0.7,0.2-1.3,0.5-1.8c0.3-0.5,0.8-0.9,1.4-1.2
		c0.6-0.3,1.3-0.4,2.2-0.4c1.1,0,2,0.3,2.7,0.9c0.7,0.6,1,1.4,1,2.3c0,0.7-0.2,1.4-0.6,2s-1.1,1.1-1.9,1.6l2.5,2.4
		c0.5-1.1,0.8-2.3,0.9-3.6h2.5c-0.1,2.1-0.6,3.8-1.6,5.3c0.8,0.7,1.8,1.2,2.9,1.5L75.6,29.2z M66.7,26.4c0.4,0.3,0.9,0.5,1.6,0.5
		c0.9,0,1.7-0.3,2.5-1l-3.3-3.2c-0.5,0.3-0.9,0.7-1.1,1c-0.2,0.4-0.4,0.8-0.4,1.3C66.1,25.6,66.3,26,66.7,26.4z M67.7,17
		c-0.3,0.3-0.4,0.6-0.4,1c0,0.3,0.1,0.5,0.2,0.8s0.4,0.6,0.8,1c0.6-0.3,1.1-0.7,1.3-1c0.3-0.3,0.4-0.6,0.4-1c0-0.4-0.1-0.7-0.4-1
		c-0.2-0.2-0.6-0.4-0.9-0.4C68.3,16.6,68,16.8,67.7,17z"/>
	<path class="st4" d="M82.8,29V14.8h3.1V29H82.8z"/>
	<path class="st4" d="M97.8,14.8h2.9V29h-2.3l-7.1-9.1V29h-2.9V14.8h2.3l7.1,9.1V14.8z"/>
	<path class="st4" d="M106.1,28.3c-1.1-0.6-1.9-1.5-2.5-2.6s-0.9-2.4-0.9-3.8c0-1.5,0.3-2.7,0.9-3.8c0.6-1.1,1.4-2,2.5-2.5
		c1.1-0.6,2.3-0.9,3.8-0.9c0.9,0,1.9,0.1,2.7,0.4c0.9,0.3,1.6,0.7,2.1,1.2l-1,2.2c-0.6-0.5-1.3-0.8-1.9-1c-0.6-0.2-1.2-0.3-1.9-0.3
		c-1.3,0-2.3,0.4-2.9,1.2c-0.7,0.8-1,2-1,3.6c0,1.6,0.3,2.8,1,3.6c0.7,0.8,1.7,1.2,2.9,1.2c0.7,0,1.3-0.1,1.9-0.3
		c0.6-0.2,1.2-0.6,1.9-1l1,2.2c-0.5,0.5-1.3,0.9-2.1,1.2c-0.9,0.3-1.8,0.4-2.7,0.4C108.4,29.2,107.2,28.9,106.1,28.3z"/>
	<path class="st4" d="M119.1,28.3c-1-0.6-1.9-1.4-2.4-2.5c-0.6-1.1-0.9-2.4-0.9-3.9c0-1.5,0.3-2.8,0.9-3.9c0.6-1.1,1.4-1.9,2.4-2.5
		c1-0.6,2.3-0.9,3.7-0.9s2.6,0.3,3.7,0.9c1,0.6,1.8,1.4,2.4,2.5c0.6,1.1,0.8,2.4,0.8,3.9c0,1.5-0.3,2.8-0.8,3.9
		c-0.6,1.1-1.4,2-2.4,2.5c-1,0.6-2.3,0.9-3.7,0.9S120.1,28.9,119.1,28.3z M125.6,25.5c0.7-0.8,1-2,1-3.6s-0.3-2.8-1-3.6
		c-0.7-0.8-1.6-1.2-2.8-1.2s-2.1,0.4-2.8,1.2c-0.7,0.8-1,2-1,3.6c0,1.6,0.3,2.8,1,3.6c0.7,0.8,1.6,1.3,2.8,1.3
		S124.9,26.3,125.6,25.5z"/>
	<path class="st4" d="M143.4,14.8h2.5V29h-2.8v-7.8l-3.3,7.8h-2l-3.3-7.7V29h-2.7V14.8h2.5l4.6,10.5L143.4,14.8z"/>
	<path class="st4" d="M148.4,29V14.8h9.8v2.4h-6.8v3.4h6.4V23h-6.4v3.6h6.8V29H148.4z"/>
	<path class="st4" d="M168.5,29V17.3H164v-2.5h12.1v2.5h-4.5V29H168.5z"/>
	<path class="st4" d="M186.5,29l-1.4-3.2h-6.7l-1.4,3.2H174l6.5-14.2h2.5l6.5,14.2H186.5z M179.5,23.5h4.6l-2.3-5.3L179.5,23.5z"/>
	<path class="st4" d="M197.2,21.8l5.4,7.2H199l-3.6-4.9l-3.6,4.9h-3.6l5.4-7.2l-5.3-7h3.6l3.4,4.7l3.4-4.7h3.6L197.2,21.8z"/>
</g>
<g class="st3">
	<path class="st5" d="M18.7,37.3h7.6c1.8,0,3.3,0.4,4.3,1.3c1,0.9,1.5,2.1,1.5,3.6c0,1.5-0.5,2.7-1.6,3.6c-1,0.9-2.5,1.4-4.3,1.4
		h-3.9V54h-3.7V37.3z M25.8,44.4c1.9,0,2.9-0.7,2.9-2.2c0-1.5-1-2.2-2.9-2.2h-3.5v4.3H25.8z"/>
	<path class="st5" d="M48.2,54h-3.9l-2.1-5.6c-0.2-0.4-0.4-0.7-0.8-0.9c-0.4-0.2-0.8-0.3-1.3-0.3h-2.4V54h-3.6V37.3h7.4
		c1.9,0,3.4,0.4,4.4,1.3c1,0.8,1.5,2.1,1.5,3.6c0,1.1-0.3,2.1-0.9,2.9c-0.6,0.8-1.4,1.4-2.5,1.7c1,0.2,1.7,0.9,2.1,2L48.2,54z
		 M41,44.5c1,0,1.8-0.2,2.3-0.5c0.5-0.4,0.7-0.9,0.7-1.7s-0.2-1.3-0.7-1.7c-0.5-0.4-1.3-0.5-2.3-0.5h-3.3v4.4H41z"/>
	<path class="st5" d="M62.8,54l-1.6-3.7h-7.8L51.8,54h-3.7l7.7-16.7h3L66.4,54H62.8z M54.6,47.5H60l-2.7-6.3L54.6,47.5z"/>
	<path class="st5" d="M70.3,53.1c-1.3-0.7-2.2-1.7-2.9-3c-0.7-1.3-1-2.8-1-4.5c0-1.7,0.3-3.2,1-4.5c0.7-1.3,1.6-2.3,2.9-3
		c1.3-0.7,2.7-1.1,4.4-1.1c1.1,0,2.2,0.2,3.2,0.5c1,0.3,1.8,0.8,2.5,1.4l-1.2,2.6c-0.8-0.6-1.5-1-2.2-1.2S75.6,40,74.8,40
		c-1.5,0-2.7,0.5-3.5,1.4c-0.8,1-1.2,2.3-1.2,4.2c0,1.8,0.4,3.3,1.2,4.2c0.8,1,2,1.4,3.5,1.4c0.8,0,1.5-0.1,2.2-0.4
		c0.7-0.3,1.4-0.7,2.2-1.2l1.2,2.6c-0.6,0.6-1.5,1.1-2.5,1.4c-1,0.3-2.1,0.5-3.2,0.5C73,54.2,71.6,53.9,70.3,53.1z"/>
	<path class="st5" d="M86.1,54V40.3h-5.2v-3h14.2v3h-5.2V54H86.1z"/>
	<path class="st5" d="M96.6,54V37.3h3.7V54H96.6z"/>
	<path class="st5" d="M107,54V40.3h-5.2v-3h14.2v3h-5.2V54H107z"/>
	<path class="st5" d="M117.4,54V37.3h3.7V54H117.4z"/>
	<path class="st5" d="M127.3,53.2c-1.2-0.7-2.2-1.7-2.8-3c-0.7-1.3-1-2.8-1-4.6s0.3-3.3,1-4.5c0.7-1.3,1.6-2.3,2.8-3
		c1.2-0.7,2.7-1,4.3-1s3.1,0.3,4.3,1s2.2,1.7,2.8,3c0.7,1.3,1,2.8,1,4.5s-0.3,3.3-1,4.6c-0.7,1.3-1.6,2.3-2.8,3s-2.7,1-4.3,1
		S128.5,53.9,127.3,53.2z M135,49.9c0.8-1,1.2-2.4,1.2-4.3s-0.4-3.3-1.2-4.2s-1.9-1.5-3.3-1.5s-2.5,0.5-3.3,1.5s-1.2,2.4-1.2,4.2
		c0,1.9,0.4,3.3,1.2,4.3s1.9,1.5,3.3,1.5S134.2,50.9,135,49.9z"/>
	<path class="st5" d="M153.2,37.3h3.5V54H154l-8.3-10.7V54h-3.4V37.3h2.7l8.3,10.6V37.3z"/>
	<path class="st5" d="M159.6,54V37.3h11.5v2.8h-8v3.9h7.5v2.9h-7.5v4.2h8V54H159.6z"/>
	<path class="st5" d="M187.3,54h-3.9l-2.1-5.6c-0.2-0.4-0.4-0.7-0.8-0.9c-0.4-0.2-0.8-0.3-1.3-0.3h-2.4V54h-3.6V37.3h7.4
		c1.9,0,3.4,0.4,4.4,1.3s1.5,2.1,1.5,3.6c0,1.1-0.3,2.1-0.9,2.9c-0.6,0.8-1.4,1.4-2.5,1.7c1,0.2,1.7,0.9,2.1,2L187.3,54z
		 M180.1,44.5c1,0,1.8-0.2,2.3-0.5c0.5-0.4,0.7-0.9,0.7-1.7s-0.2-1.3-0.7-1.7c-0.5-0.4-1.3-0.5-2.3-0.5h-3.3v4.4H180.1z"/>
	<path class="st5" d="M191.4,53.7c-1.2-0.3-2.1-0.8-2.9-1.4l1.2-2.6c1.6,1.1,3.4,1.7,5.4,1.7c1.1,0,1.9-0.2,2.5-0.5
		c0.6-0.3,0.9-0.8,0.9-1.4c0-0.5-0.3-1-0.8-1.3c-0.5-0.3-1.4-0.6-2.8-0.9c-1.5-0.3-2.6-0.7-3.5-1.1c-0.9-0.4-1.5-1-1.9-1.6
		c-0.4-0.6-0.6-1.4-0.6-2.3c0-1,0.3-1.9,0.8-2.7c0.6-0.8,1.3-1.4,2.3-1.9c1-0.4,2.2-0.7,3.5-0.7c1.2,0,2.3,0.2,3.4,0.5
		c1.1,0.3,2,0.8,2.6,1.4l-1.2,2.6c-1.5-1.1-3.1-1.7-4.9-1.7c-0.9,0-1.7,0.2-2.3,0.6c-0.6,0.4-0.8,0.9-0.8,1.5c0,0.4,0.1,0.7,0.3,0.9
		c0.2,0.3,0.6,0.5,1.1,0.7c0.5,0.2,1.2,0.4,2.1,0.6c2.1,0.5,3.7,1.1,4.6,1.8c0.9,0.8,1.4,1.8,1.4,3.1c0,1.6-0.6,2.8-1.8,3.7
		c-1.2,0.9-2.9,1.4-5.1,1.4C193.8,54.2,192.6,54,191.4,53.7z"/>
</g>
</svg>
