<svg xmlns="http://www.w3.org/2000/svg" width="43.198" height="28.188" viewBox="0 0 43.198 28.188">
  <g id="Group_221" data-name="Group 221" transform="translate(0.1 0.1)">
    <g id="Group_180" data-name="Group 180" transform="translate(0 0)">
      <path id="Path_167" data-name="Path 167" d="M25.476,49.352H45.417l3.211,4.3-15.552.236v6.3l-1.149-.825-1.06,1L29.717,59.4l-1.149,1.119L27.39,59.4l-1.09,1.06V53.888H22Z" transform="translate(-21.538 -48.925)" fill="#ff9401" stroke="#0c38ed" stroke-width="0.2"/>
      <path id="Path_168" data-name="Path 168" d="M41.636,109.765c-.118.08-.189.139-.269.181a.466.466,0,0,1-.6-.1.444.444,0,0,1-.04-.63,13.625,13.625,0,0,1,1.13-1.134.461.461,0,0,1,.654.065c.32.318.639.636.952.96a.51.51,0,1,1-.685.754c-.03-.023-.059-.047-.137-.109,0,.6,0,5.268,0,5.807,0,.383-.175.594-.489.6s-.516-.21-.517-.6C41.634,115.02,41.636,110.354,41.636,109.765Z" transform="translate(-35.217 -91.554)" fill="#ff9401" stroke="#ff9401" stroke-width="0.2"/>
      <path id="Path_169" data-name="Path 169" d="M53.5,114.363c.118-.08.189-.139.269-.181a.466.466,0,0,1,.6.1.444.444,0,0,1,.04.63,13.623,13.623,0,0,1-1.13,1.134.461.461,0,0,1-.654-.065c-.32-.318-.639-.636-.952-.96a.51.51,0,1,1,.685-.754c.03.023.059.047.137.109,0-.6,0-5.267,0-5.807,0-.383.175-.594.488-.6s.516.21.517.6C53.5,109.109,53.5,113.775,53.5,114.363Z" transform="translate(-43.055 -91.554)" fill="#ff9401" stroke="#ff9401" stroke-width="0.2"/>
      <path id="Path_170" data-name="Path 170" d="M27.313,75.73q-3.185,0-6.373,0a1.261,1.261,0,0,1-.429-.053c-.166-.059-.255-.177-.255-.634V71.289q0-9.2.008-18.4a1.132,1.132,0,0,1,.2-.607c.546-.754,1.1-1.5,1.653-2.253q.718-.973,1.433-1.95a.731.731,0,0,1,.652-.337c2.9,0,6.4.006,9.9.006s7,0,9.9-.006a.7.7,0,0,1,.625.321q.728,1,1.464,1.989.856,1.16,1.707,2.324a.906.906,0,0,1,.13.494l0,1.965c0,.185,0,.378,0,.579h-.944v-2.1a.094.094,0,0,0-.093-.094H32.342a.094.094,0,0,0-.093.094v1.508c0,1.523,0,3.033,0,4.541,0,.306-.078.459-.278.546a.467.467,0,0,1-.2.047.57.57,0,0,1-.409-.224c-.2-.212-.392-.422-.639-.687a.092.092,0,0,0-.067-.029h0a.091.091,0,0,0-.068.032l-.181.21c-.147.171-.273.319-.409.459a.652.652,0,0,1-.427.251.7.7,0,0,1-.447-.262c-.13-.133-.257-.269-.4-.421l-.214-.229a.092.092,0,0,0-.067-.029h0a.091.091,0,0,0-.068.031l-.173.2c-.16.182-.312.353-.468.51a.574.574,0,0,1-.384.2.587.587,0,0,1-.39-.208c-.166-.166-.327-.338-.5-.526l-.146-.156a.092.092,0,0,0-.067-.029h0a.091.091,0,0,0-.067.029l-.169.175c-.157.162-.3.31-.44.462a.589.589,0,0,1-.428.244.467.467,0,0,1-.173-.036c-.249-.1-.3-.3-.3-.6q.008-2.816.005-5.634v-.377a.093.093,0,0,0-.093-.094H21.3a.093.093,0,0,0-.093.094V74.693a.093.093,0,0,0,.093.094h6.633a.1.1,0,0,0,.03-.005H46.9a.094.094,0,0,0,.093-.094V72.966h.949v2.069c0,.055,0,.107-.005.157-.019.334-.106.428-.251.479a1.3,1.3,0,0,1-.431.052H42.928c-2.542,0-7.452,0-9.994.005H32.9q-1.623,0-3.248,0Zm-1.05-17.85c.128,0,.257.086.494.328.138.138.269.279.413.434l.111.119a.092.092,0,0,0,.067.029h0a.092.092,0,0,0,.067-.029l.068-.071c.2-.215.384-.4.567-.588a.625.625,0,0,1,.412-.227.634.634,0,0,1,.415.228l.249.248c.124.124.245.245.358.355a.092.092,0,0,0,.107.015,1.848,1.848,0,0,0,.476-.426c.189-.212.367-.412.6-.412a.828.828,0,0,1,.5.238.093.093,0,0,0,.059.021.09.09,0,0,0,.04-.009.094.094,0,0,0,.053-.085V53.309a.093.093,0,0,0-.093-.094H25.712a.093.093,0,0,0-.093.094V58.04a.1.1,0,0,0,.05.084.092.092,0,0,0,.1-.006A1.04,1.04,0,0,1,26.263,57.881ZM26.68,48.7a.093.093,0,0,0-.09.072l-.019.076c-.267,1.092-.531,2.175-.8,3.275a.1.1,0,0,0,.017.081.092.092,0,0,0,.073.036h5.207a.092.092,0,0,0,.073-.036.1.1,0,0,0,.017-.081c-.152-.624-.819-3.352-.819-3.352a.093.093,0,0,0-.09-.072Zm4.719-.016a.092.092,0,0,0-.073.036.1.1,0,0,0-.017.081c.161.652.317,1.291.472,1.925l.353,1.441a.093.093,0,0,0,.09.071h14.1a.092.092,0,0,0,.08-.047.094.094,0,0,0,0-.094l-.039-.07a.944.944,0,0,0-.068-.112l-.165-.225c-.671-.916-1.365-1.862-2.062-2.78a.654.654,0,0,0-.475-.217c-1.008-.008-3.089-.009-4.8-.009Zm-6.869.011a.617.617,0,0,0-.425.243c-.527.7-1.044,1.4-1.561,2.106l-.768,1.043a.1.1,0,0,0-.008.1.092.092,0,0,0,.083.052H24.7a.092.092,0,0,0,.09-.072l.817-3.338a.1.1,0,0,0-.013-.075.092.092,0,0,0-.063-.041l-.062-.01a.766.766,0,0,0-.128-.015S25,48.691,24.529,48.694Z" transform="translate(-20.256 -47.742)" fill="#0c38ed" stroke="#0c38ed" stroke-width="0.2"/>
      <g id="Group_178" data-name="Group 178" transform="translate(24.269 7.128)">
        <path id="Path_171" data-name="Path 171" d="M127.923,77.312a1.468,1.468,0,0,0-.493-1.148q-.537-.5-1.071-1.01c-.554-.522-1.105-1.042-1.665-1.553a4.632,4.632,0,0,0-.6-.451c-.1-.066-.194-.133-.289-.2a.071.071,0,0,0-.04-.013l-10.379.005h-3.205a1.494,1.494,0,0,0-.989,1.62c.019,1.644.011,15.468.011,15.468v.549a1.281,1.281,0,0,0,1.381,1.363H113.4l5.222,0q3.953,0,7.905.011h.005a1.372,1.372,0,0,0,1.4-1.408C127.912,83.59,127.918,84.147,127.923,77.312Zm-4.146-2.7c0-.183.005-.363.005-.551l3.038,2.866-.909,0c-.254,0-.5,0-.758-.005a4.448,4.448,0,0,1-.777-.053.656.656,0,0,1-.581-.6C123.766,75.719,123.772,75.178,123.777,74.608Zm3.179,15.826c0,.461-.08.546-.535.546H110.692l-.1,0-.05,0a.337.337,0,0,1-.368-.371c0,.135,0,1.8,0-2.564V74.41c0-.432.08-.514.506-.514h12.1v.565c0,.517,0,1.021,0,1.522a1.816,1.816,0,0,0,1.887,1.9c.3.005.6.005.9.005h1.172c.05,0,.1,0,.156.005a.511.511,0,0,0,.064,0Z" transform="translate(-109.196 -72.933)" fill="#0c38ed" stroke="#0c38ed" stroke-width="0.2"/>
      </g>
      <g id="Group_179" data-name="Group 179" transform="translate(26.925 10.431)">
        <path id="Path_172" data-name="Path 172" d="M125.182,92.51c-.2.305-.178.578.071.749a.475.475,0,0,0,.27.09.564.564,0,0,0,.455-.295q2.1-3.135,4.189-6.274a1.468,1.468,0,0,0,.112-.218c.02-.044.042-.093.069-.15a.066.066,0,0,0-.011-.074c-.031-.034-.061-.072-.09-.109a.745.745,0,0,0-.257-.242.45.45,0,0,0-.187-.043.541.541,0,0,0-.435.29q-1.366,2.053-2.736,4.1Z" transform="translate(-123.635 -85.945)" fill="#ff9401" stroke="#ff9401" stroke-width="0.2"/>
        <path id="Path_173" data-name="Path 173" d="M139.937,100.342a1.583,1.583,0,0,0-1.559,1.63,1.645,1.645,0,0,0,.469,1.185,1.558,1.558,0,0,0,2.2-.005,1.639,1.639,0,0,0,.475-1.18A1.607,1.607,0,0,0,139.937,100.342Zm.414,2.137a.554.554,0,0,1-.4.162.611.611,0,0,1-.594-.665v-.005a.591.591,0,0,1,.6-.644v-.066l.013.066a.588.588,0,0,1,.581.649A.69.69,0,0,1,140.35,102.479Z" transform="translate(-133.433 -96.525)" fill="#ff9401" stroke="#ff9401" stroke-width="0.2"/>
        <path id="Path_174" data-name="Path 174" d="M121.287,87.152a1.554,1.554,0,0,0-1.559,1.612,1.657,1.657,0,0,0,.443,1.169,1.522,1.522,0,0,0,1.119.469h0a1.626,1.626,0,0,0-.005-3.25Zm.416,2.115a.569.569,0,0,1-.411.172.578.578,0,0,1-.411-.172.7.7,0,0,1-.191-.5.608.608,0,0,1,.594-.647l.008-.066v.066a.61.61,0,0,1,.607.65A.675.675,0,0,1,121.7,89.267Z" transform="translate(-119.727 -86.832)" fill="#ff9401" stroke="#ff9401" stroke-width="0.2"/>
        <path id="Path_175" data-name="Path 175" d="M127.765,130.155a.49.49,0,0,1-.314.285,1.17,1.17,0,0,1-.386.056c-.074,0-.149-.005-.221-.008s-.141-.008-.21-.008l-5.652,0q-.392,0-.783-.008a.478.478,0,0,1-.472-.482.5.5,0,0,1,.453-.474.557.557,0,0,1,.1-.006h.093l2.464,0,1,0,1.46,0h.12c.37,0,.74,0,1.111-.005.082,0,.165-.006.248-.011s.181-.011.272-.011h.045a.843.843,0,0,1,.5.152A.467.467,0,0,1,127.765,130.155Z" transform="translate(-119.725 -117.949)" fill="#ff9401" stroke="#ff9401" stroke-width="0.2"/>
        <path id="Path_176" data-name="Path 176" d="M129.287,121.588a.488.488,0,0,1-.463.49c-.029,0-.059.005-.088.005l-.1,0-8.353,0c-.035,0-.072,0-.107-.005a.507.507,0,0,1-.453-.509.483.483,0,0,1,.469-.45c.042,0,.082,0,.125,0l8.018,0c.157,0,.314,0,.472.005A.465.465,0,0,1,129.287,121.588Z" transform="translate(-119.724 -111.791)" fill="#ff9401" stroke="#ff9401" stroke-width="0.2"/>
      </g>
    </g>
  </g>
</svg>
