<svg xmlns="http://www.w3.org/2000/svg" width="66.077" height="43.081" viewBox="0 0 66.077 43.081">
  <g id="Group_180" data-name="Group 180" transform="translate(-20.156 -47.642)">
    <path id="Path_167" data-name="Path 167" d="M27.325,49.352H57.877L62.8,55.941,38.968,56.3v9.657L37.208,64.7,35.584,66.23l-1.76-1.489-1.76,1.715-1.805-1.715-1.67,1.625V56.3H22Z" transform="translate(-1.036 -0.956)" fill="#ff9401" stroke="#0c38ed" stroke-width="0.2"/>
    <path id="Path_168" data-name="Path 168" d="M42.18,110.721c-.18.123-.289.213-.411.278a.714.714,0,0,1-.92-.159.68.68,0,0,1-.061-.965,20.881,20.881,0,0,1,1.732-1.738.707.707,0,0,1,1,.1c.49.487.978.975,1.458,1.471a.782.782,0,1,1-1.049,1.156c-.046-.035-.091-.072-.209-.168,0,.913,0,8.07,0,8.9,0,.587-.268.909-.749.922-.5.013-.79-.322-.792-.926C42.177,118.771,42.18,111.622,42.18,110.721Z" transform="translate(-12.089 -35.077)" fill="#ff9401" stroke="#ff9401" stroke-width="0.2"/>
    <path id="Path_169" data-name="Path 169" d="M54.57,117.765c.18-.123.289-.213.411-.278a.714.714,0,0,1,.92.159.68.68,0,0,1,.061.965,20.876,20.876,0,0,1-1.732,1.738.706.706,0,0,1-1-.1c-.49-.487-.979-.975-1.459-1.471a.782.782,0,1,1,1.049-1.156c.047.035.091.072.21.168,0-.913,0-8.07,0-8.9,0-.586.268-.909.748-.922.5-.013.79.322.792.926C54.573,109.715,54.57,116.863,54.57,117.765Z" transform="translate(-18.317 -35.077)" fill="#ff9401" stroke="#ff9401" stroke-width="0.2"/>
    <path id="Path_170" data-name="Path 170" d="M31.068,90.623q-4.88-.006-9.764,0a1.931,1.931,0,0,1-.658-.082c-.254-.09-.39-.271-.39-.971V83.818q0-14.1.012-28.191a1.735,1.735,0,0,1,.314-.93c.836-1.155,1.684-2.3,2.532-3.452q1.1-1.491,2.195-2.987a1.121,1.121,0,0,1,1-.516c4.449.007,9.807.01,15.166.01s10.718,0,15.169-.01a1.066,1.066,0,0,1,.958.491q1.116,1.528,2.243,3.048,1.312,1.777,2.615,3.56a1.388,1.388,0,0,1,.2.756l.005,3.01c0,.283,0,.579,0,.887H61.217V56.279a.143.143,0,0,0-.142-.144h-22.3a.143.143,0,0,0-.142.144v2.31c0,2.333,0,4.646,0,6.958,0,.469-.119.7-.426.836a.716.716,0,0,1-.3.072.873.873,0,0,1-.627-.344c-.3-.325-.6-.647-.979-1.053a.141.141,0,0,0-.1-.045h0a.139.139,0,0,0-.1.049l-.277.322c-.225.262-.418.489-.627.7a1,1,0,0,1-.653.384,1.071,1.071,0,0,1-.685-.4c-.2-.2-.394-.412-.611-.645l-.328-.351a.141.141,0,0,0-.1-.045h0a.14.14,0,0,0-.1.047l-.265.3c-.245.278-.478.541-.717.781a.879.879,0,0,1-.589.314.9.9,0,0,1-.6-.319c-.254-.255-.5-.518-.771-.805l-.224-.239a.14.14,0,0,0-.1-.045h0a.139.139,0,0,0-.1.044l-.259.268c-.24.249-.459.475-.673.708a.9.9,0,0,1-.656.373.716.716,0,0,1-.265-.055c-.381-.15-.458-.464-.458-.922q.012-4.315.008-8.631v-.578a.143.143,0,0,0-.142-.144H21.853a.143.143,0,0,0-.142.144V89.033a.143.143,0,0,0,.142.144H32.015a.148.148,0,0,0,.047-.008H61.075a.143.143,0,0,0,.142-.144V86.387h1.454v3.171c0,.084,0,.164-.008.24-.029.511-.163.656-.384.733a1.993,1.993,0,0,1-.66.08H54.991c-3.9,0-11.417,0-15.312.008h-.056q-2.486,0-4.976,0ZM29.46,63.275c.2,0,.394.132.756.5.212.211.411.427.632.665l.169.183a.141.141,0,0,0,.1.045h0a.141.141,0,0,0,.1-.044l.1-.109c.313-.329.588-.618.869-.9a.957.957,0,0,1,.632-.348.971.971,0,0,1,.636.35l.382.381c.19.19.375.376.549.544a.141.141,0,0,0,.164.024,2.832,2.832,0,0,0,.729-.653c.289-.325.563-.632.914-.632a1.269,1.269,0,0,1,.77.365.142.142,0,0,0,.09.033.138.138,0,0,0,.061-.014.144.144,0,0,0,.081-.13V56.271a.143.143,0,0,0-.142-.144H28.615a.143.143,0,0,0-.143.144v7.249a.145.145,0,0,0,.076.128.14.14,0,0,0,.067.017.141.141,0,0,0,.08-.025A1.593,1.593,0,0,1,29.46,63.275ZM30.1,49.208a.142.142,0,0,0-.138.11l-.028.117c-.409,1.673-.814,3.332-1.231,5.018a.145.145,0,0,0,.026.124.14.14,0,0,0,.112.056h7.977a.141.141,0,0,0,.112-.055.147.147,0,0,0,.026-.124c-.232-.956-1.255-5.135-1.255-5.135a.142.142,0,0,0-.138-.11Zm7.23-.025a.141.141,0,0,0-.112.056.146.146,0,0,0-.026.124c.247,1,.486,1.977.723,2.949l.54,2.207a.143.143,0,0,0,.138.109h21.6a.14.14,0,0,0,.123-.073.145.145,0,0,0,0-.144l-.06-.107a1.445,1.445,0,0,0-.1-.171l-.253-.345c-1.028-1.4-2.092-2.853-3.16-4.26a1,1,0,0,0-.727-.332c-1.545-.012-4.732-.013-7.356-.013ZM26.8,49.2a.945.945,0,0,0-.651.372c-.807,1.07-1.6,2.148-2.392,3.226l-1.176,1.6a.147.147,0,0,0-.013.151.141.141,0,0,0,.127.079h4.37a.142.142,0,0,0,.138-.11L28.456,49.4a.146.146,0,0,0-.019-.115.141.141,0,0,0-.1-.063l-.094-.016a1.174,1.174,0,0,0-.2-.023S27.518,49.2,26.8,49.2Z" transform="translate(0)" fill="#0c38ed" stroke="#0c38ed" stroke-width="0.2"/>
    <g id="Group_178" data-name="Group 178" transform="translate(57.438 58.662)">
      <path id="Path_171" data-name="Path 171" d="M137.887,79.643a2.249,2.249,0,0,0-.755-1.759q-.822-.768-1.641-1.547c-.849-.8-1.694-1.6-2.551-2.38a7.1,7.1,0,0,0-.914-.69c-.15-.1-.3-.2-.443-.313a.11.11,0,0,0-.061-.02l-15.9.008h-4.91a2.29,2.29,0,0,0-1.515,2.482c.028,2.518.016,23.7.016,23.7v.841a1.963,1.963,0,0,0,2.116,2.088h4.3l8,0q6.056,0,12.112.016h.008a2.1,2.1,0,0,0,2.14-2.157C137.871,89.26,137.879,90.113,137.887,79.643ZM131.535,75.5c0-.28.008-.556.008-.845l4.655,4.391-1.393,0c-.39,0-.768,0-1.162-.008a6.815,6.815,0,0,1-1.19-.081,1,1,0,0,1-.889-.922C131.519,77.2,131.527,76.373,131.535,75.5Zm4.87,24.247c0,.707-.122.837-.82.837h-24.1l-.154,0-.077,0a.516.516,0,0,1-.565-.569c0,.207,0,2.762,0-3.928V75.2c0-.662.122-.788.776-.788H130v.865c0,.792,0,1.564,0,2.331a2.782,2.782,0,0,0,2.892,2.9c.459.008.914.008,1.377.008h1.8c.077,0,.154,0,.24.008a.783.783,0,0,0,.1,0Z" transform="translate(-109.196 -72.933)" fill="#0c38ed" stroke="#0c38ed" stroke-width="0.2"/>
    </g>
    <g id="Group_179" data-name="Group 179" transform="translate(61.508 63.724)">
      <path id="Path_172" data-name="Path 172" d="M125.255,96c-.312.468-.273.886.109,1.147a.728.728,0,0,0,.414.138.864.864,0,0,0,.7-.451q3.213-4.8,6.418-9.612a2.256,2.256,0,0,0,.171-.334c.03-.067.064-.143.106-.229a.1.1,0,0,0-.017-.113c-.048-.052-.093-.11-.138-.168a1.141,1.141,0,0,0-.394-.37.689.689,0,0,0-.287-.067.828.828,0,0,0-.667.445q-2.093,3.145-4.192,6.286Z" transform="translate(-122.884 -85.945)" fill="#ff9401" stroke="#ff9401" stroke-width="0.2"/>
      <path id="Path_173" data-name="Path 173" d="M140.766,100.342a2.425,2.425,0,0,0-2.388,2.5,2.52,2.52,0,0,0,.719,1.816,2.388,2.388,0,0,0,3.375-.008,2.511,2.511,0,0,0,.727-1.807A2.462,2.462,0,0,0,140.766,100.342Zm.634,3.274a.849.849,0,0,1-.617.248.936.936,0,0,1-.91-1.019v-.008a.906.906,0,0,1,.914-.987v-.1l.02.1a.9.9,0,0,1,.889,1A1.057,1.057,0,0,1,141.4,103.616Z" transform="translate(-130.801 -94.495)" fill="#ff9401" stroke="#ff9401" stroke-width="0.2"/>
      <path id="Path_174" data-name="Path 174" d="M122.116,87.152a2.381,2.381,0,0,0-2.388,2.469,2.539,2.539,0,0,0,.678,1.791,2.332,2.332,0,0,0,1.714.719h0a2.491,2.491,0,0,0-.008-4.979Zm.638,3.241a.872.872,0,0,1-.63.264.886.886,0,0,1-.63-.264,1.074,1.074,0,0,1-.292-.764.932.932,0,0,1,.91-.991l.012-.1v.1a.934.934,0,0,1,.93,1A1.035,1.035,0,0,1,122.754,90.393Z" transform="translate(-119.726 -86.662)" fill="#ff9401" stroke="#ff9401" stroke-width="0.2"/>
      <path id="Path_175" data-name="Path 175" d="M132.043,130.506a.75.75,0,0,1-.482.437,1.792,1.792,0,0,1-.592.086c-.114,0-.228-.008-.339-.012s-.216-.012-.322-.012l-8.66,0q-.6,0-1.2-.012a.732.732,0,0,1-.723-.739.759.759,0,0,1,.694-.726.855.855,0,0,1,.147-.009h.143l3.775,0,1.534,0c.743,0,1.49,0,2.237,0h.184c.567,0,1.134,0,1.7-.008.126,0,.253-.009.379-.017s.277-.016.416-.016h.069a1.291,1.291,0,0,1,.771.233A.715.715,0,0,1,132.043,130.506Z" transform="translate(-119.725 -111.806)" fill="#ff9401" stroke="#ff9401" stroke-width="0.2"/>
      <path id="Path_176" data-name="Path 176" d="M134.375,121.841a.748.748,0,0,1-.71.751c-.045,0-.09.008-.134.008l-.151,0-12.8,0c-.053,0-.11,0-.163-.008a.777.777,0,0,1-.694-.78.74.74,0,0,1,.718-.69c.065,0,.126,0,.192,0l12.284,0c.241,0,.482,0,.723.008A.713.713,0,0,1,134.375,121.841Z" transform="translate(-119.724 -106.83)" fill="#ff9401" stroke="#ff9401" stroke-width="0.2"/>
    </g>
  </g>
</svg>
