<svg xmlns="http://www.w3.org/2000/svg" width="43.183" height="28.182" viewBox="0 0 43.183 28.182">
  <g id="Group_180" data-name="Group 180" transform="translate(-20.156 -47.64)">
    <path id="Path_167" data-name="Path 167" d="M25.474,49.352H45.409l3.212,4.3-15.55.234v6.3l-1.148-.82-1.06,1-1.148-.972-1.148,1.119-1.178-1.119-1.09,1.06V53.885H22Z" transform="translate(-1.282 -1.184)" fill="#50a8ff" stroke="#0c38ed" stroke-width="0.2"/>
    <path id="Path_168" data-name="Path 168" d="M41.636,109.767c-.117.08-.189.139-.268.181a.466.466,0,0,1-.6-.1.444.444,0,0,1-.04-.63,13.623,13.623,0,0,1,1.13-1.134.461.461,0,0,1,.652.065c.32.318.638.636.951.96a.51.51,0,1,1-.684.754c-.03-.023-.059-.047-.136-.11v5.807c0,.383-.175.593-.489.6s-.515-.21-.517-.6C41.634,115.019,41.636,110.355,41.636,109.767Z" transform="translate(-14.963 -43.82)" fill="#0c38ed" stroke="#0c38ed" stroke-width="0.2"/>
    <path id="Path_169" data-name="Path 169" d="M53.5,114.36c.117-.08.189-.139.268-.181a.466.466,0,0,1,.6.1.444.444,0,0,1,.04.63,13.621,13.621,0,0,1-1.13,1.134.461.461,0,0,1-.652-.065c-.32-.318-.639-.636-.952-.96a.51.51,0,1,1,.684-.754c.031.023.059.047.137.11v-5.807c0-.382.175-.593.488-.6s.515.21.517.6C53.5,109.108,53.5,113.772,53.5,114.36Z" transform="translate(-22.802 -43.817)" fill="#0c38ed" stroke="#0c38ed" stroke-width="0.2"/>
    <path id="Path_170" data-name="Path 170" d="M27.311,75.72q-3.184,0-6.371,0a1.26,1.26,0,0,1-.429-.054c-.166-.059-.254-.177-.254-.634V71.28q0-9.2.008-18.394a1.132,1.132,0,0,1,.2-.607c.545-.754,1.1-1.5,1.652-2.252q.718-.973,1.432-1.949a.731.731,0,0,1,.652-.337c2.9,0,6.4.007,9.9.007s6.993,0,9.9-.007a.7.7,0,0,1,.625.32q.728,1,1.464,1.989.856,1.159,1.706,2.323a.906.906,0,0,1,.13.493l0,1.964v.579h-.945v-2.1a.093.093,0,0,0-.093-.094H32.339a.093.093,0,0,0-.093.094v6.047c0,.306-.078.457-.278.545a.467.467,0,0,1-.2.047.57.57,0,0,1-.409-.224c-.2-.212-.391-.422-.639-.687a.092.092,0,0,0-.065-.029h0a.091.091,0,0,0-.065.032l-.181.21c-.147.171-.273.319-.409.457a.653.653,0,0,1-.426.251.7.7,0,0,1-.447-.261c-.13-.13-.257-.269-.4-.421l-.214-.229a.092.092,0,0,0-.065-.029h0a.091.091,0,0,0-.065.031l-.173.2c-.16.181-.312.353-.468.51a.574.574,0,0,1-.384.2.587.587,0,0,1-.391-.208c-.166-.166-.326-.338-.5-.525l-.146-.156a.091.091,0,0,0-.065-.029h0a.091.091,0,0,0-.065.029l-.169.175c-.157.162-.3.31-.439.462a.587.587,0,0,1-.428.243.467.467,0,0,1-.173-.036c-.249-.1-.3-.3-.3-.6q.008-2.815.005-5.632V53.3a.093.093,0,0,0-.093-.094H21.3a.093.093,0,0,0-.093.094V74.683a.093.093,0,0,0,.093.094h6.63a.1.1,0,0,0,.031-.005H46.89a.093.093,0,0,0,.093-.094V72.956h.949v2.069a1.518,1.518,0,0,1-.005.157c-.019.333-.106.428-.251.478a1.3,1.3,0,0,1-.431.052H42.92c-2.545,0-7.449,0-9.991.005H29.646ZM26.261,57.876c.13,0,.257.086.493.326.138.138.268.279.412.434l.11.119a.092.092,0,0,0,.065.029h0a.092.092,0,0,0,.065-.029l.065-.071c.2-.215.384-.4.567-.587a.624.624,0,0,1,.412-.227.634.634,0,0,1,.415.228l.249.249c.124.124.245.245.358.355a.092.092,0,0,0,.107.016,1.848,1.848,0,0,0,.476-.426c.189-.212.367-.412.6-.412a.828.828,0,0,1,.5.238.093.093,0,0,0,.059.022.09.09,0,0,0,.04-.009.094.094,0,0,0,.053-.085v-4.74a.093.093,0,0,0-.093-.094h-5.5a.093.093,0,0,0-.093.094v4.73a.1.1,0,0,0,.05.084.092.092,0,0,0,.1-.005,1.039,1.039,0,0,1,.5-.238Zm.418-9.178a.093.093,0,0,0-.09.072l-.018.076c-.267,1.092-.531,2.174-.8,3.274a.1.1,0,0,0,.017.081.091.091,0,0,0,.073.037h5.2a.092.092,0,0,0,.073-.036.1.1,0,0,0,.017-.081c-.151-.624-.819-3.35-.819-3.35a.093.093,0,0,0-.09-.072Zm4.717-.016a.092.092,0,0,0-.073.037.1.1,0,0,0-.017.081c.161.652.317,1.29.472,1.924l.352,1.44a.093.093,0,0,0,.09.071H46.314a.091.091,0,0,0,.08-.048.1.1,0,0,0,0-.094l-.039-.07a.942.942,0,0,0-.065-.112l-.165-.225c-.671-.913-1.365-1.862-2.062-2.78a.652.652,0,0,0-.474-.217c-1.008-.008-3.088-.008-4.8-.008Zm-6.871.011a.617.617,0,0,0-.425.243c-.527.7-1.044,1.4-1.561,2.1l-.767,1.044a.1.1,0,0,0-.008.1.092.092,0,0,0,.083.052H24.7a.093.093,0,0,0,.09-.072l.818-3.339a.1.1,0,0,0-.012-.075.092.092,0,0,0-.065-.041l-.061-.01a.766.766,0,0,0-.13-.015S24.994,48.693,24.526,48.693Z" fill="#0c38ed" stroke="#0c38ed" stroke-width="0.2"/>
    <g id="Group_178" data-name="Group 178" transform="translate(44.502 54.867)">
      <path id="Path_171" data-name="Path 171" d="M127.909,77.311a1.467,1.467,0,0,0-.493-1.148q-.536-.5-1.071-1.009c-.554-.522-1.105-1.044-1.664-1.553a4.633,4.633,0,0,0-.6-.45c-.1-.065-.2-.13-.289-.2a.072.072,0,0,0-.04-.013l-10.374.005h-3.2a1.494,1.494,0,0,0-.989,1.619c.018,1.643.01,15.464.01,15.464v.549a1.281,1.281,0,0,0,1.381,1.362h8.025q3.951,0,7.9.01h.005a1.37,1.37,0,0,0,1.4-1.407C127.9,83.586,127.9,84.143,127.909,77.311Zm-4.145-2.7c0-.183.005-.363.005-.551l3.037,2.865H125.9c-.254,0-.5,0-.758-.005a4.446,4.446,0,0,1-.776-.053.652.652,0,0,1-.58-.6C123.754,75.717,123.759,75.178,123.764,74.608Zm3.178,15.821c0,.461-.08.546-.535.546H110.531a.337.337,0,0,1-.369-.371V74.413c0-.432.08-.514.506-.514h12.094v2.085a1.815,1.815,0,0,0,1.887,1.892c.3.005.6.005.9.005h1.174c.05,0,.1,0,.157.005a.512.512,0,0,0,.065,0Z" transform="translate(-109.174 -72.934)" fill="#0c38ed" stroke="#0c38ed" stroke-width="0.2"/>
    </g>
    <g id="Group_179" data-name="Group 179" transform="translate(47.171 58.167)">
      <path id="Path_172" data-name="Path 172" d="M125.182,92.5c-.2.305-.178.578.071.748a.475.475,0,0,0,.27.09.564.564,0,0,0,.457-.294q2.1-3.132,4.188-6.272a1.472,1.472,0,0,0,.112-.218c.02-.044.042-.093.069-.149a.065.065,0,0,0-.011-.074c-.031-.034-.061-.072-.09-.11a.744.744,0,0,0-.257-.241.45.45,0,0,0-.187-.044.54.54,0,0,0-.435.29q-1.366,2.052-2.735,4.1Z" transform="translate(-123.635 -85.941)" fill="#0c38ed" stroke="#0c38ed" stroke-width="0.2"/>
      <path id="Path_173" data-name="Path 173" d="M139.936,100.342a1.582,1.582,0,0,0-1.558,1.631,1.644,1.644,0,0,0,.469,1.185,1.558,1.558,0,0,0,2.2-.005,1.638,1.638,0,0,0,.474-1.179,1.606,1.606,0,0,0-1.587-1.632Zm.414,2.136a.554.554,0,0,1-.4.162.611.611,0,0,1-.594-.665v-.005a.591.591,0,0,1,.6-.644v-.065l.013.065a.587.587,0,0,1,.58.652.69.69,0,0,1-.193.5Z" transform="translate(-133.433 -96.524)" fill="#0c38ed" stroke="#0c38ed" stroke-width="0.2"/>
      <path id="Path_174" data-name="Path 174" d="M121.286,87.152a1.554,1.554,0,0,0-1.558,1.611,1.657,1.657,0,0,0,.442,1.169,1.522,1.522,0,0,0,1.118.469h0a1.625,1.625,0,0,0-.005-3.249Zm.416,2.115a.569.569,0,0,1-.411.172.578.578,0,0,1-.411-.172.7.7,0,0,1-.191-.5.608.608,0,0,1,.594-.647l.008-.065v.065a.609.609,0,0,1,.607.652A.675.675,0,0,1,121.7,89.267Z" transform="translate(-119.725 -86.83)" fill="#0c38ed" stroke="#0c38ed" stroke-width="0.2"/>
      <path id="Path_175" data-name="Path 175" d="M127.762,130.149a.489.489,0,0,1-.314.285,1.169,1.169,0,0,1-.386.056c-.074,0-.149-.005-.221-.008s-.141-.008-.21-.008h-5.65q-.391,0-.783-.008a.478.478,0,0,1-.472-.482.5.5,0,0,1,.453-.474.557.557,0,0,1,.1-.006h5.137c.37,0,.74,0,1.109-.005.082,0,.165-.006.247-.011s.181-.01.271-.01h.045a.842.842,0,0,1,.5.152A.466.466,0,0,1,127.762,130.149Z" transform="translate(-119.724 -117.945)" fill="#0c38ed" stroke="#0c38ed" stroke-width="0.2"/>
      <path id="Path_176" data-name="Path 176" d="M129.283,121.591a.488.488,0,0,1-.463.49c-.029,0-.059.005-.087.005h-8.45a.725.725,0,0,1-.106-.005.507.507,0,0,1-.453-.509.483.483,0,0,1,.468-.45h8.14c.157,0,.314,0,.472.005a.465.465,0,0,1,.48.464Z" transform="translate(-119.723 -111.794)" fill="#0c38ed" stroke="#0c38ed" stroke-width="0.2"/>
    </g>
  </g>
</svg>
