<svg xmlns="http://www.w3.org/2000/svg" width="43.252" height="27.951" viewBox="0 0 43.252 27.951">
  <g id="Group_211" data-name="Group 211" transform="translate(0.154 0.1)">
    <path id="Path_177" data-name="Path 177" d="M46.506,64.25v.83a4.255,4.255,0,0,0-1.314.285c-.728.3-1.416.693-2.139,1.01A7.377,7.377,0,0,1,41.369,67c-1.4.228-2.816.368-4.224.519A1.7,1.7,0,0,0,35.592,69.7h.293c1.134,0,2.265,0,3.4,0a.636.636,0,0,1,.3.024.729.729,0,0,1,.285.314.3.3,0,0,1-.15.363H34.961a1.24,1.24,0,0,1-.14-.051c-2.166-.943-4.326-1.9-6.486-2.845-.11-.048-.223-.1-.339-.14v-.9c.169.051.333.113.492.177.067.024.134.048.2.075a8.408,8.408,0,0,1,.22-6.8c.07-.142.134-.277.2-.411a12.571,12.571,0,0,1,.61-1.155,13.1,13.1,0,0,1,1.018-1.419A20.385,20.385,0,0,1,33.9,53.914a.239.239,0,0,0,.11-.261,1.4,1.4,0,0,1,.43-1.163c-.083-.156-.169-.312-.253-.467-.218-.392-.441-.8-.637-1.212a4.149,4.149,0,0,1-.309-1.008,1.58,1.58,0,0,1,.04-.685.721.721,0,0,1,.69-.6.889.889,0,0,1,.395.1.958.958,0,0,0,.408.1.721.721,0,0,0,.43-.15,1.608,1.608,0,0,1,.312-.156l.132-.056a.049.049,0,0,1,.027-.005h.564a.058.058,0,0,1,.03.005c.062.032.126.064.188.1a2.31,2.31,0,0,0,.43.2,1.018,1.018,0,0,0,.271.038.863.863,0,0,0,.242-.032,2.461,2.461,0,0,0,.454-.207c.064-.035.126-.067.191-.1a.074.074,0,0,1,.032-.005h.564a.053.053,0,0,1,.03.005l.193.1a2.213,2.213,0,0,0,.427.2.93.93,0,0,0,.247.035.681.681,0,0,0,.242-.04,1.383,1.383,0,0,1,.505-.1.774.774,0,0,1,.607.258,1.045,1.045,0,0,1,.175.86,6.814,6.814,0,0,1-.357,1.212l-.048.134a3.372,3.372,0,0,1-.263.543l-.083.148c-.078.134-.159.269-.236.4l-.129.218c.027.032.048.046.067.046s.043-.008.091-.056a2.6,2.6,0,0,1,1.857-.758c.1,0,.2.005.293.013s.215.016.322.016a2.774,2.774,0,0,0,1.537-.441.52.52,0,0,1,.282-.089.422.422,0,0,1,.365.218.438.438,0,0,1-.172.637,3.531,3.531,0,0,1-1.913.588,3.787,3.787,0,0,1-.39-.021,2.332,2.332,0,0,0-.271-.016,1.8,1.8,0,0,0-1.411.642c-.005,0-.008.008-.013.013.089.011.175.021.261.03.279.032.54.062.809.113a3.7,3.7,0,0,1,2.477,1.467.918.918,0,0,1,.164.347.424.424,0,0,1-.293.473.5.5,0,0,1-.172.035.445.445,0,0,1-.371-.226,3.154,3.154,0,0,0-2.778-1.26c.18.15.36.3.537.446a14.983,14.983,0,0,1,4.017,5.024,9.367,9.367,0,0,1,.97,4.473c0,.062,0,.126,0,.193l0,.035Z" transform="translate(-25.789 -48.355)" fill="#ff9401" stroke="#ff9401" stroke-width="0.2"/>
    <path id="Path_178" data-name="Path 178" d="M109.587,78.058c0-.048,0-.089,0-.117C109.587,77.98,109.588,78.019,109.587,78.058Zm0,0c0,.285,0,.919,0,1.793C109.585,79.254,109.585,78.655,109.587,78.058Z" transform="translate(-85.456 -69.992)" fill="#0c38ed" stroke="#0c38ed" stroke-width="0.2"/>
    <path id="Path_179" data-name="Path 179" d="M128.421,55.876a1.432,1.432,0,0,0-.479-1.117c-.927-.865-1.842-1.747-2.778-2.6a9.866,9.866,0,0,0-.895-.657H110.5a1.458,1.458,0,0,0-.96,1.582c.022,1.825.016,3.648.014,5.474V58.6c0,.635,0,1.274,0,1.909v.106c0,4.787,0,16.241,0,16.462a1.23,1.23,0,0,0,1.333,1.317c5.393,0,10.786-.008,16.178.008a1.327,1.327,0,0,0,1.358-1.363Q128.4,66.461,128.421,55.876Zm-4.206-3.462c1.109,1.044,2.185,2.061,3.324,3.132-.676,0-1.269.005-1.858,0a4.729,4.729,0,0,1-.809-.054.731.731,0,0,1-.643-.674C124.189,54.034,124.215,53.25,124.215,52.414Zm3.359,24.522c0,.508-.111.622-.611.622h-15.97c-.051,0-.1,0-.157,0a.407.407,0,0,1-.438-.444c-.005-.23,0-11.567,0-16.406V52.928c0-.476.114-.59.582-.59h12.349c0,.752-.006,1.469,0,2.185a1.783,1.783,0,0,0,1.85,1.858c.7.011,1.4,0,2.1.006.092,0,.184.008.292.011Z" transform="translate(-85.426 -50.653)" fill="#0c38ed" stroke="#0c38ed" stroke-width="0.2"/>
    <g id="Group_181" data-name="Group 181" transform="translate(27.208 7.075)">
      <path id="Path_180" data-name="Path 180" d="M131.637,75.066a3.517,3.517,0,0,1-.179.365q-2.124,3.187-4.253,6.37c-.185.276-.422.341-.643.189s-.241-.388-.054-.667q2.125-3.186,4.25-6.371c.138-.207.318-.331.548-.226C131.442,74.787,131.531,74.952,131.637,75.066Z" transform="translate(-124.949 -74.687)" fill="#0c38ed" stroke="#0c38ed" stroke-width="0.2"/>
      <path id="Path_181" data-name="Path 181" d="M142.8,90.7a1.553,1.553,0,0,1-1.534,1.595,1.593,1.593,0,0,1-.012-3.182A1.556,1.556,0,0,1,142.8,90.7Zm-2.209,0a.676.676,0,1,0,1.345,0,.674.674,0,1,0-1.345,0Z" transform="translate(-134.713 -85.238)" fill="#0c38ed" stroke="#0c38ed" stroke-width="0.2"/>
      <path id="Path_182" data-name="Path 182" d="M124.091,77.476a1.523,1.523,0,1,1-1.528-1.584A1.511,1.511,0,0,1,124.091,77.476Zm-.839-.006a.684.684,0,1,0-1.365,0,.685.685,0,1,0,1.365,0Z" transform="translate(-121.046 -75.568)" fill="#0c38ed" stroke="#0c38ed" stroke-width="0.2"/>
    </g>
    <path id="Path_183" data-name="Path 183" d="M28.95,70.405a1.6,1.6,0,0,0,.449.073c1.308.011,2.62.005,3.931,0a.93.93,0,0,0,.322-.048.334.334,0,0,0,.054-.027Zm0,0a1.6,1.6,0,0,0,.449.073c1.308.011,2.62.005,3.931,0a.93.93,0,0,0,.322-.048.334.334,0,0,0,.054-.027ZM62.762,53.538a1.488,1.488,0,0,0-.5-1.163q-.544-.508-1.085-1.024c-.562-.529-1.12-1.056-1.687-1.574a4.694,4.694,0,0,0-.6-.457c-.1-.067-.2-.134-.293-.207a.072.072,0,0,0-.04-.013L44.785,49.1a1.515,1.515,0,0,0-1,1.642c.019,1.666.016,3.358.013,4.995v.519q0,.951,0,1.908v4.7c-.634,0-1.314,0-1.475.005a1.152,1.152,0,0,0-1.12.889c-.024.113-.038.223-.051.339-.005.032-.008.067-.013.1l-.639.054-.287.024,0-.035c0-.067,0-.132,0-.193a9.367,9.367,0,0,0-.97-4.473,14.983,14.983,0,0,0-4.017-5.024c-.177-.15-.357-.3-.537-.446a3.154,3.154,0,0,1,2.778,1.26.445.445,0,0,0,.371.226A.5.5,0,0,0,38,55.553a.424.424,0,0,0,.293-.473.918.918,0,0,0-.164-.347,3.7,3.7,0,0,0-2.477-1.467c-.269-.051-.529-.081-.809-.113-.086-.008-.172-.019-.261-.03.005-.005.008-.011.013-.013a1.8,1.8,0,0,1,1.411-.642,2.332,2.332,0,0,1,.271.016,3.787,3.787,0,0,0,.39.021,3.531,3.531,0,0,0,1.913-.588.438.438,0,0,0,.172-.637.422.422,0,0,0-.365-.218.52.52,0,0,0-.282.089,2.774,2.774,0,0,1-1.537.441q-.161,0-.322-.016c-.1-.008-.2-.013-.293-.013a2.6,2.6,0,0,0-1.857.758c-.048.048-.078.056-.091.056s-.04-.013-.067-.046l.129-.218c.078-.132.159-.266.236-.4l.083-.148a3.372,3.372,0,0,0,.263-.543l.048-.134a6.814,6.814,0,0,0,.357-1.212,1.045,1.045,0,0,0-.175-.86.774.774,0,0,0-.607-.258,1.383,1.383,0,0,0-.505.1.681.681,0,0,1-.242.04.93.93,0,0,1-.247-.035,2.214,2.214,0,0,1-.427-.2l-.193-.1a.053.053,0,0,0-.03-.005h-.564a.074.074,0,0,0-.032.005c-.064.032-.126.064-.191.1a2.462,2.462,0,0,1-.454.207.863.863,0,0,1-.242.032,1.018,1.018,0,0,1-.271-.038,2.31,2.31,0,0,1-.43-.2c-.062-.035-.126-.067-.188-.1a.058.058,0,0,0-.03-.005h-.564a.049.049,0,0,0-.027.005l-.132.056a1.608,1.608,0,0,0-.312.156.721.721,0,0,1-.43.15.958.958,0,0,1-.408-.1.889.889,0,0,0-.395-.1.721.721,0,0,0-.69.6,1.58,1.58,0,0,0-.04.685,4.149,4.149,0,0,0,.309,1.008c.2.411.419.819.637,1.212.083.156.169.312.253.467A1.4,1.4,0,0,0,28,53.653a.239.239,0,0,1-.11.261,20.386,20.386,0,0,0-3.162,3.028A13.1,13.1,0,0,0,23.71,58.36a12.571,12.571,0,0,0-.61,1.155c-.07.134-.134.269-.2.411a8.408,8.408,0,0,0-.22,6.8c-.064-.027-.132-.051-.2-.075-.159-.064-.322-.126-.492-.177-.059-.019-.118-.035-.18-.051a1.613,1.613,0,0,0-1.891.97,1.678,1.678,0,0,0,.586,2.053l1.486.943a.181.181,0,0,0,.03.019q2.773,1.761,5.553,3.517a4.664,4.664,0,0,0,2.534.725h.016c.846,0,1.69-.005,2.536-.005,1.034,0,2.071,0,3.106.005a4.711,4.711,0,0,0,1.693-.309l3.536-1.314a1.45,1.45,0,0,1,.153-.048,1.41,1.41,0,0,0,.43.9,1.463,1.463,0,0,0,.973.277c.121,0,.733,0,1.249,0V74.7a1.3,1.3,0,0,0,1.4,1.381l8.138,0q4.006,0,8.012.011h.005a1.391,1.391,0,0,0,1.416-1.427C62.751,67.624,62.757,60.464,62.762,53.538ZM28.117,49.921a3.006,3.006,0,0,1-.078-.457c.051-.016.067-.032.083-.027a1.488,1.488,0,0,0,1.518-.15.536.536,0,0,1,.645.016A1.435,1.435,0,0,0,32,49.3a.538.538,0,0,1,.626-.03,1.421,1.421,0,0,0,1.566.129l.075.059a4.05,4.05,0,0,1-.212.817c-.306.631-.658,1.247-1,1.857a.353.353,0,0,1-.223.129,6.956,6.956,0,0,1-3.452-.059.275.275,0,0,1-.134-.091A8.1,8.1,0,0,1,28.117,49.921Zm5.228,4.116-.056.019c-.035.011-.073.021-.11.03a9.133,9.133,0,0,1-1.37.212.052.052,0,0,1-.019,0c-.185.013-.373.021-.559.019-.164,0-.33-.011-.494-.027a.142.142,0,0,1-.035,0c-.481-.046-.959-.145-1.432-.231a.484.484,0,0,1-.422-.594.458.458,0,0,1,.588-.457,7.509,7.509,0,0,0,2.174.21c.505-.043,1.008-.134,1.507-.21.328-.048.527.07.591.36A.519.519,0,0,1,33.345,54.037Zm-9.871,6.9A11.738,11.738,0,0,1,25.785,57.1a.048.048,0,0,0,.019-.013,22.462,22.462,0,0,1,1.886-1.83.071.071,0,0,0,.013-.016c.239-.193.438-.357.615-.516a.25.25,0,0,1,.167-.083.335.335,0,0,1,.169.062,2.1,2.1,0,0,0,.564.22,7.672,7.672,0,0,0,1.929.223c.325,0,.669-.013,1.085-.046a4.644,4.644,0,0,0,1.69-.371.288.288,0,0,1,.156.07l.435.371c.43.368.873.75,1.279,1.15a12.023,12.023,0,0,1,3.133,4.944,7.309,7.309,0,0,1,.339,3.066.26.26,0,0,1-.078.15,9.666,9.666,0,0,0-2.246.986c-.153.089-.309.175-.47.258a4,4,0,0,1-1.263.451c-1.427.207-2.888.363-4.3.519a2.488,2.488,0,0,0-2.171,1.98,4.5,4.5,0,0,0-.051.51c-.005.064-.008.126-.016.193l-.019-.008c-.373-.164-.744-.333-1.118-.5-.881-.4-1.8-.817-2.716-1.169A2.179,2.179,0,0,1,23.5,66.348,7.413,7.413,0,0,1,23.474,60.94ZM40.991,72.13c-1.357.492-2.7,1.01-4.068,1.486a3.739,3.739,0,0,1-1.171.188c-1.875.019-3.748.011-5.621.008a3.857,3.857,0,0,1-2.1-.6q-2.221-1.4-4.438-2.81l-1.6-1.016L21,68.766A.838.838,0,0,1,20.7,67.71a.765.765,0,0,1,.938-.457,3.368,3.368,0,0,1,.352.116c.116.043.228.091.339.14,2.16.948,4.32,1.9,6.486,2.845a1.24,1.24,0,0,0,.14.051,1.6,1.6,0,0,0,.449.073c1.308.011,2.62.005,3.931,0a.93.93,0,0,0,.322-.048.334.334,0,0,0,.054-.027.3.3,0,0,0,.15-.363.729.729,0,0,0-.285-.314.636.636,0,0,0-.3-.024c-1.134,0-2.265,0-3.4,0h-.293a1.7,1.7,0,0,1,1.553-2.187c1.408-.15,2.824-.29,4.224-.519a7.377,7.377,0,0,0,1.685-.623c.723-.317,1.411-.712,2.139-1.01a4.255,4.255,0,0,1,1.314-.285q.355-.024.725-.016c0,.282-.005.564,0,.841a.008.008,0,0,0,0,.011c0,.051,0,.1,0,.153,0,1.225-.005,4.487,0,5.712A.3.3,0,0,1,40.991,72.13Zm1.47,1.11c-.325,0-.4-.081-.4-.408V66.122a.37.37,0,0,0-.005-.086c.005-.019.005-.038,0-.038,0-.03,0-.054,0-.081V64.207c0-.357.075-.438.43-.438l1.3,0c0,3.547,0,7.421,0,9.473ZM58.56,50.8c0-.185.005-.368.005-.559l3.079,2.9-.922,0c-.258,0-.508,0-.768-.005a4.509,4.509,0,0,1-.787-.054.665.665,0,0,1-.588-.61C58.549,51.923,58.555,51.375,58.56,50.8Zm3.221,23.764c0,.467-.081.553-.543.553H45.3l-.1,0-.051,0a.342.342,0,0,1-.373-.376c0-.156,0-5.559,0-10.322V50.6c0-.438.081-.521.513-.521h12.26v.572c0,.524,0,1.034,0,1.542A1.84,1.84,0,0,0,59.46,54.11c.3.005.6.005.911.005h1.188c.051,0,.1,0,.159.005a.519.519,0,0,0,.064,0ZM28.95,70.405a1.6,1.6,0,0,0,.449.073c1.308.011,2.62.005,3.931,0a.93.93,0,0,0,.322-.048.334.334,0,0,0,.054-.027Z" transform="translate(-19.777 -48.355)" fill="#0c38ed" stroke="#0c38ed" stroke-width="0.2"/>
    <g id="Group_210" data-name="Group 210" transform="translate(27.093 6.965)">
      <path id="Path_184" data-name="Path 184" d="M126.073,80.932c-.207.31-.18.586.072.759a.483.483,0,0,0,.274.092.572.572,0,0,0,.462-.3q2.125-3.177,4.246-6.358a1.464,1.464,0,0,0,.113-.221c.02-.045.042-.094.07-.151a.067.067,0,0,0-.012-.075c-.031-.034-.061-.073-.091-.111a.756.756,0,0,0-.26-.245.456.456,0,0,0-.19-.044.548.548,0,0,0-.441.294q-1.385,2.08-2.773,4.158Z" transform="translate(-124.506 -74.278)" fill="#ff9401" stroke="#ff9401" stroke-width="0.2"/>
      <path id="Path_185" data-name="Path 185" d="M140.847,88.675a1.6,1.6,0,0,0-1.58,1.652,1.667,1.667,0,0,0,.476,1.2,1.579,1.579,0,0,0,2.233-.005,1.661,1.661,0,0,0,.481-1.2A1.629,1.629,0,0,0,140.847,88.675Zm.419,2.166a.561.561,0,0,1-.408.164.619.619,0,0,1-.6-.674v-.005a.6.6,0,0,1,.6-.653V89.6l.013.067a.6.6,0,0,1,.588.658A.7.7,0,0,1,141.266,90.841Z" transform="translate(-134.256 -84.807)" fill="#ff9401" stroke="#ff9401" stroke-width="0.2"/>
      <path id="Path_186" data-name="Path 186" d="M122.2,75.485a1.575,1.575,0,0,0-1.58,1.634,1.68,1.68,0,0,0,.449,1.185,1.543,1.543,0,0,0,1.134.476h0a1.648,1.648,0,0,0-.005-3.294Zm.422,2.144a.577.577,0,0,1-.416.175.586.586,0,0,1-.416-.175.711.711,0,0,1-.193-.505.616.616,0,0,1,.6-.656l.008-.067v.067a.618.618,0,0,1,.615.658A.684.684,0,0,1,122.619,77.629Z" transform="translate(-120.617 -75.161)" fill="#ff9401" stroke="#ff9401" stroke-width="0.2"/>
    </g>
    <path id="Path_187" data-name="Path 187" d="M132.211,126.838a.452.452,0,0,1-.337.483,1.131,1.131,0,0,1-.329.038c-.686,0-2.592,0-4.252,0h-6.063a.866.866,0,0,1-.184-.016.473.473,0,0,1-.41-.489.461.461,0,0,1,.424-.472,1.887,1.887,0,0,1,.3-.016H131.5a1.731,1.731,0,0,1,.327.024A.446.446,0,0,1,132.211,126.838Z" transform="translate(-93.537 -105.408)" fill="#0c38ed" stroke="#0c38ed" stroke-width="0.2"/>
    <path id="Path_188" data-name="Path 188" d="M128.762,118.5a.5.5,0,0,1-.319.289,1.192,1.192,0,0,1-.392.057c-.075,0-.151-.006-.224-.008s-.143-.008-.213-.008l-5.729,0q-.4,0-.794-.008a.485.485,0,0,1-.478-.489.5.5,0,0,1,.459-.48.589.589,0,0,1,.1-.005h.095l2.5,0,1.015,0,1.479,0h.122c.375,0,.75,0,1.126-.005.084,0,.167-.005.251-.011s.184-.011.275-.011h.046a.858.858,0,0,1,.51.154A.474.474,0,0,1,128.762,118.5Z" transform="translate(-93.523 -99.161)" fill="#0c38ed" stroke="#0c38ed" stroke-width="0.2"/>
    <path id="Path_189" data-name="Path 189" d="M130.3,109.928a.5.5,0,0,1-.47.5c-.03,0-.059.005-.089.005l-.1,0-8.466,0c-.035,0-.073,0-.108-.005a.514.514,0,0,1-.459-.516.489.489,0,0,1,.475-.456c.043,0,.084,0,.127,0l8.126,0c.159,0,.319,0,.478.005A.471.471,0,0,1,130.3,109.928Z" transform="translate(-93.521 -93.034)" fill="#0c38ed" stroke="#0c38ed" stroke-width="0.2"/>
    <path id="Path_190" data-name="Path 190" d="M124.473,135.349a.461.461,0,0,1-.146.365.6.6,0,0,1-.4.129c-.184,0-.365,0-.548,0H121.74c-.181,0-.362,0-.543,0a.623.623,0,0,1-.459-.165.448.448,0,0,1-.124-.329c.005-.291.229-.478.572-.478l1.363,0,1.364,0C124.267,134.872,124.47,135.047,124.473,135.349Z" transform="translate(-93.522 -111.625)" fill="#0c38ed" stroke="#0c38ed" stroke-width="0.2"/>
    <g id="Group_182" data-name="Group 182" transform="translate(9.348 9.776)">
      <path id="Path_191" data-name="Path 191" d="M58.549,85.244H57.143a1.505,1.505,0,0,1,.562,1.024h.844a.251.251,0,0,1,.251.251h0a.251.251,0,0,1-.251.251h-.834c-.1,1.025-.914,1.677-2.2,1.718.629.652,1.3,1.441,1.98,2.261a.373.373,0,0,1-.288.611h0a.374.374,0,0,1-.287-.135c-.742-.893-1.45-1.731-2.349-2.687v-.623h.552c1.085,0,1.668-.452,1.738-1.145h-2.29v-.5h2.26c-.141-.582-.673-.874-1.547-.874h-.713v-.653h3.977a.251.251,0,0,1,.251.251h0A.251.251,0,0,1,58.549,85.244Z" transform="translate(-54.572 -84.742)" fill="#0c38ed" stroke="#0c38ed" stroke-width="0.2"/>
    </g>
  </g>
</svg>
