<svg xmlns="http://www.w3.org/2000/svg" width="43.243" height="27.944" viewBox="0 0 43.243 27.944">
  <g id="Group_183" data-name="Group 183" transform="translate(-19.629 -48.254)">
    <path id="Path_177" data-name="Path 177" d="M46.509,64.253v.831a4.256,4.256,0,0,0-1.314.285c-.728.3-1.416.693-2.139,1.011A7.378,7.378,0,0,1,41.371,67c-1.4.228-2.816.368-4.224.522a1.7,1.7,0,0,0-1.552,2.181h3.692a.636.636,0,0,1,.3.024.73.73,0,0,1,.285.314.3.3,0,0,1-.149.363H34.963a1.237,1.237,0,0,1-.139-.051q-3.249-1.415-6.484-2.845c-.11-.048-.224-.1-.338-.139v-.894c.169.051.333.113.492.177.067.024.134.048.2.075a8.409,8.409,0,0,1,.224-6.8c.07-.142.134-.276.2-.411a12.574,12.574,0,0,1,.61-1.155,13.1,13.1,0,0,1,1.018-1.416,20.389,20.389,0,0,1,3.163-3.028.239.239,0,0,0,.11-.261,1.4,1.4,0,0,1,.43-1.163c-.083-.156-.169-.312-.253-.467-.218-.392-.44-.8-.636-1.212a4.149,4.149,0,0,1-.309-1.008,1.58,1.58,0,0,1,.04-.685.721.721,0,0,1,.691-.6.889.889,0,0,1,.4.1.958.958,0,0,0,.408.105.721.721,0,0,0,.43-.149,1.608,1.608,0,0,1,.312-.156l.132-.057a.048.048,0,0,1,.027-.005h.564a.058.058,0,0,1,.03.005c.062.032.126.065.188.1a2.311,2.311,0,0,0,.43.2,1.018,1.018,0,0,0,.271.037.863.863,0,0,0,.241-.032,2.46,2.46,0,0,0,.454-.207c.065-.035.126-.067.191-.1a.075.075,0,0,1,.032-.005h.564a.053.053,0,0,1,.03.005l.194.105a2.215,2.215,0,0,0,.427.2.931.931,0,0,0,.247.035.681.681,0,0,0,.241-.04,1.383,1.383,0,0,1,.505-.105.774.774,0,0,1,.607.258,1.043,1.043,0,0,1,.174.86,6.816,6.816,0,0,1-.358,1.212l-.048.134a3.373,3.373,0,0,1-.263.543l-.083.149c-.075.134-.159.269-.236.4l-.129.218c.027.032.048.045.067.045s.043-.008.092-.057a2.6,2.6,0,0,1,1.856-.758c.1,0,.2.005.293.013s.215.016.323.016a2.775,2.775,0,0,0,1.537-.44.522.522,0,0,1,.282-.089.423.423,0,0,1,.365.218.438.438,0,0,1-.172.636,3.531,3.531,0,0,1-1.913.589,3.786,3.786,0,0,1-.39-.022,2.334,2.334,0,0,0-.271-.016,1.8,1.8,0,0,0-1.411.642c-.005,0-.008.008-.013.013.089.01.174.022.261.03.279.032.54.062.809.113a3.7,3.7,0,0,1,2.477,1.467.919.919,0,0,1,.164.347.424.424,0,0,1-.293.473.5.5,0,0,1-.172.035.447.447,0,0,1-.373-.224,3.155,3.155,0,0,0-2.778-1.26q.271.224.537.447a14.985,14.985,0,0,1,4.017,5.025,9.369,9.369,0,0,1,.969,4.472v.229Z" transform="translate(-6.013 -0.002)" fill="#50a8ff" stroke="#0c38ed" stroke-width="0.2"/>
    <path id="Path_178" data-name="Path 178" d="M109.587,78.06v-.116C109.587,77.981,109.588,78.02,109.587,78.06Zm0,0v1.793C109.585,79.253,109.585,78.656,109.587,78.06Z" transform="translate(-65.683 -21.639)" fill="#0c38ed" stroke="#0c38ed" stroke-width="0.2"/>
    <path id="Path_179" data-name="Path 179" d="M128.418,55.874a1.431,1.431,0,0,0-.479-1.118c-.928-.865-1.842-1.747-2.778-2.608a9.866,9.866,0,0,0-.894-.657H110.5a1.457,1.457,0,0,0-.961,1.582c.022,1.825.016,3.651.013,5.473V77.07a1.23,1.23,0,0,0,1.333,1.317c5.394,0,10.787-.008,16.181.008a1.326,1.326,0,0,0,1.358-1.363Q128.4,66.458,128.418,55.874Zm-4.206-3.462c1.109,1.043,2.186,2.061,3.325,3.129-.677,0-1.267.005-1.859,0a4.732,4.732,0,0,1-.809-.054.731.731,0,0,1-.644-.671c-.037-.786-.013-1.569-.013-2.405Zm3.36,24.519c0,.508-.111.622-.611.622H110.831a.407.407,0,0,1-.438-.447c-.005-.229,0-11.565,0-16.4V52.926c0-.476.114-.589.582-.589h12.351c0,.752-.006,1.469,0,2.185a1.782,1.782,0,0,0,1.85,1.858c.7.011,1.4,0,2.1.006.092,0,.184.008.292.01Z" transform="translate(-65.652 -2.296)" fill="#0c38ed" stroke="#0c38ed" stroke-width="0.2"/>
    <g id="Group_181" data-name="Group 181" transform="translate(46.979 55.429)">
      <path id="Path_180" data-name="Path 180" d="M131.637,75.069a3.5,3.5,0,0,1-.179.364q-2.124,3.187-4.254,6.371c-.185.277-.422.341-.642.189s-.241-.388-.054-.671q2.126-3.186,4.248-6.372c.138-.207.318-.332.548-.224C131.443,74.787,131.532,74.952,131.637,75.069Z" transform="translate(-124.948 -74.688)" fill="#0c38ed" stroke="#0c38ed" stroke-width="0.2"/>
      <path id="Path_181" data-name="Path 181" d="M142.8,90.7a1.553,1.553,0,0,1-1.535,1.595,1.593,1.593,0,0,1-.013-3.182A1.556,1.556,0,0,1,142.8,90.7Zm-2.209,0a.671.671,0,1,0,.673-.669A.676.676,0,0,0,140.586,90.7Z" transform="translate(-134.711 -85.238)" fill="#0c38ed" stroke="#0c38ed" stroke-width="0.2"/>
      <path id="Path_182" data-name="Path 182" d="M124.091,77.476a1.511,1.511,0,1,1-.421-1.122,1.523,1.523,0,0,1,.421,1.122Zm-.839-.006a.686.686,0,1,0-.32.65A.683.683,0,0,0,123.252,77.47Z" transform="translate(-121.046 -75.569)" fill="#0c38ed" stroke="#0c38ed" stroke-width="0.2"/>
    </g>
    <path id="Path_183" data-name="Path 183" d="M28.947,70.4a1.6,1.6,0,0,0,.447.074c1.308.01,2.619.005,3.93,0a.93.93,0,0,0,.323-.048A.334.334,0,0,0,33.7,70.4Zm0,0a1.6,1.6,0,0,0,.447.074c1.308.01,2.619.005,3.93,0a.93.93,0,0,0,.323-.048A.334.334,0,0,0,33.7,70.4ZM62.756,53.537a1.49,1.49,0,0,0-.5-1.163q-.544-.507-1.086-1.024c-.562-.529-1.118-1.056-1.687-1.574a4.7,4.7,0,0,0-.6-.457c-.1-.067-.2-.134-.293-.207a.075.075,0,0,0-.04-.013L44.78,49.1a1.514,1.514,0,0,0-1,1.639c.019,1.665.016,3.358.013,4.992v.522q0,.951,0,1.907v4.694c-.634,0-1.314,0-1.475.005a1.152,1.152,0,0,0-1.118.889c-.024.113-.037.224-.051.338-.005.032-.008.067-.013.1l-.639.054-.288.024v-.229a9.367,9.367,0,0,0-.969-4.471,14.982,14.982,0,0,0-4.016-5.023c-.177-.149-.358-.3-.537-.447a3.154,3.154,0,0,1,2.778,1.26.447.447,0,0,0,.373.224.5.5,0,0,0,.172-.035.424.424,0,0,0,.293-.473.919.919,0,0,0-.164-.346,3.7,3.7,0,0,0-2.477-1.467c-.269-.051-.529-.08-.808-.113-.086-.008-.172-.019-.261-.03A.076.076,0,0,1,34.6,53.1a1.8,1.8,0,0,1,1.41-.642,2.332,2.332,0,0,1,.271.016,3.786,3.786,0,0,0,.39.022,3.53,3.53,0,0,0,1.913-.589.438.438,0,0,0,.172-.636.422.422,0,0,0-.365-.218.522.522,0,0,0-.282.089,2.774,2.774,0,0,1-1.536.44,3.2,3.2,0,0,1-.323-.016c-.1-.008-.2-.013-.293-.013a2.6,2.6,0,0,0-1.863.764c-.048.048-.075.057-.092.057s-.04-.013-.067-.045l.129-.218c.075-.132.159-.266.236-.4l.083-.149a3.371,3.371,0,0,0,.263-.542l.048-.134a6.813,6.813,0,0,0,.358-1.212,1.043,1.043,0,0,0-.174-.86.774.774,0,0,0-.607-.258,1.382,1.382,0,0,0-.505.105.681.681,0,0,1-.241.04.93.93,0,0,1-.247-.035,2.215,2.215,0,0,1-.427-.2l-.194-.105a.053.053,0,0,0-.03-.005h-.564a.075.075,0,0,0-.032.005c-.065.032-.126.065-.191.1a2.458,2.458,0,0,1-.454.207.863.863,0,0,1-.241.032,1.018,1.018,0,0,1-.271-.037,2.31,2.31,0,0,1-.43-.2c-.062-.035-.126-.067-.188-.1a.058.058,0,0,0-.03-.005h-.564a.048.048,0,0,0-.027.005l-.132.057a1.609,1.609,0,0,0-.311.156.721.721,0,0,1-.43.149.958.958,0,0,1-.408-.105.889.889,0,0,0-.395-.1.721.721,0,0,0-.691.6,1.58,1.58,0,0,0-.04.685,4.149,4.149,0,0,0,.309,1.009c.2.411.419.82.637,1.212.083.156.169.311.253.467A1.4,1.4,0,0,0,28,53.652a.238.238,0,0,1-.11.261,20.384,20.384,0,0,0-3.162,3.027,13.1,13.1,0,0,0-1.018,1.416A12.57,12.57,0,0,0,23.1,59.51c-.07.134-.134.269-.2.411a8.407,8.407,0,0,0-.224,6.8c-.065-.027-.132-.051-.2-.075-.159-.065-.323-.126-.492-.177-.059-.019-.118-.035-.18-.051a1.613,1.613,0,0,0-1.891.969,1.678,1.678,0,0,0,.586,2.053l1.486.943a.181.181,0,0,0,.03.019q2.772,1.761,5.553,3.517a4.663,4.663,0,0,0,2.533.725h.016c.846,0,1.69-.005,2.533-.005,1.034,0,2.071,0,3.106.005a4.71,4.71,0,0,0,1.692-.309l3.535-1.314a1.45,1.45,0,0,1,.153-.048,1.41,1.41,0,0,0,.43.894,1.463,1.463,0,0,0,.972.276h1.25V74.7a1.3,1.3,0,0,0,1.4,1.381h8.137q4.006,0,8.011.01h.005a1.391,1.391,0,0,0,1.416-1.427C62.745,67.622,62.75,60.459,62.756,53.537ZM28.114,49.921a3.006,3.006,0,0,1-.075-.457c.051-.016.067-.032.083-.027a1.49,1.49,0,0,0,1.518-.149.536.536,0,0,1,.645.016A1.434,1.434,0,0,0,32,49.3a.538.538,0,0,1,.626-.03,1.421,1.421,0,0,0,1.565.129l.075.059a4.05,4.05,0,0,1-.212.82c-.306.631-.658,1.247-1,1.856a.353.353,0,0,1-.224.129,6.955,6.955,0,0,1-3.452-.059.274.274,0,0,1-.134-.092,8.1,8.1,0,0,1-1.126-2.2Zm5.228,4.116c-.019.005-.037.013-.057.019-.035.01-.075.022-.11.03a9.132,9.132,0,0,1-1.37.212.052.052,0,0,1-.019,0c-.186.013-.373.022-.559.019-.164,0-.33-.01-.494-.027a.142.142,0,0,1-.035,0c-.481-.045-.959-.145-1.432-.231a.484.484,0,0,1-.422-.6.457.457,0,0,1,.589-.457,7.508,7.508,0,0,0,2.173.209c.505-.043,1.007-.134,1.507-.209.328-.048.527.07.591.36a.522.522,0,0,1-.362.671Zm-9.87,6.9a11.737,11.737,0,0,1,2.31-3.839.049.049,0,0,0,.019-.013,22.463,22.463,0,0,1,1.89-1.829.074.074,0,0,0,.013-.016c.239-.194.438-.358.615-.516a.25.25,0,0,1,.167-.083.335.335,0,0,1,.169.062,2.1,2.1,0,0,0,.564.224,7.675,7.675,0,0,0,1.929.224c.325,0,.671-.013,1.086-.045a4.643,4.643,0,0,0,1.69-.373.288.288,0,0,1,.156.07l.435.373c.43.368.873.75,1.279,1.15a12.021,12.021,0,0,1,3.129,4.943,7.308,7.308,0,0,1,.338,3.065.259.259,0,0,1-.075.149,9.665,9.665,0,0,0-2.246.986c-.153.089-.309.174-.47.258a4,4,0,0,1-1.263.452c-1.427.207-2.888.363-4.3.522a2.488,2.488,0,0,0-2.176,1.974,4.5,4.5,0,0,0-.051.51c-.005.065-.008.126-.016.194l-.019-.008c-.373-.164-.745-.333-1.118-.5-.881-.4-1.8-.82-2.716-1.168A2.179,2.179,0,0,1,23.5,66.346a7.411,7.411,0,0,1-.023-5.408ZM40.988,72.127c-1.357.492-2.7,1.01-4.067,1.486a3.739,3.739,0,0,1-1.171.188c-1.875.019-3.748.01-5.62.008a3.857,3.857,0,0,1-2.1-.6q-2.22-1.4-4.438-2.81l-1.6-1.016c-.328-.207-.656-.417-.984-.623a.837.837,0,0,1-.306-1.056.764.764,0,0,1,.937-.457,3.364,3.364,0,0,1,.352.116c.115.043.228.092.338.139,2.161.949,4.322,1.9,6.482,2.845a1.237,1.237,0,0,0,.139.051,1.6,1.6,0,0,0,.447.075c1.308.01,2.619.005,3.93,0a.93.93,0,0,0,.323-.048A.335.335,0,0,0,33.7,70.4a.3.3,0,0,0,.149-.363.729.729,0,0,0-.285-.314.636.636,0,0,0-.3-.024H29.572a1.7,1.7,0,0,1,1.553-2.187c1.407-.149,2.823-.29,4.223-.522a7.376,7.376,0,0,0,1.685-.623c.723-.317,1.41-.712,2.138-1.01a4.255,4.255,0,0,1,1.314-.285q.355-.024.725-.016c0,.282-.005.564,0,.841a.008.008,0,0,0,0,.01v.153c0,1.225-.005,4.486,0,5.711A.3.3,0,0,1,40.988,72.127Zm1.469,1.109c-.325,0-.4-.08-.4-.408V66.122a.372.372,0,0,0-.005-.086c.005-.019.005-.037,0-.037V64.205c0-.358.075-.438.43-.438h1.3v9.472ZM58.551,50.8c0-.186.005-.368.005-.559l3.079,2.906h-.922c-.258,0-.507,0-.768-.005a4.508,4.508,0,0,1-.787-.054.665.665,0,0,1-.589-.609c-.026-.553-.021-1.1-.016-1.679Zm3.221,23.762c0,.467-.08.554-.542.554H45.141a.341.341,0,0,1-.373-.373V50.6c0-.438.08-.522.513-.522H57.538v2.115a1.84,1.84,0,0,0,1.913,1.921c.3.005.6.005.911.005h1.188c.051,0,.1,0,.159.005a.519.519,0,0,0,.065,0ZM28.947,70.4a1.6,1.6,0,0,0,.447.074c1.308.01,2.619.005,3.93,0a.93.93,0,0,0,.323-.048A.334.334,0,0,0,33.7,70.4Z" transform="translate(0 0)" fill="#0c38ed" stroke="#0c38ed" stroke-width="0.2"/>
    <path id="Path_184" data-name="Path 184" d="M126.073,80.933c-.206.309-.18.587.075.759a.483.483,0,0,0,.274.092.572.572,0,0,0,.462-.3q2.125-3.178,4.248-6.359a1.463,1.463,0,0,0,.113-.224c.02-.045.043-.095.07-.149a.067.067,0,0,0-.012-.075c-.031-.034-.061-.075-.092-.111a.757.757,0,0,0-.26-.245.456.456,0,0,0-.19-.044.548.548,0,0,0-.441.3q-1.385,2.081-2.774,4.159Z" transform="translate(-77.642 -18.96)" fill="#0c38ed" stroke="#0c38ed" stroke-width="0.2"/>
    <path id="Path_185" data-name="Path 185" d="M140.847,88.675a1.6,1.6,0,0,0-1.58,1.652,1.667,1.667,0,0,0,.475,1.2,1.58,1.58,0,0,0,2.236-.005,1.661,1.661,0,0,0,.481-1.192,1.629,1.629,0,0,0-1.612-1.656Zm.419,2.166a.561.561,0,0,1-.408.164.619.619,0,0,1-.6-.671v-.005a.6.6,0,0,1,.6-.653v-.067l.013.067a.6.6,0,0,1,.589.658A.7.7,0,0,1,141.266,90.841Z" transform="translate(-87.392 -29.489)" fill="#0c38ed" stroke="#0c38ed" stroke-width="0.2"/>
    <path id="Path_186" data-name="Path 186" d="M122.2,75.485a1.576,1.576,0,0,0-1.58,1.634,1.68,1.68,0,0,0,.447,1.185,1.543,1.543,0,0,0,1.134.475h0a1.649,1.649,0,0,0-.005-3.294Zm.422,2.144a.577.577,0,0,1-.417.174.586.586,0,0,1-.417-.174.711.711,0,0,1-.194-.505.616.616,0,0,1,.6-.656l.008-.067v.067a.618.618,0,0,1,.616.658.685.685,0,0,1-.2.5Z" transform="translate(-73.751 -19.842)" fill="#0c38ed" stroke="#0c38ed" stroke-width="0.2"/>
    <path id="Path_187" data-name="Path 187" d="M132.212,126.838a.452.452,0,0,1-.338.483,1.13,1.13,0,0,1-.329.038H121.228a.867.867,0,0,1-.184-.016.473.473,0,0,1-.411-.489.461.461,0,0,1,.424-.473,1.887,1.887,0,0,1,.3-.016H131.5a1.731,1.731,0,0,1,.326.025.447.447,0,0,1,.384.449Z" transform="translate(-73.767 -57.054)" fill="#0c38ed" stroke="#0c38ed" stroke-width="0.2"/>
    <path id="Path_188" data-name="Path 188" d="M128.764,118.492a.5.5,0,0,1-.319.289,1.192,1.192,0,0,1-.391.057c-.075,0-.149-.006-.224-.008s-.143-.008-.213-.008h-5.73q-.4,0-.794-.008a.484.484,0,0,1-.478-.489.5.5,0,0,1,.459-.481.59.59,0,0,1,.1-.005h5.208c.373,0,.75,0,1.126-.005.083,0,.168-.005.251-.01s.183-.011.276-.011h.046a.858.858,0,0,1,.511.154A.473.473,0,0,1,128.764,118.492Z" transform="translate(-73.752 -50.805)" fill="#0c38ed" stroke="#0c38ed" stroke-width="0.2"/>
    <path id="Path_189" data-name="Path 189" d="M130.306,109.931a.5.5,0,0,1-.47.5c-.03,0-.06.005-.089.005H121.18a.739.739,0,0,1-.108-.005.514.514,0,0,1-.459-.516.49.49,0,0,1,.475-.456h8.25c.159,0,.319,0,.478.005a.471.471,0,0,1,.49.47Z" transform="translate(-73.752 -44.683)" fill="#0c38ed" stroke="#0c38ed" stroke-width="0.2"/>
    <path id="Path_190" data-name="Path 190" d="M124.471,135.351a.461.461,0,0,1-.149.364.6.6,0,0,1-.4.13h-2.731a.624.624,0,0,1-.459-.165.447.447,0,0,1-.124-.329c.005-.291.23-.478.572-.478H123.9C124.265,134.873,124.468,135.048,124.471,135.351Z" transform="translate(-73.748 -63.275)" fill="#0c38ed" stroke="#0c38ed" stroke-width="0.2"/>
    <g id="Group_182" data-name="Group 182" transform="translate(29.119 58.128)">
      <path id="Path_191" data-name="Path 191" d="M58.549,85.244H57.143a1.506,1.506,0,0,1,.563,1.025h.844a.251.251,0,0,1,.251.251h0a.251.251,0,0,1-.251.251h-.834c-.1,1.025-.914,1.678-2.2,1.718.629.652,1.3,1.441,1.98,2.261a.373.373,0,0,1-.288.611h0a.373.373,0,0,1-.287-.135c-.745-.894-1.45-1.731-2.349-2.687v-.624h.552c1.085,0,1.668-.452,1.738-1.146H54.571v-.5h2.257c-.141-.583-.671-.874-1.547-.874h-.713V84.74h3.982a.251.251,0,0,1,.251.251h0a.251.251,0,0,1-.251.253Z" transform="translate(-54.567 -84.74)" fill="#0c38ed" stroke="#0c38ed" stroke-width="0.2"/>
    </g>
  </g>
</svg>
