<svg xmlns="http://www.w3.org/2000/svg" width="57.974" height="37.441" viewBox="0 0 57.974 37.441">
  <g id="Group_211" data-name="Group 211" transform="translate(-654.828 -3234.9)">
    <path id="Path_177" data-name="Path 177" d="M52.835,69.685V70.8a5.711,5.711,0,0,0-1.763.382c-.977.4-1.9.93-2.87,1.356a9.9,9.9,0,0,1-2.261.836c-1.878.306-3.779.494-5.668.7A2.279,2.279,0,0,0,38.19,77h.393c1.522,0,3.039,0,4.561,0a.853.853,0,0,1,.4.032.979.979,0,0,1,.382.422.4.4,0,0,1-.2.487H37.342a1.66,1.66,0,0,1-.187-.068c-2.906-1.266-5.8-2.545-8.7-3.818-.148-.065-.3-.13-.454-.187v-1.2c.227.068.447.151.66.238.09.032.18.065.267.1a11.283,11.283,0,0,1,.3-9.122c.094-.191.18-.371.274-.552a16.871,16.871,0,0,1,.818-1.55,17.58,17.58,0,0,1,1.366-1.9,27.357,27.357,0,0,1,4.244-4.063.32.32,0,0,0,.148-.35,1.882,1.882,0,0,1,.577-1.561c-.112-.209-.227-.418-.339-.627-.292-.526-.591-1.074-.854-1.626a5.567,5.567,0,0,1-.415-1.352,2.12,2.12,0,0,1,.054-.919.967.967,0,0,1,.927-.8,1.193,1.193,0,0,1,.53.13,1.286,1.286,0,0,0,.548.141.968.968,0,0,0,.577-.2,2.158,2.158,0,0,1,.418-.209l.177-.076a.065.065,0,0,1,.036-.007h.757a.078.078,0,0,1,.04.007c.083.043.169.087.252.133a3.1,3.1,0,0,0,.577.27,1.366,1.366,0,0,0,.364.05,1.158,1.158,0,0,0,.324-.043,3.3,3.3,0,0,0,.609-.278c.087-.047.169-.09.256-.133a.1.1,0,0,1,.043-.007h.757a.071.071,0,0,1,.04.007l.26.141a2.972,2.972,0,0,0,.573.274,1.249,1.249,0,0,0,.332.047.914.914,0,0,0,.324-.054,1.855,1.855,0,0,1,.678-.141,1.039,1.039,0,0,1,.815.346,1.4,1.4,0,0,1,.234,1.154,9.145,9.145,0,0,1-.48,1.626l-.065.18a4.525,4.525,0,0,1-.353.728l-.112.2c-.1.18-.213.361-.317.537l-.173.292c.036.043.065.061.09.061s.058-.011.123-.076a3.483,3.483,0,0,1,2.491-1.017c.13,0,.263.007.393.018s.288.022.433.022a3.723,3.723,0,0,0,2.062-.591.7.7,0,0,1,.379-.119.567.567,0,0,1,.49.292.588.588,0,0,1-.231.854,4.738,4.738,0,0,1-2.567.79,5.081,5.081,0,0,1-.523-.029,3.13,3.13,0,0,0-.364-.022,2.412,2.412,0,0,0-1.893.862c-.007,0-.011.011-.018.018.119.014.234.029.35.04.375.043.725.083,1.085.151a4.971,4.971,0,0,1,3.324,1.969,1.233,1.233,0,0,1,.22.465.569.569,0,0,1-.393.635.675.675,0,0,1-.231.047.6.6,0,0,1-.5-.3c-.847-1.269-2.109-1.615-3.728-1.691.242.2.483.4.721.6a20.107,20.107,0,0,1,5.39,6.742,12.571,12.571,0,0,1,1.3,6c0,.083,0,.169,0,.26l0,.047Z" transform="translate(629.967 3186.645)" fill="#ff9401" stroke="#ff9401" stroke-width="0.2"/>
    <path id="Path_178" data-name="Path 178" d="M109.588,78.1c0-.065,0-.12,0-.156C109.588,77.993,109.589,78.046,109.588,78.1Zm0,0c0,.382,0,1.233,0,2.406C109.585,79.7,109.585,78.9,109.588,78.1Z" transform="translate(577.795 3167.726)" fill="#0c38ed" stroke="#0c38ed" stroke-width="0.2"/>
    <path id="Path_179" data-name="Path 179" d="M134.876,57.373a1.921,1.921,0,0,0-.643-1.5c-1.245-1.161-2.472-2.345-3.727-3.5a13.236,13.236,0,0,0-1.2-.882H110.832a1.956,1.956,0,0,0-1.289,2.123c.029,2.45.022,4.9.018,7.346v.065c0,.853,0,1.709,0,2.562v.142c0,6.424,0,21.794,0,22.092a1.651,1.651,0,0,0,1.789,1.767c7.237,0,14.474-.011,21.711.011a1.78,1.78,0,0,0,1.822-1.829Q134.853,71.578,134.876,57.373Zm-5.644-4.646c1.488,1.4,2.933,2.766,4.461,4.2-.908,0-1.7.007-2.494,0a6.347,6.347,0,0,1-1.085-.072.981.981,0,0,1-.864-.9C129.2,54.9,129.233,53.849,129.233,52.727Zm4.508,32.907c0,.682-.149.835-.82.835H111.489c-.069,0-.138,0-.211,0a.546.546,0,0,1-.588-.6c-.007-.308,0-15.522,0-22.016V53.417c0-.639.153-.791.781-.791h16.572c0,1.009-.008,1.971,0,2.933a2.392,2.392,0,0,0,2.482,2.493c.94.015,1.88,0,2.82.008.123,0,.247.011.392.014Z" transform="translate(577.822 3184.636)" fill="#0c38ed" stroke="#0c38ed" stroke-width="0.2"/>
    <g id="Group_181" data-name="Group 181" transform="translate(691.512 3244.494)">
      <path id="Path_180" data-name="Path 180" d="M133.434,75.2a4.7,4.7,0,0,1-.24.489q-2.85,4.276-5.708,8.548c-.248.371-.566.458-.862.254s-.323-.52-.073-.9q2.852-4.275,5.7-8.55c.185-.278.427-.445.735-.3C133.173,74.821,133.292,75.042,133.434,75.2Z" transform="translate(-124.458 -74.687)" fill="#0c38ed" stroke="#0c38ed" stroke-width="0.2"/>
      <path id="Path_181" data-name="Path 181" d="M143.843,91.244a2.084,2.084,0,0,1-2.059,2.14,2.137,2.137,0,0,1-.017-4.27A2.088,2.088,0,0,1,143.843,91.244Zm-2.964,0a.907.907,0,1,0,1.8.005.9.9,0,1,0-1.8-.005Z" transform="translate(-132.996 -83.913)" fill="#0c38ed" stroke="#0c38ed" stroke-width="0.2"/>
      <path id="Path_182" data-name="Path 182" d="M125.132,78.018a2.044,2.044,0,1,1-2.05-2.126A2.027,2.027,0,0,1,125.132,78.018Zm-1.126-.008a.917.917,0,1,0-1.831,0,.92.92,0,1,0,1.831,0Z" transform="translate(-121.046 -75.458)" fill="#0c38ed" stroke="#0c38ed" stroke-width="0.2"/>
    </g>
    <path id="Path_183" data-name="Path 183" d="M32.086,77.945a2.146,2.146,0,0,0,.6.1c1.756.014,3.515.007,5.275,0a1.248,1.248,0,0,0,.433-.065.448.448,0,0,0,.072-.036Zm0,0a2.146,2.146,0,0,0,.6.1c1.756.014,3.515.007,5.275,0a1.248,1.248,0,0,0,.433-.065.448.448,0,0,0,.072-.036ZM77.461,55.31a2,2,0,0,0-.671-1.561q-.73-.681-1.457-1.374c-.754-.71-1.5-1.417-2.264-2.113a6.3,6.3,0,0,0-.811-.613c-.133-.09-.263-.18-.393-.278a.1.1,0,0,0-.054-.018l-18.475.007a2.032,2.032,0,0,0-1.345,2.2c.025,2.235.022,4.507.018,6.7v.7q-.005,1.276,0,2.56v6.3c-.851,0-1.763,0-1.979.007a1.546,1.546,0,0,0-1.5,1.193c-.032.151-.05.3-.069.454-.007.043-.011.09-.018.133l-.858.072-.386.032,0-.047c0-.09,0-.177,0-.26a12.571,12.571,0,0,0-1.3-6,20.107,20.107,0,0,0-5.39-6.742c-.238-.2-.48-.4-.721-.6,1.619.076,2.881.422,3.728,1.691a.6.6,0,0,0,.5.3.675.675,0,0,0,.231-.047.569.569,0,0,0,.393-.635,1.233,1.233,0,0,0-.22-.465,4.971,4.971,0,0,0-3.324-1.969c-.361-.069-.71-.108-1.085-.151-.115-.011-.231-.025-.35-.04.007-.007.011-.014.018-.018a2.412,2.412,0,0,1,1.893-.862,3.13,3.13,0,0,1,.364.022,5.081,5.081,0,0,0,.523.029,4.738,4.738,0,0,0,2.567-.79.588.588,0,0,0,.231-.854.567.567,0,0,0-.49-.292.7.7,0,0,0-.379.119,3.723,3.723,0,0,1-2.062.591q-.216,0-.433-.022c-.13-.011-.263-.018-.393-.018A3.483,3.483,0,0,0,39,53.677c-.065.065-.1.076-.123.076s-.054-.018-.09-.061l.173-.292c.1-.177.213-.357.317-.537l.112-.2a4.525,4.525,0,0,0,.353-.728l.065-.18a9.144,9.144,0,0,0,.48-1.626,1.4,1.4,0,0,0-.234-1.154,1.039,1.039,0,0,0-.815-.346,1.855,1.855,0,0,0-.678.141.914.914,0,0,1-.324.054,1.249,1.249,0,0,1-.332-.047,2.972,2.972,0,0,1-.573-.274l-.26-.141a.071.071,0,0,0-.04-.007h-.757a.1.1,0,0,0-.043.007c-.087.043-.169.087-.256.133a3.3,3.3,0,0,1-.609.278,1.158,1.158,0,0,1-.324.043,1.366,1.366,0,0,1-.364-.05,3.1,3.1,0,0,1-.577-.27c-.083-.047-.169-.09-.252-.133a.078.078,0,0,0-.04-.007h-.757a.065.065,0,0,0-.036.007l-.177.076a2.159,2.159,0,0,0-.418.209.968.968,0,0,1-.577.2,1.286,1.286,0,0,1-.548-.141,1.193,1.193,0,0,0-.53-.13.967.967,0,0,0-.927.8,2.12,2.12,0,0,0-.054.919A5.568,5.568,0,0,0,30.2,51.65c.263.552.562,1.1.855,1.626.112.209.227.418.339.627a1.882,1.882,0,0,0-.577,1.561.32.32,0,0,1-.148.35,27.357,27.357,0,0,0-4.244,4.063,17.579,17.579,0,0,0-1.366,1.9,16.871,16.871,0,0,0-.818,1.55c-.094.18-.18.361-.274.552a11.283,11.283,0,0,0-.3,9.122c-.087-.036-.177-.069-.267-.1-.213-.087-.433-.169-.66-.238-.079-.025-.159-.047-.242-.069a2.165,2.165,0,0,0-2.538,1.3,2.252,2.252,0,0,0,.786,2.755l1.994,1.266a.243.243,0,0,0,.04.025q3.721,2.363,7.453,4.72a6.258,6.258,0,0,0,3.4.973h.022c1.136,0,2.268-.007,3.4-.007,1.388,0,2.78,0,4.168.007a6.322,6.322,0,0,0,2.271-.415l4.745-1.763a1.947,1.947,0,0,1,.206-.065,1.893,1.893,0,0,0,.577,1.2,1.963,1.963,0,0,0,1.305.371c.162,0,.984,0,1.677,0v.746a1.743,1.743,0,0,0,1.878,1.853l10.921,0q5.376,0,10.752.014h.007a1.867,1.867,0,0,0,1.9-1.915C77.447,74.214,77.454,64.6,77.461,55.31ZM30.968,50.457a4.034,4.034,0,0,1-.1-.613c.069-.022.09-.043.112-.036a2,2,0,0,0,2.037-.2.719.719,0,0,1,.865.022,1.925,1.925,0,0,0,2.3,0,.722.722,0,0,1,.84-.04,1.907,1.907,0,0,0,2.1.173l.1.079a5.435,5.435,0,0,1-.285,1.1c-.411.847-.883,1.673-1.345,2.491a.474.474,0,0,1-.3.173,9.335,9.335,0,0,1-4.633-.079.368.368,0,0,1-.18-.123A10.873,10.873,0,0,1,30.968,50.457Zm7.016,5.524c-.025.007-.05.018-.076.025-.047.014-.1.029-.148.04a12.256,12.256,0,0,1-1.839.285.07.07,0,0,1-.025,0c-.249.018-.5.029-.75.025-.22,0-.443-.014-.663-.036a.19.19,0,0,1-.047,0c-.645-.061-1.287-.195-1.922-.31a.649.649,0,0,1-.566-.8.614.614,0,0,1,.79-.613,10.076,10.076,0,0,0,2.917.281c.678-.058,1.352-.18,2.023-.281.44-.065.707.094.793.483A.7.7,0,0,1,37.985,55.981ZM24.738,65.243a15.752,15.752,0,0,1,3.1-5.152.065.065,0,0,0,.025-.018A30.147,30.147,0,0,1,30.4,57.618a.1.1,0,0,0,.018-.022c.321-.26.588-.48.826-.692a.335.335,0,0,1,.224-.112.45.45,0,0,1,.227.083,2.817,2.817,0,0,0,.757.3,10.3,10.3,0,0,0,2.589.3c.436,0,.9-.018,1.457-.061a6.231,6.231,0,0,0,2.268-.5.387.387,0,0,1,.209.094l.584.5c.577.494,1.172,1.006,1.716,1.543a16.134,16.134,0,0,1,4.2,6.634,9.808,9.808,0,0,1,.454,4.114.348.348,0,0,1-.1.2,12.972,12.972,0,0,0-3.014,1.323c-.206.119-.415.234-.631.346a5.367,5.367,0,0,1-1.695.606c-1.915.278-3.876.487-5.769.7A3.339,3.339,0,0,0,31.8,75.623a6.037,6.037,0,0,0-.069.685c-.007.087-.011.169-.022.26a.176.176,0,0,1-.025-.011c-.5-.22-1-.447-1.5-.671-1.183-.541-2.412-1.1-3.645-1.568a2.924,2.924,0,0,1-1.77-1.817A9.947,9.947,0,0,1,24.738,65.243ZM48.246,80.26c-1.821.66-3.627,1.356-5.459,1.994a5.018,5.018,0,0,1-1.572.252c-2.517.025-5.03.014-7.543.011a5.177,5.177,0,0,1-2.823-.8q-2.98-1.882-5.956-3.771l-2.152-1.363c-.44-.278-.88-.559-1.32-.836a1.124,1.124,0,0,1-.411-1.417,1.026,1.026,0,0,1,1.258-.613,4.518,4.518,0,0,1,.472.155c.155.058.306.123.454.187,2.9,1.273,5.8,2.553,8.7,3.818a1.659,1.659,0,0,0,.187.068,2.146,2.146,0,0,0,.6.1c1.756.014,3.515.007,5.275,0a1.248,1.248,0,0,0,.433-.065.448.448,0,0,0,.072-.036.4.4,0,0,0,.2-.487.979.979,0,0,0-.382-.422.853.853,0,0,0-.4-.032c-1.522,0-3.039,0-4.561,0h-.393a2.279,2.279,0,0,1,2.084-2.935c1.889-.2,3.789-.389,5.668-.7a9.9,9.9,0,0,0,2.261-.836c.97-.425,1.893-.955,2.87-1.356a5.711,5.711,0,0,1,1.763-.382q.476-.032.973-.022c0,.379-.007.757,0,1.129a.011.011,0,0,0,0,.014c0,.069,0,.137,0,.206,0,1.644-.007,6.021,0,7.665A.4.4,0,0,1,48.246,80.26Zm1.972,1.489c-.436,0-.537-.108-.537-.548v-9a.5.5,0,0,0-.007-.115c.007-.025.007-.05,0-.05,0-.04,0-.072,0-.108v-2.3c0-.48.1-.588.577-.588l1.745,0c0,4.759,0,9.958,0,12.713Zm21.6-30.117c0-.249.007-.494.007-.75l4.132,3.9-1.237,0c-.346,0-.681,0-1.031-.007a6.051,6.051,0,0,1-1.056-.072.892.892,0,0,1-.79-.818C71.808,53.143,71.815,52.408,71.822,51.632Zm4.323,31.891c0,.627-.108.743-.728.743H54.026l-.137,0-.069,0a.458.458,0,0,1-.5-.5c0-.209,0-7.46,0-13.852V51.362c0-.588.108-.7.689-.7H70.459v.768c0,.7,0,1.388,0,2.07a2.47,2.47,0,0,0,2.567,2.578c.407.007.811.007,1.222.007h1.594c.069,0,.137,0,.213.007a.7.7,0,0,0,.087,0ZM32.086,77.945a2.146,2.146,0,0,0,.6.1c1.756.014,3.515.007,5.275,0a1.248,1.248,0,0,0,.433-.065.448.448,0,0,0,.072-.036Z" transform="translate(635.223 3186.645)" fill="#0c38ed" stroke="#0c38ed" stroke-width="0.2"/>
    <g id="Group_210" data-name="Group 210">
      <path id="Path_184" data-name="Path 184" d="M126.12,83.207c-.277.415-.242.787.1,1.019a.648.648,0,0,0,.368.123.768.768,0,0,0,.62-.4q2.852-4.264,5.7-8.533a1.965,1.965,0,0,0,.152-.3c.027-.06.057-.127.094-.2a.09.09,0,0,0-.016-.1c-.042-.046-.082-.1-.123-.149a1.016,1.016,0,0,0-.349-.329.612.612,0,0,0-.255-.059.735.735,0,0,0-.592.4q-1.858,2.792-3.722,5.58Z" transform="translate(567.34 3170.069)" fill="#ff9401" stroke="#ff9401" stroke-width="0.2"/>
      <path id="Path_185" data-name="Path 185" d="M141.387,88.675a2.153,2.153,0,0,0-2.12,2.217,2.237,2.237,0,0,0,.638,1.612,2.12,2.12,0,0,0,3-.007,2.229,2.229,0,0,0,.645-1.6A2.186,2.186,0,0,0,141.387,88.675Zm.562,2.906a.753.753,0,0,1-.548.22.83.83,0,0,1-.808-.9v-.007a.8.8,0,0,1,.811-.876v-.09l.018.09a.8.8,0,0,1,.79.883A.938.938,0,0,1,141.949,91.581Z" transform="translate(558.815 3160.862)" fill="#ff9401" stroke="#ff9401" stroke-width="0.2"/>
      <path id="Path_186" data-name="Path 186" d="M122.737,75.485a2.114,2.114,0,0,0-2.12,2.192,2.254,2.254,0,0,0,.6,1.59,2.07,2.07,0,0,0,1.522.638h0a2.212,2.212,0,0,0-.007-4.42Zm.566,2.877a.774.774,0,0,1-.559.234.786.786,0,0,1-.559-.234.954.954,0,0,1-.26-.678.827.827,0,0,1,.808-.88l.011-.09v.09a.829.829,0,0,1,.826.883A.919.919,0,0,1,123.3,78.362Z" transform="translate(570.741 3169.297)" fill="#ff9401" stroke="#ff9401" stroke-width="0.2"/>
    </g>
    <path id="Path_187" data-name="Path 187" d="M136.169,127a.606.606,0,0,1-.453.648,1.516,1.516,0,0,1-.442.051c-.92,0-3.478,0-5.706,0h-8.137a1.163,1.163,0,0,1-.247-.022.635.635,0,0,1-.551-.656.619.619,0,0,1,.569-.634,2.531,2.531,0,0,1,.4-.022h13.614a2.322,2.322,0,0,1,.438.033A.6.6,0,0,1,136.169,127Z" transform="translate(570.729 3136.76)" fill="#0c38ed" stroke="#0c38ed" stroke-width="0.2"/>
    <path id="Path_188" data-name="Path 188" d="M131.549,118.725a.666.666,0,0,1-.428.388,1.6,1.6,0,0,1-.525.076c-.1,0-.2-.008-.3-.011s-.192-.011-.286-.011l-7.688,0q-.533,0-1.065-.011a.65.65,0,0,1-.641-.656.674.674,0,0,1,.616-.645.792.792,0,0,1,.131-.007h.127l3.351,0,1.362,0c.659,0,1.322,0,1.985,0h.163c.5,0,1.007,0,1.511-.007.112,0,.225-.007.337-.014s.246-.015.37-.015h.062a1.151,1.151,0,0,1,.685.207A.635.635,0,0,1,131.549,118.725Z" transform="translate(570.742 3142.221)" fill="#0c38ed" stroke="#0c38ed" stroke-width="0.2"/>
    <path id="Path_189" data-name="Path 189" d="M133.619,110.093a.664.664,0,0,1-.63.667c-.04,0-.08.007-.12.007l-.134,0-11.361,0c-.047,0-.1,0-.145-.007a.69.69,0,0,1-.616-.692.657.657,0,0,1,.638-.612c.058,0,.112,0,.17,0l10.9,0c.214,0,.428,0,.641.007A.632.632,0,0,1,133.619,110.093Z" transform="translate(570.744 3147.579)" fill="#0c38ed" stroke="#0c38ed" stroke-width="0.2"/>
    <path id="Path_190" data-name="Path 190" d="M125.792,135.514a.619.619,0,0,1-.2.489.805.805,0,0,1-.54.174c-.246,0-.489,0-.736,0h-2.2c-.243,0-.485,0-.728,0a.837.837,0,0,1-.616-.221.6.6,0,0,1-.167-.442c.007-.391.308-.641.768-.641l1.829,0,1.83,0C125.516,134.873,125.788,135.108,125.792,135.514Z" transform="translate(570.742 3131.323)" fill="#0c38ed" stroke="#0c38ed" stroke-width="0.2"/>
    <g id="Group_182" data-name="Group 182" transform="translate(667.545 3248.119)">
      <path id="Path_191" data-name="Path 191" d="M59.91,85.416H58.023a2.02,2.02,0,0,1,.755,1.375H59.91a.337.337,0,0,1,.337.337h0a.337.337,0,0,1-.337.337H58.791c-.134,1.375-1.226,2.251-2.952,2.305.844.875,1.748,1.933,2.657,3.034a.5.5,0,0,1-.386.82h0a.5.5,0,0,1-.385-.181c-1-1.2-1.946-2.323-3.152-3.606V89h.741c1.456,0,2.238-.607,2.332-1.537H54.572v-.674H57.6c-.189-.782-.9-1.173-2.076-1.173h-.957v-.876H59.91a.337.337,0,0,1,.337.337h0A.337.337,0,0,1,59.91,85.416Z" transform="translate(-54.572 -84.742)" fill="#0c38ed" stroke="#0c38ed" stroke-width="0.2"/>
    </g>
  </g>
</svg>
