<?xml version="1.0" encoding="utf-8"?>
<!-- Generator: Adobe Illustrator 23.0.1, SVG Export Plug-In . SVG Version: 6.00 Build 0)  -->
<svg version="1.1" id="Layer_1" xmlns="http://www.w3.org/2000/svg" xmlns:xlink="http://www.w3.org/1999/xlink" x="0px" y="0px"
	 viewBox="0 0 226.6 63" style="enable-background:new 0 0 226.6 63;" xml:space="preserve">
<style type="text/css">
	.st0{fill:url(#SVGID_1_);}
	.st1{fill:url(#SVGID_2_);}
	.st2{fill:url(#SVGID_3_);}
	.st3{fill:url(#SVGID_4_);}
	.st4{enable-background:new    ;}
	.st5{fill:#313133;}
</style>
<linearGradient id="SVGID_1_" gradientUnits="userSpaceOnUse" x1="-177.4361" y1="446.2013" x2="-178.0531" y2="445.2143" gradientTransform="matrix(31.97 0 0 -58.217 5698.4766 25979.0938)">
	<stop  offset="0" style="stop-color:#004A9B"/>
	<stop  offset="3.000000e-02" style="stop-color:#02519F"/>
	<stop  offset="0.199" style="stop-color:#1076B3"/>
	<stop  offset="0.367" style="stop-color:#1B93C2"/>
	<stop  offset="0.534" style="stop-color:#23A8CE"/>
	<stop  offset="0.698" style="stop-color:#28B4D4"/>
	<stop  offset="0.856" style="stop-color:#2AB9D7"/>
</linearGradient>
<path class="st0" d="M12.8,60.4H0L19.2,2.2H32L12.8,60.4z"/>
<linearGradient id="SVGID_2_" gradientUnits="userSpaceOnUse" x1="-178.054" y1="446.2133" x2="-177.439" y2="445.2104" gradientTransform="matrix(31.967 0 0 -58.217 5717.0547 25979.0938)">
	<stop  offset="0" style="stop-color:#2AB9D7"/>
	<stop  offset="8.600000e-02" style="stop-color:#2AB9D7"/>
	<stop  offset="0.209" style="stop-color:#28B4D4"/>
	<stop  offset="0.324" style="stop-color:#23A8CE"/>
	<stop  offset="0.423" style="stop-color:#1B93C2"/>
	<stop  offset="0.631" style="stop-color:#1076B3"/>
	<stop  offset="0.858" style="stop-color:#02519F"/>
	<stop  offset="1" style="stop-color:#004A9B"/>
</linearGradient>
<path class="st1" d="M38.3,60.4h12.8L31.9,2.2H19.1L38.3,60.4z"/>
<linearGradient id="SVGID_3_" gradientUnits="userSpaceOnUse" x1="-171.4637" y1="438.5515" x2="-173.0887" y2="438.1025" gradientTransform="matrix(16.071 0 0 -27.673 2811.6028 12152.7119)">
	<stop  offset="0.329" style="stop-color:#E82817"/>
	<stop  offset="0.408" style="stop-color:#EE4910"/>
	<stop  offset="0.495" style="stop-color:#F4660A"/>
	<stop  offset="0.588" style="stop-color:#F87D05"/>
	<stop  offset="0.688" style="stop-color:#FB8D02"/>
	<stop  offset="0.8" style="stop-color:#FD9700"/>
	<stop  offset="0.951" style="stop-color:#FE9A00"/>
</linearGradient>
<path class="st2" d="M45,36.6l-6.4-19l3.1-8.7l13,0.1L45,36.6z"/>
<linearGradient id="SVGID_4_" gradientUnits="userSpaceOnUse" x1="-177.6065" y1="445.3976" x2="-176.9995" y2="444.3376" gradientTransform="matrix(29.618 0 0 -51.529 5307.5146 22956.8535)">
	<stop  offset="4.900000e-02" style="stop-color:#FE9A00"/>
	<stop  offset="0.246" style="stop-color:#FD9700"/>
	<stop  offset="0.392" style="stop-color:#FB8D02"/>
	<stop  offset="0.523" style="stop-color:#F87D05"/>
	<stop  offset="0.644" style="stop-color:#F4660A"/>
	<stop  offset="0.757" style="stop-color:#EE4910"/>
	<stop  offset="0.86" style="stop-color:#E82817"/>
</linearGradient>
<path class="st3" d="M58.8,60.4h12.6l-17-51.5H41.8L58.8,60.4z"/>
<g class="st4">
	<path class="st5" d="M100.8,35l-2.4-6H87.2l-2.4,6h-6L90.2,8.2h5.4L107,35H100.8z M92.8,15.2l-3.5,8.6h7.1L92.8,15.2z"/>
	<path class="st5" d="M132.3,26.9c-0.7,1.6-1.7,3-2.9,4.2c-1.3,1.2-2.7,2.1-4.5,2.8c-1.7,0.7-3.6,1-5.7,1h-10.4V8.4h10.4
		c2.1,0,4,0.3,5.7,1c1.7,0.7,3.2,1.6,4.5,2.8s2.2,2.6,2.9,4.2s1,3.4,1,5.2v0.1C133.3,23.6,132.9,25.3,132.3,26.9z M127.2,21.7
		c0-1.2-0.2-2.2-0.6-3.2c-0.4-1-0.9-1.8-1.6-2.5c-0.7-0.7-1.5-1.3-2.5-1.7c-1-0.4-2.1-0.6-3.3-0.6h-4.5v16h4.5
		c1.2,0,2.3-0.2,3.3-0.6c1-0.4,1.8-0.9,2.5-1.6c0.7-0.7,1.2-1.5,1.6-2.5C127,24,127.2,23,127.2,21.7L127.2,21.7z"/>
	<path class="st5" d="M152.9,35V24.3h-10.8V35h-5.9V8.4h5.9v10.5h10.8V8.4h5.9V35H152.9z"/>
	<path class="st5" d="M163.1,35V8.4h5.9V35H163.1z"/>
	<path class="st5" d="M189.5,35l-5.7-8.5h-4.6V35h-5.9V8.4h12.2c3.2,0,5.6,0.8,7.4,2.3c1.8,1.5,2.6,3.7,2.6,6.5v0.1
		c0,2.2-0.5,3.9-1.6,5.3c-1.1,1.4-2.4,2.4-4.1,3l6.5,9.5H189.5z M189.6,17.5c0-1.3-0.4-2.2-1.2-2.9c-0.8-0.6-1.9-1-3.4-1h-5.8v7.6
		h5.9c1.4,0,2.6-0.3,3.3-1C189.2,19.6,189.6,18.7,189.6,17.5L189.6,17.5z"/>
	<path class="st5" d="M218.3,35l-2.4-6h-11.2l-2.4,6h-6l11.4-26.8h5.4L224.4,35H218.3z M210.2,15.2l-3.5,8.6h7.1L210.2,15.2z"/>
</g>
<g class="st4">
	<path class="st5" d="M91.7,59l-1.5-3.8H83L81.5,59h-3.8l7.2-16.9h3.4L95.5,59H91.7z M86.6,46.6L84.4,52h4.5L86.6,46.6z"/>
	<path class="st5" d="M108.4,56.3c-0.3,0.6-0.7,1.2-1.3,1.6c-0.5,0.4-1.2,0.8-1.9,1c-0.7,0.2-1.6,0.3-2.5,0.3
		c-1.3,0-2.5-0.2-3.8-0.7c-1.2-0.4-2.4-1.1-3.4-2l2.2-2.6c0.8,0.6,1.6,1.1,2.4,1.5c0.8,0.4,1.7,0.6,2.7,0.6c0.8,0,1.4-0.1,1.8-0.4
		c0.4-0.3,0.6-0.7,0.6-1.2v0c0-0.2,0-0.5-0.1-0.6c-0.1-0.2-0.3-0.4-0.5-0.5s-0.6-0.3-1-0.5c-0.4-0.2-1-0.3-1.7-0.5
		c-0.9-0.2-1.6-0.4-2.3-0.7c-0.7-0.3-1.3-0.6-1.8-0.9c-0.5-0.4-0.9-0.8-1.1-1.4c-0.3-0.6-0.4-1.3-0.4-2.1v0c0-0.8,0.1-1.5,0.4-2.1
		s0.7-1.1,1.2-1.6c0.5-0.4,1.1-0.8,1.9-1c0.7-0.2,1.5-0.4,2.4-0.4c1.2,0,2.4,0.2,3.4,0.6c1,0.4,2,0.9,2.8,1.6l-1.9,2.8
		c-0.8-0.5-1.5-0.9-2.2-1.2c-0.7-0.3-1.4-0.4-2.2-0.4c-0.7,0-1.3,0.1-1.6,0.4c-0.4,0.3-0.5,0.6-0.5,1v0c0,0.3,0.1,0.5,0.2,0.7
		c0.1,0.2,0.3,0.4,0.6,0.5s0.6,0.3,1.1,0.5c0.5,0.1,1.1,0.3,1.8,0.5c0.9,0.2,1.6,0.5,2.3,0.8c0.7,0.3,1.2,0.6,1.7,1
		c0.5,0.4,0.8,0.9,1,1.4s0.3,1.2,0.3,1.9v0C108.9,54.9,108.7,55.6,108.4,56.3z"/>
	<path class="st5" d="M122.4,56.3c-0.3,0.6-0.7,1.2-1.3,1.6c-0.5,0.4-1.2,0.8-1.9,1c-0.8,0.2-1.6,0.3-2.5,0.3
		c-1.3,0-2.5-0.2-3.8-0.7c-1.2-0.4-2.4-1.1-3.4-2l2.2-2.6c0.8,0.6,1.6,1.1,2.4,1.5c0.8,0.4,1.7,0.6,2.7,0.6c0.8,0,1.4-0.1,1.8-0.4
		c0.4-0.3,0.6-0.7,0.6-1.2v0c0-0.2,0-0.5-0.1-0.6c-0.1-0.2-0.3-0.4-0.5-0.5c-0.2-0.2-0.6-0.3-1-0.5c-0.4-0.2-1-0.3-1.7-0.5
		c-0.9-0.2-1.6-0.4-2.3-0.7c-0.7-0.3-1.3-0.6-1.8-0.9c-0.5-0.4-0.9-0.8-1.1-1.4c-0.3-0.6-0.4-1.3-0.4-2.1v0c0-0.8,0.1-1.5,0.4-2.1
		s0.7-1.1,1.2-1.6c0.5-0.4,1.1-0.8,1.9-1c0.7-0.2,1.5-0.4,2.4-0.4c1.2,0,2.4,0.2,3.4,0.6c1,0.4,2,0.9,2.8,1.6l-1.9,2.8
		c-0.8-0.5-1.5-0.9-2.2-1.2c-0.7-0.3-1.4-0.4-2.2-0.4c-0.7,0-1.3,0.1-1.6,0.4c-0.4,0.3-0.5,0.6-0.5,1v0c0,0.3,0.1,0.5,0.2,0.7
		c0.1,0.2,0.3,0.4,0.6,0.5c0.3,0.2,0.6,0.3,1.1,0.5c0.5,0.1,1.1,0.3,1.8,0.5c0.8,0.2,1.6,0.5,2.3,0.8s1.2,0.6,1.7,1
		c0.5,0.4,0.8,0.9,1,1.4s0.3,1.2,0.3,1.9v0C122.8,54.9,122.7,55.6,122.4,56.3z"/>
	<path class="st5" d="M141.1,54c-0.4,1-1.1,2-1.9,2.8s-1.7,1.4-2.8,1.9c-1.1,0.5-2.3,0.7-3.6,0.7s-2.5-0.2-3.6-0.7
		c-1.1-0.5-2-1.1-2.8-1.8c-0.8-0.8-1.4-1.7-1.8-2.7c-0.4-1-0.7-2.2-0.7-3.4v0c0-1.2,0.2-2.3,0.7-3.4c0.4-1,1.1-2,1.9-2.8
		s1.7-1.4,2.8-1.9s2.3-0.7,3.6-0.7s2.5,0.2,3.6,0.7s2,1.1,2.8,1.8s1.4,1.7,1.8,2.7c0.4,1,0.7,2.2,0.7,3.4v0
		C141.7,51.8,141.5,53,141.1,54z M137.9,50.6c0-0.7-0.1-1.4-0.4-2c-0.2-0.6-0.6-1.2-1.1-1.7c-0.5-0.5-1-0.9-1.6-1.1s-1.3-0.4-2-0.4
		c-0.8,0-1.4,0.1-2.1,0.4c-0.6,0.3-1.1,0.6-1.6,1.1c-0.4,0.5-0.8,1-1,1.7s-0.4,1.3-0.4,2v0c0,0.7,0.1,1.4,0.4,2
		c0.2,0.6,0.6,1.2,1.1,1.7c0.5,0.5,1,0.9,1.6,1.1c0.6,0.3,1.3,0.4,2.1,0.4c0.7,0,1.4-0.1,2-0.4c0.6-0.3,1.2-0.6,1.6-1.1
		c0.4-0.5,0.8-1,1-1.7C137.7,52.1,137.9,51.4,137.9,50.6L137.9,50.6z"/>
	<path class="st5" d="M157,57.6c-0.5,0.4-1,0.7-1.5,0.9c-0.6,0.3-1.2,0.5-1.8,0.6c-0.7,0.1-1.4,0.2-2.2,0.2c-1.2,0-2.4-0.2-3.4-0.7
		c-1.1-0.4-2-1.1-2.7-1.8c-0.8-0.8-1.4-1.7-1.8-2.7c-0.4-1.1-0.6-2.2-0.6-3.4v0c0-1.2,0.2-2.3,0.6-3.4c0.4-1,1-2,1.8-2.8
		c0.8-0.8,1.7-1.4,2.8-1.9c1.1-0.5,2.3-0.7,3.6-0.7c0.8,0,1.5,0.1,2.1,0.2c0.6,0.1,1.2,0.3,1.8,0.5c0.5,0.2,1,0.5,1.5,0.8
		s0.9,0.7,1.2,1.1l-2.4,2.7c-0.7-0.6-1.3-1.1-2-1.4c-0.7-0.3-1.4-0.5-2.3-0.5c-0.7,0-1.4,0.1-2,0.4c-0.6,0.3-1.1,0.6-1.5,1.1
		c-0.4,0.5-0.8,1-1,1.7s-0.4,1.3-0.4,2v0c0,0.7,0.1,1.4,0.4,2c0.2,0.6,0.6,1.2,1,1.7c0.4,0.5,0.9,0.9,1.5,1.1c0.6,0.3,1.3,0.4,2,0.4
		c1,0,1.8-0.2,2.4-0.5c0.7-0.4,1.3-0.8,2-1.4l2.4,2.4C157.9,56.8,157.5,57.2,157,57.6z"/>
	<path class="st5" d="M160.1,59V42.2h3.7V59H160.1z"/>
	<path class="st5" d="M179,59l-1.5-3.8h-7.1l-1.5,3.8h-3.8l7.2-16.9h3.4l7.2,16.9H179z M174,46.6l-2.2,5.4h4.5L174,46.6z"/>
	<path class="st5" d="M191.7,45.7V59H188V45.7h-5.1v-3.4h13.9v3.4H191.7z"/>
	<path class="st5" d="M198.2,59V42.2h12.6v3.3h-9v3.4h7.9v3.3h-7.9v3.5h9.1V59H198.2z"/>
	<path class="st5" d="M224.6,56.3c-0.3,0.6-0.7,1.2-1.3,1.6c-0.5,0.4-1.2,0.8-1.9,1c-0.7,0.2-1.6,0.3-2.5,0.3
		c-1.3,0-2.5-0.2-3.8-0.7c-1.2-0.4-2.4-1.1-3.4-2l2.2-2.6c0.8,0.6,1.6,1.1,2.4,1.5S218,56,219,56c0.8,0,1.4-0.1,1.8-0.4
		c0.4-0.3,0.6-0.7,0.6-1.2v0c0-0.2,0-0.5-0.1-0.6c-0.1-0.2-0.3-0.4-0.5-0.5c-0.2-0.2-0.6-0.3-1-0.5c-0.4-0.2-1-0.3-1.7-0.5
		c-0.9-0.2-1.6-0.4-2.3-0.7c-0.7-0.3-1.3-0.6-1.8-0.9s-0.9-0.8-1.1-1.4c-0.3-0.6-0.4-1.3-0.4-2.1v0c0-0.8,0.1-1.5,0.4-2.1
		s0.7-1.1,1.2-1.6c0.5-0.4,1.1-0.8,1.9-1c0.7-0.2,1.5-0.4,2.4-0.4c1.2,0,2.4,0.2,3.4,0.6c1,0.4,2,0.9,2.8,1.6l-1.9,2.8
		c-0.8-0.5-1.5-0.9-2.2-1.2s-1.4-0.4-2.2-0.4s-1.3,0.1-1.6,0.4c-0.4,0.3-0.5,0.6-0.5,1v0c0,0.3,0.1,0.5,0.2,0.7
		c0.1,0.2,0.3,0.4,0.6,0.5c0.3,0.2,0.6,0.3,1.1,0.5c0.5,0.1,1.1,0.3,1.8,0.5c0.9,0.2,1.6,0.5,2.3,0.8c0.7,0.3,1.2,0.6,1.7,1
		c0.5,0.4,0.8,0.9,1,1.4s0.3,1.2,0.3,1.9v0C225,54.9,224.9,55.6,224.6,56.3z"/>
</g>
</svg>
