<svg xmlns="http://www.w3.org/2000/svg" width="43.198" height="30.716" viewBox="0 0 43.198 30.716">
  <g id="Group_204" data-name="Group 204" transform="translate(0.1 0.1)">
    <path id="Path_241" data-name="Path 241" d="M100.066,51l-1.76-1.647H83.159a.939.939,0,0,0-.94.937V77.64a.939.939,0,0,0,.94.937h16.55a.939.939,0,0,0,.94-.937V51.547C100.453,51.366,100.259,51.186,100.066,51Zm-2.779-.777c0-.18.006-.355.006-.538,0,0,2.371,2.235,2.965,2.8l-.887,0c-.247,0-.489,0-.739-.006a4.385,4.385,0,0,1-.759-.052.64.64,0,0,1-.567-.585C97.276,51.305,97.282,50.779,97.288,50.223Z" transform="translate(-58.34 -48.588)" fill="#ff9401"/>
    <path id="Path_242" data-name="Path 242" d="M50.806,82.829a.484.484,0,0,1-.551-.426c-.045-.193-.087-.386-.13-.578-.106-.48-.216-.976-.358-1.458a1.389,1.389,0,0,0-.553-.683,1.5,1.5,0,0,0-.9-.321,1.868,1.868,0,0,0-1.163.487,7.056,7.056,0,0,1-.831.55c-.11.065-.219.131-.327.2a.715.715,0,0,1-.363.12.562.562,0,0,1-.4-.192q-1.26-1.251-2.509-2.512a.534.534,0,0,1-.061-.757c.12-.193.244-.383.367-.574.241-.373.491-.759.715-1.156a1.334,1.334,0,0,0,.094-.847,1.6,1.6,0,0,0-1.6-1.375,5.54,5.54,0,0,1-.9-.182c-.148-.038-.3-.076-.443-.109a.509.509,0,0,1-.468-.58q.008-1.775,0-3.553a.483.483,0,0,1,.438-.551q.3-.069.59-.134c.489-.11,1-.223,1.489-.358a1.188,1.188,0,0,0,.6-.478,1.6,1.6,0,0,0-.148-2.15,5.151,5.151,0,0,1-.541-.814c-.056-.1-.111-.193-.169-.287a.554.554,0,0,1,.093-.838c.727-.738,1.576-1.594,2.439-2.427a1.366,1.366,0,0,1,.34-.209l.081-.041.092.039a2.639,2.639,0,0,1,.326.153c.208.129.417.263.626.4.355.228.721.463,1.1.679a.892.892,0,0,0,.458.108,1.719,1.719,0,0,0,.3-.029,1.675,1.675,0,0,0,1.424-1.679,6.546,6.546,0,0,1,.2-.965c.032-.126.065-.251.094-.376a.469.469,0,0,1,.53-.408H52.67v1H51.4a.32.32,0,0,0-.312.251l-.144.644c-.105.466-.209.928-.3,1.392a.759.759,0,0,1-.575.646,8.088,8.088,0,0,0-1.413.574,1.028,1.028,0,0,1-.5.152h0a.923.923,0,0,1-.53-.2c-.39-.272-.792-.519-1.18-.758-.163-.1-.323-.2-.478-.3a.321.321,0,0,0-.4.043l-1.7,1.676a.32.32,0,0,0-.046.4c.1.151.191.3.286.458.246.4.5.806.779,1.2a.842.842,0,0,1,.058,1.021,5.844,5.844,0,0,0-.556,1.329.823.823,0,0,1-.753.689c-.472.084-.939.2-1.39.3-.189.045-.377.09-.564.133a.32.32,0,0,0-.248.312v2.38a.32.32,0,0,0,.253.313l.768.168c.432.1.858.189,1.285.277a.734.734,0,0,1,.617.551,11.63,11.63,0,0,0,.615,1.488.791.791,0,0,1-.041.907c-.267.388-.512.781-.748,1.162-.11.176-.216.346-.318.507a.32.32,0,0,0,.04.4l.345.356c.453.466.886.912,1.332,1.375a.321.321,0,0,0,.4.048c.156-.1.315-.2.475-.3.374-.232.761-.471,1.134-.732a.987.987,0,0,1,.571-.218.976.976,0,0,1,.489.154,5.722,5.722,0,0,0,1.331.555.807.807,0,0,1,.663.721c.084.463.193.928.3,1.379.047.2.094.4.14.6a.32.32,0,0,0,.312.25h1.264c0,.365,0,.7,0,1h-.621c-.411,0-.819,0-1.228,0Z" transform="translate(-40.429 -55.083)" fill="#0c38ed" stroke="#0c38ed" stroke-width="0.2"/>
    <path id="Path_259" data-name="Path 259" d="M42.292,82.829a.484.484,0,0,0,.551-.426c.045-.193.087-.386.13-.578.106-.48.216-.976.358-1.458a1.389,1.389,0,0,1,.553-.683,1.5,1.5,0,0,1,.9-.321,1.868,1.868,0,0,1,1.163.487,7.058,7.058,0,0,0,.831.55c.11.065.219.131.327.2a.715.715,0,0,0,.363.12.562.562,0,0,0,.4-.192q1.26-1.251,2.509-2.512a.534.534,0,0,0,.061-.757c-.12-.193-.244-.383-.367-.574-.241-.373-.491-.759-.715-1.156a1.334,1.334,0,0,1-.094-.847,1.6,1.6,0,0,1,1.6-1.375,5.543,5.543,0,0,0,.9-.182c.148-.038.3-.076.443-.109a.509.509,0,0,0,.468-.58q-.008-1.775,0-3.554a.483.483,0,0,0-.438-.551q-.3-.069-.59-.134c-.489-.11-1-.223-1.489-.358a1.188,1.188,0,0,1-.6-.478,1.6,1.6,0,0,1,.148-2.15,5.151,5.151,0,0,0,.541-.814c.056-.1.111-.193.169-.287a.554.554,0,0,0-.093-.838c-.727-.738-1.576-1.594-2.439-2.427a1.366,1.366,0,0,0-.34-.209l-.081-.041-.092.039a2.638,2.638,0,0,0-.326.153c-.208.129-.417.263-.626.4-.355.228-.721.463-1.1.679a.892.892,0,0,1-.458.108,1.718,1.718,0,0,1-.3-.029,1.675,1.675,0,0,1-1.424-1.679,6.544,6.544,0,0,0-.2-.965c-.032-.126-.065-.251-.094-.376a.469.469,0,0,0-.53-.408H40.429v1H41.7a.32.32,0,0,1,.313.251l.144.644c.105.466.209.928.3,1.392a.759.759,0,0,0,.575.646,8.087,8.087,0,0,1,1.413.574,1.028,1.028,0,0,0,.5.152h0a.923.923,0,0,0,.53-.2c.39-.272.792-.519,1.18-.758.163-.1.323-.2.478-.3a.321.321,0,0,1,.4.043l1.7,1.676a.32.32,0,0,1,.046.4c-.1.151-.191.3-.286.458-.246.4-.5.806-.779,1.2a.842.842,0,0,0-.058,1.021,5.844,5.844,0,0,1,.556,1.329.823.823,0,0,0,.753.689c.472.084.939.2,1.39.3.189.045.377.09.564.133a.32.32,0,0,1,.248.312v2.38a.32.32,0,0,1-.253.313l-.768.168c-.432.1-.858.189-1.285.277a.734.734,0,0,0-.617.551,11.631,11.631,0,0,1-.615,1.488.791.791,0,0,0,.041.907c.267.388.512.781.748,1.162.11.176.216.346.318.507a.32.32,0,0,1-.04.4l-.345.356c-.453.466-.886.912-1.332,1.375a.321.321,0,0,1-.4.048c-.156-.1-.315-.2-.475-.3-.374-.232-.761-.471-1.134-.732a.987.987,0,0,0-.571-.219.976.976,0,0,0-.489.154,5.723,5.723,0,0,1-1.331.555.807.807,0,0,0-.663.721c-.084.464-.193.928-.3,1.379-.047.2-.094.4-.14.6a.32.32,0,0,1-.313.25H40.43c0,.365,0,.7,0,1h.621c.411,0,.819,0,1.228,0Z" transform="translate(-28.791 -55.083)" fill="#0c38ed" stroke="#0c38ed" stroke-width="0.2"/>
    <path id="Path_243" data-name="Path 243" d="M96.6,92.9c.561-.566,4.088-4.2,4.6-4.713a2.566,2.566,0,0,1,.2-.192.5.5,0,0,1,.691.028.469.469,0,0,1,0,.665c-.7.716-4.424,4.542-5.141,5.242a.451.451,0,0,1-.685-.019c-.311-.3-1.348-1.336-1.643-1.647a.475.475,0,0,1-.013-.688.5.5,0,0,1,.714,0C95.509,91.75,96.4,92.685,96.6,92.9Z" transform="translate(-67.025 -75.896)" fill="#fff" stroke="#fff" stroke-width="0.2"/>
    <path id="Path_244" data-name="Path 244" d="M66.88,91.288a3.72,3.72,0,0,1-.429-.021,6.265,6.265,0,0,1-.013-12.488A5.316,5.316,0,0,1,67,78.753h.032v1h-.1a4.735,4.735,0,0,0-.563.04,5.265,5.265,0,0,0,.013,10.467,4.393,4.393,0,0,0,.527.029h.123v1Z" transform="translate(-54.794 -69.433)" fill="#ff9401" stroke="#ff9401" stroke-width="0.2"/>
    <path id="Path_260" data-name="Path 260" d="M60.842,91.288a3.721,3.721,0,0,0,.429-.021,6.265,6.265,0,0,0,.013-12.488,5.316,5.316,0,0,0-.564-.025h-.032v1h.1a4.729,4.729,0,0,1,.563.04,5.265,5.265,0,0,1-.013,10.467,4.39,4.39,0,0,1-.527.029h-.123v1Z" transform="translate(-49.051 -69.434)" fill="#ff9401" stroke="#ff9401" stroke-width="0.2"/>
    <path id="Path_245" data-name="Path 245" d="M99.988,51a1.432,1.432,0,0,0-.48-1.12c-.07-.064-.137-.128-.207-.195-.195-.18-.39-.361-.582-.547-.087-.079-.172-.163-.259-.244-.5-.471-1-.943-1.5-1.4l-.122-.113a4.623,4.623,0,0,0-.582-.439c-.1-.067-.189-.131-.282-.2a.067.067,0,0,0-.041-.012l-11.519,0H81.285a1.463,1.463,0,0,0-.966,1.583c0,.192.006.73.006,1.525,0,.466,0,1.018,0,1.641,0,1.2,0,2.665,0,4.274,0,.535,0,1.088,0,1.65,0,3.186,0,6.733,0,9.832v1.644c0,1.676,0,3.154,0,4.274V75.9a1.693,1.693,0,0,0,.049.4,1.18,1.18,0,0,0,.981.9,1.606,1.606,0,0,0,.317.029h2.741l5.1,0c2.572,0,6.532,0,9.1.012h.006a1.342,1.342,0,0,0,1.365-1.373C99.976,69.081,99.982,57.669,99.988,51Zm-.946.564v24.2c0,.451-.076.532-.521.532H81.779l-.1,0-.049,0a.464.464,0,0,1-.221-.058.348.348,0,0,1-.137-.3c0-.029,0-.454,0-1.149,0-.445,0-1,0-1.638,0-1.216,0-2.718,0-4.268V67.236c0-2.2,0-4.344,0-5.761V48.163c0-.422.076-.5.495-.5h13.2v.553c0,.5,0,1,0,1.484a1.77,1.77,0,0,0,1.842,1.851c.291.006.582.006.876.006H98.83c.049,0,.1,0,.151.006A.428.428,0,0,0,99.042,51.562Zm-.131-.946-.887,0c-.247,0-.489,0-.739-.006a4.384,4.384,0,0,1-.759-.052.64.64,0,0,1-.567-.585c-.029-.535-.023-1.062-.017-1.618,0-.18.006-.355.006-.538C95.946,47.82,98.318,50.055,98.911,50.616Z" transform="translate(-56.993 -46.723)" fill="#0c38ed" stroke="#0c38ed" stroke-width="0.2"/>
    <path id="Path_246" data-name="Path 246" d="M104.835,125.75a.478.478,0,0,1-.307.278,1.144,1.144,0,0,1-.377.055c-.073,0-.145-.005-.216-.008s-.138-.008-.205-.008l-8.036,0q-.382,0-.765-.008a.467.467,0,0,1-.46-.471.483.483,0,0,1,.442-.463.559.559,0,0,1,.093-.005H95.1l2.405,0,.978,0,1.425,0h.117c.361,0,3.242,0,3.6-.005.081,0,.161-.005.242-.01s.177-.01.265-.01h.044a.821.821,0,0,1,.491.148A.456.456,0,0,1,104.835,125.75Z" transform="translate(-67.026 -102.299)" fill="#0c38ed" stroke="#0c38ed" stroke-width="0.2"/>
    <path id="Path_247" data-name="Path 247" d="M102.6,133.823a.4.4,0,0,1-.13.182.762.762,0,0,1-.423.144,5.469,5.469,0,0,1-.556,0c-.279-.007-.559-.01-.838-.01H95.694q-.382,0-.765-.008a.467.467,0,0,1-.46-.47.483.483,0,0,1,.442-.463A.558.558,0,0,1,95,133.2H95.1l2.405,0,.978,0,1.425,0h.117c.315,0,.629,0,.944,0s.619-.034.929-.024a.973.973,0,0,1,.486.125A.461.461,0,0,1,102.6,133.823Z" transform="translate(-67.026 -108.022)" fill="#0c38ed" stroke="#0c38ed" stroke-width="0.2"/>
    <path id="Path_248" data-name="Path 248" d="M106.323,117.6a.477.477,0,0,1-.452.478c-.029,0-.057.005-.086.005l-.1,0-10.673,0c-.034,0-.07,0-.1-.005a.5.5,0,0,1-.442-.5.471.471,0,0,1,.457-.439c.042,0,.081,0,.122,0l10.345,0c.153,0,.307,0,.46.005A.454.454,0,0,1,106.323,117.6Z" transform="translate(-67.026 -96.651)" fill="#0c38ed" stroke="#0c38ed" stroke-width="0.2"/>
  </g>
</svg>
