<svg xmlns="http://www.w3.org/2000/svg" width="41.965" height="40.947" viewBox="0 0 41.965 40.947">
  <g id="Group_204" data-name="Group 204" transform="translate(-40.329 -46.623)">
    <path id="Path_241" data-name="Path 241" d="M106.05,51.552l-2.351-2.2H83.474A1.254,1.254,0,0,0,82.219,50.6v36.52a1.254,1.254,0,0,0,1.255,1.251h22.1a1.254,1.254,0,0,0,1.255-1.251V52.282C106.567,52.042,106.307,51.8,106.05,51.552Zm-3.71-1.037c0-.241.008-.474.008-.719,0,0,3.166,2.984,3.959,3.734l-1.185,0c-.33,0-.653,0-.987-.008a5.854,5.854,0,0,1-1.014-.07.854.854,0,0,1-.758-.781C102.325,51.96,102.332,51.257,102.34,50.515Z" transform="translate(-25.554 -1.608)" fill="#50a8ff"/>
    <path id="Path_242" data-name="Path 242" d="M54.286,90.981a.646.646,0,0,1-.736-.569c-.06-.258-.117-.515-.173-.772-.142-.641-.288-1.3-.478-1.947a1.855,1.855,0,0,0-.739-.911,2.008,2.008,0,0,0-1.2-.429,2.494,2.494,0,0,0-1.553.65,9.424,9.424,0,0,1-1.11.735c-.146.087-.293.175-.437.265a.954.954,0,0,1-.484.16.75.75,0,0,1-.528-.256q-1.682-1.671-3.35-3.354a.713.713,0,0,1-.082-1.011c.161-.258.325-.512.49-.766.322-.5.655-1.013.955-1.543a1.781,1.781,0,0,0,.125-1.131,2.142,2.142,0,0,0-2.141-1.836,7.4,7.4,0,0,1-1.2-.243c-.2-.051-.394-.1-.592-.145a.679.679,0,0,1-.625-.775q.011-2.37,0-4.745a.644.644,0,0,1,.585-.736q.394-.091.788-.179c.653-.146,1.329-.3,1.988-.478a1.587,1.587,0,0,0,.8-.639,2.136,2.136,0,0,0-.2-2.871,6.88,6.88,0,0,1-.722-1.087c-.075-.129-.149-.258-.225-.384a.74.74,0,0,1,.125-1.119c.971-.985,2.1-2.129,3.256-3.241a1.824,1.824,0,0,1,.453-.279l.108-.055.122.052a3.525,3.525,0,0,1,.435.2c.277.172.557.352.836.531.474.3.963.619,1.463.907a1.191,1.191,0,0,0,.611.144,2.294,2.294,0,0,0,.406-.039,2.237,2.237,0,0,0,1.9-2.242,8.741,8.741,0,0,1,.265-1.289c.043-.168.087-.335.125-.5a.626.626,0,0,1,.707-.545h2.514v1.336H55.08a.427.427,0,0,0-.417.335l-.192.861c-.14.623-.279,1.239-.4,1.859a1.014,1.014,0,0,1-.767.863,10.8,10.8,0,0,0-1.886.767,1.372,1.372,0,0,1-.662.2h0a1.233,1.233,0,0,1-.707-.261c-.521-.363-1.057-.693-1.576-1.012-.218-.134-.432-.266-.639-.4a.429.429,0,0,0-.528.057l-2.272,2.237a.427.427,0,0,0-.061.533c.128.2.254.406.382.612.329.529.669,1.077,1.04,1.6a1.124,1.124,0,0,1,.077,1.363,7.8,7.8,0,0,0-.742,1.774,1.1,1.1,0,0,1-1.005.92c-.63.112-1.254.261-1.856.406-.253.061-.5.12-.754.178a.428.428,0,0,0-.332.417v3.178a.427.427,0,0,0,.337.418q.519.112,1.026.225c.577.127,1.145.252,1.716.37a.98.98,0,0,1,.823.736,15.531,15.531,0,0,0,.821,1.987,1.056,1.056,0,0,1-.054,1.211c-.356.518-.683,1.043-1,1.551-.146.235-.288.462-.425.676a.428.428,0,0,0,.054.528l.461.475c.6.622,1.183,1.218,1.779,1.836a.428.428,0,0,0,.537.064c.208-.132.42-.264.635-.4.5-.31,1.017-.629,1.514-.978a1.318,1.318,0,0,1,.763-.292,1.3,1.3,0,0,1,.653.206A7.641,7.641,0,0,0,53.2,85.7a1.078,1.078,0,0,1,.885.963c.112.619.258,1.24.4,1.841.063.268.126.537.186.807a.428.428,0,0,0,.417.334h1.688c0,.488,0,.935,0,1.333h-.829c-.549,0-1.094,0-1.64,0Z" transform="translate(0 -7.209)" fill="#0c38ed" stroke="#0c38ed" stroke-width="0.2"/>
    <path id="Path_243" data-name="Path 243" d="M97.315,94.586c.749-.756,5.459-5.606,6.141-6.293a3.427,3.427,0,0,1,.264-.256.662.662,0,0,1,.923.038.627.627,0,0,1,0,.889c-.936.956-5.908,6.065-6.864,7a.6.6,0,0,1-.915-.025c-.416-.394-1.8-1.784-2.194-2.2a.634.634,0,0,1-.017-.918.661.661,0,0,1,.953,0C95.858,93.051,97.053,94.3,97.315,94.586Z" transform="translate(-33.044 -25.159)" fill="#0c38ed" stroke="#0c38ed" stroke-width="0.2"/>
    <path id="Path_244" data-name="Path 244" d="M68.956,95.49a4.971,4.971,0,0,1-.573-.028,8.365,8.365,0,0,1-.017-16.675,7.093,7.093,0,0,1,.754-.034h.043v1.331l-.138,0a6.31,6.31,0,0,0-.752.054,7.03,7.03,0,0,0,.017,13.976,5.859,5.859,0,0,0,.7.038l.164,0v1.335Z" transform="translate(-12.388 -19.586)" fill="#0c38ed" stroke="#0c38ed" stroke-width="0.2"/>
    <path id="Path_245" data-name="Path 245" d="M106.582,52.43a1.912,1.912,0,0,0-.641-1.5c-.093-.085-.183-.171-.276-.26-.26-.241-.521-.482-.777-.73-.117-.1-.229-.218-.346-.326-.668-.629-1.333-1.259-2-1.873l-.163-.152a6.174,6.174,0,0,0-.777-.587c-.128-.089-.253-.175-.377-.268a.089.089,0,0,0-.054-.016l-15.381,0H81.609a1.953,1.953,0,0,0-1.29,2.114c0,.256.008.975.008,2.036,0,.622,0,1.36,0,2.191,0,1.6,0,3.559,0,5.707,0,.715,0,1.453,0,2.2,0,4.254,0,8.99,0,13.128v2.2c0,2.238,0,4.211,0,5.707v3.675a2.26,2.26,0,0,0,.066.528A1.575,1.575,0,0,0,81.71,87.42a2.147,2.147,0,0,0,.423.039h3.66l6.807,0c3.434,0,8.722,0,12.157.016h.008a1.792,1.792,0,0,0,1.822-1.834C106.567,76.576,106.575,61.339,106.582,52.43Zm-1.263.754V85.5c0,.6-.1.711-.7.711H82.269l-.132,0-.066,0a.62.62,0,0,1-.3-.078.464.464,0,0,1-.183-.4c0-.039,0-.606,0-1.535,0-.594,0-1.34,0-2.187,0-1.624,0-3.629,0-5.7v-2.2c0-2.941,0-5.8,0-7.693V48.646c0-.563.1-.672.66-.672H99.873v.738c0,.672,0,1.329,0,1.981a2.363,2.363,0,0,0,2.459,2.471c.389.008.777.008,1.169.008h1.531c.066,0,.128,0,.2.008A.574.574,0,0,0,105.32,53.184Zm-.175-1.263-1.185,0c-.33,0-.653,0-.987-.008a5.854,5.854,0,0,1-1.014-.07.854.854,0,0,1-.758-.781c-.039-.715-.031-1.418-.023-2.16,0-.241.008-.474.008-.719C101.186,48.188,104.352,51.171,105.145,51.921Z" transform="translate(-24.392)" fill="#0c38ed" stroke="#0c38ed" stroke-width="0.2"/>
    <path id="Path_246" data-name="Path 246" d="M108.311,125.966a.639.639,0,0,1-.41.371,1.526,1.526,0,0,1-.5.073c-.1,0-.194-.007-.288-.01s-.184-.01-.274-.01l-10.731,0q-.51,0-1.021-.01a.623.623,0,0,1-.614-.628.645.645,0,0,1,.59-.618.747.747,0,0,1,.125-.007h.122l3.211,0,1.306,0c.632,0,1.267,0,1.9,0h.156c.483,0,4.328,0,4.811-.007.108,0,.215-.007.323-.014s.236-.014.354-.014h.059a1.1,1.1,0,0,1,.656.2A.609.609,0,0,1,108.311,125.966Z" transform="translate(-33.045 -47.93)" fill="#0c38ed" stroke="#0c38ed" stroke-width="0.2"/>
    <path id="Path_247" data-name="Path 247" d="M105.326,134.039a.529.529,0,0,1-.174.244,1.018,1.018,0,0,1-.565.192,7.287,7.287,0,0,1-.742,0c-.372-.009-.746-.014-1.119-.014h-1.371l-3.142,0H96.1q-.51,0-1.021-.01a.623.623,0,0,1-.614-.628.645.645,0,0,1,.59-.618.745.745,0,0,1,.125-.007h.122l3.211,0,1.306,0c.632,0,1.267,0,1.9,0h.156c.42,0,.84,0,1.261,0s.827-.046,1.24-.033a1.3,1.3,0,0,1,.649.167A.616.616,0,0,1,105.326,134.039Z" transform="translate(-33.045 -52.866)" fill="#0c38ed" stroke="#0c38ed" stroke-width="0.2"/>
    <path id="Path_248" data-name="Path 248" d="M110.3,117.757a.636.636,0,0,1-.6.639c-.038,0-.076.007-.115.007l-.128,0-14.251,0c-.045,0-.094,0-.139-.007a.66.66,0,0,1-.59-.663.629.629,0,0,1,.611-.587c.056,0,.108,0,.163,0l13.814,0c.2,0,.409,0,.615.007A.606.606,0,0,1,110.3,117.757Z" transform="translate(-33.045 -43.058)" fill="#0c38ed" stroke="#0c38ed" stroke-width="0.2"/>
  </g>
</svg>
