<svg xmlns="http://www.w3.org/2000/svg" width="41.656" height="41.462" viewBox="0 0 41.656 41.462">
  <g id="Group_200" data-name="Group 200" transform="translate(-47.71 -47.183)">
    <rect id="Rectangle_204" data-name="Rectangle 204" width="21.998" height="22.641" rx="3.037" transform="translate(58.234 49.621)" fill="#ff9401"/>
    <path id="Path_217" data-name="Path 217" d="M105.54,115.551c1.479,0,2.893-.019,4.307.012a.723.723,0,0,0,.8-.48,1.951,1.951,0,0,1,1.554-1.191c1.3-.266,2.588-.618,3.883-.922a1.344,1.344,0,0,0,1.058-.991c.221-.733.461-1.461.693-2.191q1.507-4.745,3.009-9.491a.632.632,0,0,0,.015-.452.6.6,0,0,0-.432-.281.67.67,0,0,0-.438.333q-1.613,3.186-3.185,6.392a1.019,1.019,0,0,0-.038.6,2.117,2.117,0,0,1-.88,2.228c-1.221.56-2.478,1.042-3.728,1.536a.615.615,0,0,1-.792-.378.625.625,0,0,1,.314-.816,5.577,5.577,0,0,1,.518-.224c.933-.381,1.868-.758,2.8-1.142a.812.812,0,0,0,.43-1.107c-.182-.454-.442-.546-.955-.336-2,.818-4,1.662-6.016,2.44a2.107,2.107,0,0,0-1.416,1.539C106.6,112.267,106.059,113.872,105.54,115.551Zm-3.206,3.831c0-1.55,0-1.048,0-2.6a1.093,1.093,0,0,1,1.242-1.233h.59l1.244-4c.184-.59.374-1.178.55-1.77a2.446,2.446,0,0,1,1.447-1.638c2.384-.988,4.769-1.974,7.174-2.91.324-.126.763.043,1.148.076l.015.119c.083-.151.171-.3.248-.453.938-1.878,1.885-3.751,2.8-5.638a1.71,1.71,0,0,1,1.725-1.083,1.742,1.742,0,0,1,1.629,1.238.683.683,0,0,0,.084.126v.809c-.186.525-.388,1.045-.557,1.576q-1.631,5.127-3.246,10.261a2.717,2.717,0,0,1-2.142,2.009c-1.325.294-2.64.63-3.956.956a1.2,1.2,0,0,0-.441.255c.841.252.991.842.975,1.591-.032,1.455-.007.858-.01,2.313h-1.325V116.87h-7.877v2.512Z" transform="translate(-32.968 -30.837)" fill="#0c38ed" stroke="#0c38ed" stroke-width="0.2"/>
    <path id="Path_218" data-name="Path 218" d="M64.542,115.532c-.555-1.787-1.1-3.5-1.615-5.225a1.586,1.586,0,0,0-1.018-1.1q-3.22-1.289-6.421-2.625a.54.54,0,0,0-.766.256.827.827,0,0,0,.4,1.258c1.044.43,2.1.839,3.128,1.3a.96.96,0,0,1,.488.565c.118.5-.415.847-.941.638-1.049-.417-2.07-.919-3.143-1.257a2.212,2.212,0,0,1-1.323-2.55.8.8,0,0,0-.058-.526c-1.045-2.123-2.106-4.239-3.158-6.358-.133-.269-.293-.468-.621-.343s-.378.361-.275.685q1.867,5.858,3.72,11.72a1.35,1.35,0,0,0,1.064.984c1.375.317,2.744.658,4.118.979a1.659,1.659,0,0,1,1.182.89,3.739,3.739,0,0,0,.3.524.423.423,0,0,0,.272.179C61.411,115.536,62.946,115.532,64.542,115.532Zm1.884,3.832v-2.512H58.534v2.512H57.228c-.01-1.658-.005-1.092,0-2.75,0-.627.393-.936,1.054-1.148a3,3,0,0,0-.52-.261q-2.016-.5-4.038-.973a2.581,2.581,0,0,1-2.012-1.834q-1.891-5.977-3.788-11.953a1.772,1.772,0,0,1,3.271-1.3q1.476,2.941,2.943,5.887c.059.118.123.235.2.392a1.566,1.566,0,0,1,1.708-.027c2.118.893,4.25,1.754,6.385,2.608a2.814,2.814,0,0,1,1.75,1.919c.558,1.866,1.145,3.722,1.727,5.607.282,0,.551-.011.818,0a1.032,1.032,0,0,1,1.01,1.011c.013,1.7.012,1.117,0,2.816Z" transform="translate(0 -30.819)" fill="#0c38ed" stroke="#0c38ed" stroke-width="0.2"/>
    <path id="Path_219" data-name="Path 219" d="M99.107,48.772a1.425,1.425,0,0,0-.577-1.133,2.291,2.291,0,0,0-.407-.241c-.055-.028-.111-.055-.166-.087a.267.267,0,0,0-.107-.028H89.372a.177.177,0,0,0-.079.016A1.721,1.721,0,0,0,88.1,49.218c.016.229.012.462.008.707q-.006.261,0,.521a1.545,1.545,0,0,0,1.564,1.564q1.967.012,3.933.012t3.933-.012a1.54,1.54,0,0,0,1.564-1.564C99.122,49.874,99.115,49.289,99.107,48.772Zm-4.62,2.1c-1.524,0-3.045,0-4.569,0-.561,0-.671-.111-.671-.667,0-.415,0-.825,0-1.24,0-.387.162-.549.553-.549,1.272,0,2.543,0,3.815,0h3.748c.47,0,.612.142.616.612v1.24c0,.47-.134.6-.616.6Q95.922,50.875,94.486,50.873Z" transform="translate(-24.354 0)" fill="#0c38ed" stroke="#0c38ed" stroke-width="0.2"/>
    <path id="Path_220" data-name="Path 220" d="M95.751,56.738v5.319c0,3.736,0,8.032,0,11.373a2.182,2.182,0,0,1-1.769,2.18,2.3,2.3,0,0,1-.466.036H74.284a2.152,2.152,0,0,1-2.231-2.219c0-8.439,0-11.215,0-19.654a2.144,2.144,0,0,1,2.188-2.227q.569-.012,1.137-.012c.332,0,.663,0,1,0l.505,0a.681.681,0,0,1,.758.659.649.649,0,0,1-.178.478.8.8,0,0,1-.588.217l-2.543,0a.844.844,0,0,0-.924.932c0,8.4,0,11.136,0,19.532a.856.856,0,0,0,.932.932l9.134,0,10,0a.857.857,0,0,0,.932-.936V53.827a.847.847,0,0,0-.932-.928l-2.512,0a.822.822,0,0,1-.616-.221.637.637,0,0,1-.178-.478c.008-.316.221-.656.794-.656l1.422,0c.426,0,.853,0,1.279.016a2.144,2.144,0,0,1,2.089,2.16Z" transform="translate(-14.644 -2.572)" fill="#0c38ed" stroke="#0c38ed" stroke-width="0.2"/>
    <path id="Path_221" data-name="Path 221" d="M82.456,92.232c-.34-.012-.679-.02-1.019-.02s-.679.008-1.023.02a1.429,1.429,0,0,0-1.434,1.426c-.024.746-.024,1.426,0,2.073a1.419,1.419,0,0,0,1.485,1.4l1.6,0,.367,0A1.416,1.416,0,0,0,83.885,95.7c0-.656,0-1.315,0-1.971A1.434,1.434,0,0,0,82.456,92.232Zm.3,3.376c0,.28-.138.4-.411.4-.3,0-.6,0-.908,0H80.5a.324.324,0,0,1-.371-.367c0-.632,0-1.268,0-1.9,0-.257.13-.359.375-.359h1.872a.336.336,0,0,1,.379.391C82.752,94.38,82.756,95,82.756,95.608Z" transform="translate(-18.828 -27.186)" fill="#fff" stroke="#fff" stroke-width="0.2"/>
    <path id="Path_222" data-name="Path 222" d="M107.916,94.465a.7.7,0,0,1-.7.691c-.043,0-.087,0-.13,0H97.641a1.021,1.021,0,0,1-.774-.237.617.617,0,0,1-.17-.47c.012-.446.328-.671.936-.671h9.454c.039,0,.083,0,.122,0A.7.7,0,0,1,107.916,94.465Z" transform="translate(-29.558 -28.136)" fill="#fff" stroke="#fff" stroke-width="0.2"/>
    <path id="Path_223" data-name="Path 223" d="M102.972,100.4a.67.67,0,0,1-.77.675H97.455a.79.79,0,0,1-.584-.217.653.653,0,0,1-.174-.482.673.673,0,0,1,.758-.648H102.2a.8.8,0,0,1,.6.205A.638.638,0,0,1,102.972,100.4Z" transform="translate(-29.558 -31.737)" fill="#fff" stroke="#fff" stroke-width="0.2"/>
    <g id="Group_199" data-name="Group 199" transform="translate(66.563 53.944)">
      <path id="Path_224" data-name="Path 224" d="M101.085,64.888H99.018a2.212,2.212,0,0,1,.827,1.505h1.24a.369.369,0,0,1,.369.369h0a.369.369,0,0,1-.369.369H99.86c-.147,1.506-1.343,2.466-3.233,2.525.924.959,1.914,2.118,2.91,3.324a.549.549,0,0,1-.423.9h0a.55.55,0,0,1-.423-.2c-1.09-1.312-2.131-2.544-3.452-3.949v-.915h.812c1.595,0,2.451-.664,2.554-1.683H95.239v-.738h3.322c-.207-.856-.989-1.284-2.274-1.284H95.239V64.15h5.846a.369.369,0,0,1,.369.369h0A.369.369,0,0,1,101.085,64.888Z" transform="translate(-95.239 -64.15)" fill="#fff" stroke="#fff" stroke-width="0.2"/>
    </g>
  </g>
</svg>
