<svg xmlns="http://www.w3.org/2000/svg" width="45.463" height="40.947" viewBox="0 0 45.463 40.947">
  <g id="Group_203" data-name="Group 203" transform="translate(-32.917 -48.283)">
    <path id="Path_225" data-name="Path 225" d="M56.005,51.869l.052,5.189-2.034.7L54.1,87.148c-.317.271,1.2,1.807.714,1.9a4.376,4.376,0,0,1-.511.067H50.522c-.211,0-.412,0-.609,0H47.392c-2.662,0-4.7,0-11.413.021H35.95c-1.627,0-2.507-.578-2.933-1.93V50.306a2.85,2.85,0,0,1,.852-1.384,2.408,2.408,0,0,1,1.56-.539,3.72,3.72,0,0,1,.511.039c1.736.268,11.339,1.729,12.315,1.877,2.169.331,4.338.659,6.511,1a2.694,2.694,0,0,1,.468.12A2.232,2.232,0,0,1,56.005,51.869Z" transform="translate(0 0)" fill="#50a8ff"/>
    <path id="Path_226" data-name="Path 226" d="M56.005,51.869a2.232,2.232,0,0,0-.771-.447,2.694,2.694,0,0,0-.468-.12c-2.173-.345-4.342-.673-6.511-1-.975-.148-10.579-1.609-12.315-1.877a3.72,3.72,0,0,0-.511-.039,2.408,2.408,0,0,0-1.56.539,2.85,2.85,0,0,0-.852,1.384V87.2c.426,1.352,1.306,1.93,2.933,1.93h.028c6.716-.021,8.751-.021,11.413-.021h2.521c.2,0,.4,0,.609,0H54.3a4.376,4.376,0,0,0,.511-.067,2.489,2.489,0,0,0,1.19-.535,2.3,2.3,0,0,0,.556-.7H55.386l-.134,0-.067,0a.606.606,0,0,1-.3-.081,1.776,1.776,0,0,1-.345.081H50.089a.228.228,0,0,1-.229-.229V84.75c0-1.578,0-3.152,0-4.729a2.36,2.36,0,0,0-1.771-2.472,3.422,3.422,0,0,0-.824-.081q-1.3-.011-2.609-.011-1.062,0-2.131.007A2.389,2.389,0,0,0,39.919,80.1v7.511a.228.228,0,0,1-.229.229H37.429c-.6,0-1.2,0-1.807,0-.937,0-1.324-.384-1.328-1.331V51c0-.324,0-1.317,1.1-1.317a2.384,2.384,0,0,1,.37.032q3.418.5,6.832,1.025l1.606.243,8.279,1.243c.655.1,1.31.2,1.961.31a1.082,1.082,0,0,1,1.046,1.233v3.986h1.3c0-.423,0-.849,0-1.271V53.75A2.448,2.448,0,0,0,56.005,51.869ZM41.226,80.027A1.124,1.124,0,0,1,42.5,78.735h2.43q1.215,0,2.43,0a1.123,1.123,0,0,1,1.222,1.2q.005,2.493,0,4.99v2.5a.5.5,0,0,1-.014.116q-.005.032-.011.074a.231.231,0,0,1-.229.2H41.479a.228.228,0,0,1-.229-.211l-.011-.1c-.007-.106-.014-.208-.014-.31Q41.22,83.612,41.226,80.027Z" transform="translate(0 0)" fill="#0c38ed" stroke="#0c38ed" stroke-width="0.2"/>
    <g id="Group_201" data-name="Group 201" transform="translate(39.461 61.611)">
      <path id="Path_227" data-name="Path 227" d="M53.3,87.227l-.862,0c-.188,0-.375,0-.563,0a.56.56,0,0,1-.559-.586.747.747,0,0,1,.13-.493.459.459,0,0,1,.363-.177q.745-.018,1.491-.018t1.491.018a.458.458,0,0,1,.363.179.743.743,0,0,1,.131.492.561.561,0,0,1-.56.586c-.187,0-.375,0-.563,0Z" transform="translate(-51.317 -85.95)" fill="#0c38ed" stroke="#0c38ed" stroke-width="0.2"/>
      <path id="Path_228" data-name="Path 228" d="M53.3,95.589l-.862,0c-.188,0-.375,0-.563,0A.56.56,0,0,1,51.318,95a.744.744,0,0,1,.131-.493.459.459,0,0,1,.363-.178q.745-.018,1.491-.018t1.491.018a.458.458,0,0,1,.362.179.742.742,0,0,1,.131.493.561.561,0,0,1-.561.585c-.188,0-.375,0-.563,0Z" transform="translate(-51.317 -91.367)" fill="#0c38ed" stroke="#0c38ed" stroke-width="0.2"/>
      <path id="Path_229" data-name="Path 229" d="M53.316,110.319l-.869,0q-.278,0-.556,0a.568.568,0,0,1-.573-.6.723.723,0,0,1,.134-.477.483.483,0,0,1,.38-.178q.732-.016,1.464-.017t1.485.018a.474.474,0,0,1,.374.179.737.737,0,0,1,.133.482.564.564,0,0,1-.547.6c-.187,0-.373,0-.56,0Z" transform="translate(-51.317 -100.909)" fill="#0c38ed" stroke="#0c38ed" stroke-width="0.2"/>
      <path id="Path_230" data-name="Path 230" d="M52.453,118.533q-.285,0-.569,0a.566.566,0,0,1-.566-.611.717.717,0,0,1,.135-.471.491.491,0,0,1,.386-.179q.746-.016,1.493-.017.712,0,1.423.015a.507.507,0,0,1,.4.188.726.726,0,0,1,.13.484.566.566,0,0,1-.587.592q-.282,0-.564,0H53.31Z" transform="translate(-51.318 -106.228)" fill="#0c38ed" stroke="#0c38ed" stroke-width="0.2"/>
      <path id="Path_231" data-name="Path 231" d="M73.916,87.224l-.848,0q-.272,0-.543,0a.562.562,0,0,1-.57-.606.726.726,0,0,1,.135-.474.484.484,0,0,1,.38-.18q.714-.016,1.429-.016.76,0,1.52.017a.579.579,0,0,1,.517.63.588.588,0,0,1-.56.628c-.193,0-.385,0-.577,0Z" transform="translate(-64.686 -85.947)" fill="#0c38ed" stroke="#0c38ed" stroke-width="0.2"/>
      <path id="Path_232" data-name="Path 232" d="M73.939,95.589l-.862,0c-.188,0-.375,0-.563,0A.555.555,0,0,1,71.958,95a.74.74,0,0,1,.13-.492.458.458,0,0,1,.363-.178q.726-.018,1.453-.018.765,0,1.529.018a.474.474,0,0,1,.361.187.7.7,0,0,1,.143.451.589.589,0,0,1-.572.618c-.188,0-.375,0-.563,0Z" transform="translate(-64.688 -91.368)" fill="#0c38ed" stroke="#0c38ed" stroke-width="0.2"/>
      <path id="Path_233" data-name="Path 233" d="M73.069,110.325c-.186,0-.372,0-.559,0a.554.554,0,0,1-.554-.589.742.742,0,0,1,.13-.49.461.461,0,0,1,.366-.177q.721-.017,1.443-.017.77,0,1.54.019a.47.47,0,0,1,.359.187.7.7,0,0,1,.142.453.584.584,0,0,1-.575.616c-.182,0-.364,0-.547,0l-.879,0Z" transform="translate(-64.688 -100.912)" fill="#0c38ed" stroke="#0c38ed" stroke-width="0.2"/>
      <path id="Path_234" data-name="Path 234" d="M73.935,118.533l-.867,0c-.186,0-.372,0-.559,0a.554.554,0,0,1-.553-.59.738.738,0,0,1,.13-.488.464.464,0,0,1,.367-.179q.759-.02,1.519-.019.715,0,1.43.015a.509.509,0,0,1,.393.2.682.682,0,0,1,.139.448.583.583,0,0,1-.575.615q-.281,0-.561,0Z" transform="translate(-64.688 -106.23)" fill="#0c38ed" stroke="#0c38ed" stroke-width="0.2"/>
    </g>
    <path id="Path_235" data-name="Path 235" d="M115.777,77.191a1.95,1.95,0,0,0-.655-1.525q-.713-.666-1.423-1.342c-.736-.694-1.468-1.384-2.212-2.064a6.153,6.153,0,0,0-.792-.6c-.13-.088-.257-.176-.384-.271a.1.1,0,0,0-.053-.018l-13.787.007H92.214A1.985,1.985,0,0,0,90.9,73.532c.025,2.183.014,27.908.014,27.908v.729a2.349,2.349,0,0,0,.067.539,1.6,1.6,0,0,0,1.335,1.233,2.447,2.447,0,0,0,.433.039h3.729l6.937,0q5.251,0,10.5.014h.007a1.823,1.823,0,0,0,1.856-1.87C115.762,92.889,115.769,86.269,115.777,77.191ZM110.269,73.6c0-.243.007-.482.007-.732l4.036,3.807-1.208,0c-.338,0-.666,0-1.007-.007a5.91,5.91,0,0,1-1.032-.07.872.872,0,0,1-.771-.8C110.255,75.074,110.262,74.356,110.269,73.6Zm4.222,28.383c0,.613-.106.725-.711.725H92.887l-.134,0-.067,0a.606.606,0,0,1-.3-.081.465.465,0,0,1-.187-.412c0-.183,0-5.17,0-10.765V73.334c0-.574.106-.683.673-.683h16.069v.75c0,.687,0,1.356,0,2.021a2.412,2.412,0,0,0,2.507,2.518c.4.007.792.007,1.194.007H114.2c.067,0,.134,0,.208.007a.679.679,0,0,0,.085,0Z" transform="translate(-37.5 -14.894)" fill="#0c38ed" stroke="#0c38ed" stroke-width="0.2"/>
    <path id="Path_236" data-name="Path 236" d="M112.109,147.483a.651.651,0,0,1-.418.379,1.553,1.553,0,0,1-.513.074c-.1,0-.2-.007-.294-.011s-.187-.011-.28-.011l-7.508,0q-.52,0-1.041-.011a.635.635,0,0,1-.626-.641.658.658,0,0,1,.6-.63.773.773,0,0,1,.127-.007h.124l3.273,0,1.33,0c.644,0,1.291,0,1.939,0h.159c.492,0,.984,0,1.476-.007.11,0,.219-.007.329-.014s.241-.014.361-.014h.06a1.121,1.121,0,0,1,.669.2A.62.62,0,0,1,112.109,147.483Z" transform="translate(-44.321 -63.633)" fill="#0c38ed" stroke="#0c38ed" stroke-width="0.2"/>
    <path id="Path_237" data-name="Path 237" d="M114.131,138.855a.649.649,0,0,1-.616.651c-.039,0-.078.007-.117.007l-.131,0-11.1,0c-.046,0-.1,0-.142-.007a.673.673,0,0,1-.6-.676.642.642,0,0,1,.623-.6c.057,0,.11,0,.167,0l10.65,0c.209,0,.418,0,.626.007A.618.618,0,0,1,114.131,138.855Z" transform="translate(-44.32 -58.204)" fill="#0c38ed" stroke="#0c38ed" stroke-width="0.2"/>
    <g id="Group_202" data-name="Group 202" transform="translate(57.446 72.002)">
      <path id="Path_238" data-name="Path 238" d="M106.52,120.827a.537.537,0,0,1-.444.838h0a.443.443,0,0,1-.416-.225l-1.266-1.928a.446.446,0,0,0-.156-.154.551.551,0,0,0-.252-.045h-.479v1.816a.537.537,0,0,1-.536.537h-.047a.537.537,0,0,1-.536-.537v-4.947a.536.536,0,0,1,.536-.537h1.3a3.808,3.808,0,0,1,1.051.127,2.02,2.02,0,0,1,.721.356,1.4,1.4,0,0,1,.414.548,1.8,1.8,0,0,1,.133.7,1.825,1.825,0,0,1-.089.575,1.669,1.669,0,0,1-.258.491,1.741,1.741,0,0,1-.416.387,2.088,2.088,0,0,1-.564.262,1.109,1.109,0,0,1,.2.148,1.066,1.066,0,0,1,.167.2Zm-2.314-2.318a1.73,1.73,0,0,0,.552-.079,1.07,1.07,0,0,0,.387-.218.888.888,0,0,0,.227-.331,1.146,1.146,0,0,0,.075-.421.855.855,0,0,0-.3-.7,1.447,1.447,0,0,0-.922-.245h-.18a.537.537,0,0,0-.537.537v.925a.537.537,0,0,0,.537.537Z" transform="translate(-102.387 -115.577)" fill="#0c38ed" stroke="#0c38ed" stroke-width="0.2"/>
      <path id="Path_239" data-name="Path 239" d="M122.438,118.532a3.365,3.365,0,0,1-.219,1.227,2.871,2.871,0,0,1-.618.976,2.8,2.8,0,0,1-.961.643,3.477,3.477,0,0,1-2.494,0,2.831,2.831,0,0,1-.964-.643,2.88,2.88,0,0,1-.622-.976,3.516,3.516,0,0,1,0-2.453,2.88,2.88,0,0,1,.622-.976,2.832,2.832,0,0,1,.964-.643,3.241,3.241,0,0,1,1.245-.231,3.366,3.366,0,0,1,.862.106,3.019,3.019,0,0,1,.741.3,2.738,2.738,0,0,1,.606.47,2.839,2.839,0,0,1,.456.618,3.018,3.018,0,0,1,.285.741A3.529,3.529,0,0,1,122.438,118.532Zm-1.145,0a2.753,2.753,0,0,0-.133-.888,1.9,1.9,0,0,0-.379-.669,1.62,1.62,0,0,0-.6-.42,2.23,2.23,0,0,0-1.586,0,1.646,1.646,0,0,0-.6.42,1.892,1.892,0,0,0-.381.669,3.033,3.033,0,0,0,0,1.777,1.866,1.866,0,0,0,.381.666,1.65,1.65,0,0,0,.6.418,2.23,2.23,0,0,0,1.586,0,1.625,1.625,0,0,0,.6-.418,1.873,1.873,0,0,0,.379-.666A2.754,2.754,0,0,0,121.293,118.532Z" transform="translate(-111.425 -115.455)" fill="#0c38ed" stroke="#0c38ed" stroke-width="0.2"/>
      <path id="Path_240" data-name="Path 240" d="M139.952,120.122a.225.225,0,0,1,.162.071l.09.1a.529.529,0,0,1-.041.769,2.439,2.439,0,0,1-.509.307,3.106,3.106,0,0,1-1.284.242,3.039,3.039,0,0,1-1.205-.229,2.656,2.656,0,0,1-.914-.637,2.782,2.782,0,0,1-.581-.974,3.654,3.654,0,0,1-.2-1.236,3.442,3.442,0,0,1,.217-1.243,2.854,2.854,0,0,1,.61-.972,2.759,2.759,0,0,1,.939-.635,3.111,3.111,0,0,1,1.207-.227,2.966,2.966,0,0,1,1.168.217,3.078,3.078,0,0,1,.4.207.541.541,0,0,1,.161.778l-.073.1a.342.342,0,0,1-.085.088.245.245,0,0,1-.144.037.27.27,0,0,1-.129-.035c-.044-.024-.093-.052-.146-.087s-.114-.073-.183-.114a1.453,1.453,0,0,0-.241-.114,1.99,1.99,0,0,0-.319-.088,2.23,2.23,0,0,0-.418-.035,1.862,1.862,0,0,0-.739.143,1.609,1.609,0,0,0-.577.417,1.924,1.924,0,0,0-.375.666,2.792,2.792,0,0,0-.133.9,2.635,2.635,0,0,0,.144.9,1.986,1.986,0,0,0,.389.666,1.654,1.654,0,0,0,.579.414,1.788,1.788,0,0,0,.716.144,3.138,3.138,0,0,0,.414-.025,1.793,1.793,0,0,0,.342-.079,1.522,1.522,0,0,0,.3-.139,1.87,1.87,0,0,0,.277-.211.408.408,0,0,1,.087-.06A.214.214,0,0,1,139.952,120.122Z" transform="translate(-123.819 -115.455)" fill="#0c38ed" stroke="#0c38ed" stroke-width="0.2"/>
    </g>
  </g>
</svg>
