<svg xmlns="http://www.w3.org/2000/svg" width="47.484" height="40.747" viewBox="0 0 47.484 40.747">
  <g id="Group_198" data-name="Group 198" transform="translate(-39.256 -47.614)">
    <path id="Path_203" data-name="Path 203" d="M86.113,68.157l.506,0-.14,4.872h-1.21l.128-3.646-9.339.039-.56.16a.1.1,0,0,1-.043.027L72.4,70.6c-.412.132-.459.233-.323.658l.572,1.77h-4.2a4.773,4.773,0,0,0-1.953-.6,2.362,2.362,0,0,0-.7.105,14.511,14.511,0,0,0-1.381.494H61.681l.28-.175c.148-.093.292-.183.44-.28a4.213,4.213,0,0,0-1.556-.377,2.3,2.3,0,0,0-.813.148,8.079,8.079,0,0,0-1.319.611c-.043.027-.082.051-.125.074H54.895l.572-1.774c.019-.07.039-.14.054-.2l.019-.07c-.008-.187-.1-.292-.346-.374-.607-.191-1.214-.389-1.821-.584-.1-.031-.195-.066-.3-.1-.315-.105-.634-.206-.953-.307H41.455l.109,3.4h-1.21L40.237,68.4h.56l-.35-17.771a1.643,1.643,0,0,1,1.58-1.5H85.281a1.466,1.466,0,0,1,1.467,1.521Z" transform="translate(-0.599 -0.928)" fill="#ff9401"/>
    <g id="Group_191" data-name="Group 191" transform="translate(48.043 67.474)">
      <path id="Path_204" data-name="Path 204" d="M91.846,109.136s0-.008-.008-.012a.114.114,0,0,0-.066-.023.049.049,0,0,0-.023,0c-.008,0-.012,0-.016,0-1.1.377-2.179.724-3.292,1.07a.432.432,0,0,1-.132.023c-.093,0-.237-.039-.342-.366-.331-1.019-.658-2.031-.988-3.051l-1.132-3.51-.572-1.77c-.136-.424-.09-.525.323-.658l3.055-.992a.118.118,0,0,0,.074-.14l-.292-.984a.109.109,0,0,0-.058-.066.029.029,0,0,0-.019,0h-.008a.033.033,0,0,0-.027-.008.108.108,0,0,0-.035,0c-.183.054-.37.117-.553.179l-.07.023c-.852.268-1.7.549-2.553.829a1.579,1.579,0,0,0-1.066,2.09l.179.58a3.086,3.086,0,0,1-.938.179,1.752,1.752,0,0,1-.988-.307,4.308,4.308,0,0,0-2.4-.809,3.312,3.312,0,0,0-.389.023,7.513,7.513,0,0,0-1.4.358c-.245.074-.486.156-.728.222a.753.753,0,0,1-.191.023.683.683,0,0,1-.21-.031c-.272-.089-.533-.187-.8-.288a9.48,9.48,0,0,0-1.545-.479,3.317,3.317,0,0,0-.65-.066,4.874,4.874,0,0,0-2.6.883,1.487,1.487,0,0,1-.837.241,3.156,3.156,0,0,1-.786-.125l.09-.268a1.817,1.817,0,0,0-.027-1.416,1.837,1.837,0,0,0-1.136-.856l-2.965-.957a.107.107,0,0,0-.035,0,.139.139,0,0,0-.039.008.1.1,0,0,0-.066.062L65.2,99.7a.111.111,0,0,0,0,.093.122.122,0,0,0,.066.058c.016,0,.031.012.047.016.319.1.638.2.953.307.1.031.2.066.3.1.607.195,1.214.393,1.821.584.245.082.339.187.346.374l-.019.07c-.016.058-.035.128-.054.2l-.572,1.774q-1.056,3.263-2.109,6.521c-.109.331-.206.4-.35.4a1.108,1.108,0,0,1-.315-.066c-1.016-.331-2.035-.658-3.051-.992h0a.076.076,0,0,0-.031,0,.124.124,0,0,0-.054.012.131.131,0,0,0-.058.07l-.039.136-.237.852a.117.117,0,0,0,.074.14l.035.012.047.016.327.105c.136.047.276.089.412.136q1.074.35,2.148.685a3.353,3.353,0,0,0,.537.105,2.93,2.93,0,0,1,.311.043.4.4,0,0,1,.117.027c.14.179.268.362.4.549l.1.144-.214.323c-.21.307-.416.611-.619.926a1.887,1.887,0,0,0-.323,1.4A1.992,1.992,0,0,0,67.02,116.5a2.032,2.032,0,0,0,.553,1.444,2.011,2.011,0,0,0,1.447.623,2.2,2.2,0,0,0,1.237-.4,1.973,1.973,0,0,0,1.381,1.043,2.028,2.028,0,0,0,.4.043,2.055,2.055,0,0,0,1.288-.49,1.735,1.735,0,0,0,1.459.774h.054a1.76,1.76,0,0,0,1.455-.86l.311.163c.292.156.572.307.86.447a1.9,1.9,0,0,0,2.669-1.156,1.976,1.976,0,0,0,.078-.366.292.292,0,0,0,.016-.062h.047a2.217,2.217,0,0,0,2.327-2.195c.086.008.179.008.261.008A2.134,2.134,0,0,0,84.27,115a2.2,2.2,0,0,0,.763-1.611,3.168,3.168,0,0,0,.377.023,2.066,2.066,0,0,0,1.432-.518,2.094,2.094,0,0,0,.735-1.634,1.647,1.647,0,0,0,.739.171,2.609,2.609,0,0,0,.852-.163c.6-.214,1.284-.444,1.988-.658.2-.066.4-.125.611-.179a.063.063,0,0,0,.027-.016.1.1,0,0,0,.047-.062.073.073,0,0,0,.008-.031l.035-1.105A.1.1,0,0,0,91.846,109.136ZM66.67,115.214a.829.829,0,0,1-.249-1.093,10.878,10.878,0,0,1,.852-1.249,2,2,0,0,1,.588-.362.873.873,0,0,1,.786,1.249,9.96,9.96,0,0,1-.872,1.311A.8.8,0,0,1,66.67,115.214Zm2.689,2.132a.714.714,0,0,1-.9-.14.732.732,0,0,1-.206-.911,14.33,14.33,0,0,1,.938-1.412.767.767,0,0,1,.926-.175.867.867,0,0,1,.494.9A4.232,4.232,0,0,1,69.359,117.346Zm4.144-.8a10.978,10.978,0,0,1-.844,1.249,2.019,2.019,0,0,1-.584.37.884.884,0,0,1-.79-1.28,12.569,12.569,0,0,1,.84-1.253.8.8,0,0,1,1.1-.187A.81.81,0,0,1,73.5,116.548Zm2.362.712c-.187.3-.377.58-.58.864a.592.592,0,0,1-.852.179.582.582,0,0,1-.14-.833c.2-.319.412-.634.634-.938a.553.553,0,0,1,.673-.187.587.587,0,0,1,.374.638A1.445,1.445,0,0,1,75.865,117.26Zm2.852.84a.633.633,0,0,1-.389.148h0a.687.687,0,0,1-.288-.074c-.265-.128-.529-.268-.8-.412l-.265-.144a1.721,1.721,0,0,0-.016-1.486c.008,0,.012,0,.016.008.167.093.339.179.51.268.354.183.72.374,1.062.588a1.015,1.015,0,0,1,.393.506A.521.521,0,0,1,78.717,118.1Zm7.576-6.576a.854.854,0,0,1-.844.634,1.022,1.022,0,0,1-.5-.128c-.821-.432-1.646-.868-2.467-1.307l-.214-.113-.883-.471a1.651,1.651,0,0,0-.2-.105.7.7,0,0,0-.3-.07.6.6,0,0,0-.545.346.655.655,0,0,0-.074.3.629.629,0,0,0,.339.525c.148.086.3.167.455.249l.837.44c.463.249.926.494,1.381.739a.867.867,0,0,1,.479.911.823.823,0,0,1-.591.739.864.864,0,0,1-.3.054,1.111,1.111,0,0,1-.525-.148q-.852-.461-1.712-.914l-.72-.381c-.054-.031-.105-.062-.163-.089a.892.892,0,0,0-.319-.07.618.618,0,0,0-.253,1.175c.28.16.56.307.848.455.261.14.529.284.79.428a.9.9,0,0,1,.506.949.9.9,0,0,1-.879.763,1.06,1.06,0,0,1-.482-.125c-.389-.2-.774-.409-1.16-.611s-.77-.412-1.156-.611a.951.951,0,0,0-.412-.132.28.28,0,0,0-.128.023.95.95,0,0,0-.467.479.494.494,0,0,0-.031.21,1.622,1.622,0,0,0-1.171-.51,2.032,2.032,0,0,0-.833.191,2.059,2.059,0,0,0-1.817-1.175,2.1,2.1,0,0,0-1.2.389c-.054-.058-.105-.117-.156-.175a2.953,2.953,0,0,0-.556-.545,2.916,2.916,0,0,0-.716-.315l-.265-.093a.429.429,0,0,1-.008-.07,2.833,2.833,0,0,0-.066-.436,1.941,1.941,0,0,0-1.911-1.5,1.785,1.785,0,0,0-.249.016c-.019,0-.039,0-.058,0-.2,0-.315-.144-.455-.311a.883.883,0,0,0-.105-.128c-.1-.113-.109-.2-.047-.4.008-.016.012-.031.019-.051.268-.716.506-1.451.735-2.167l.163-.494c.346-1.062.693-2.125,1.035-3.195l.424-1.3.23.039c.237.043.471.082.7.113a3.291,3.291,0,0,0,.339.019,2.312,2.312,0,0,0,1.144-.3c.043-.023.082-.047.125-.074a8.078,8.078,0,0,1,1.319-.611,2.3,2.3,0,0,1,.813-.148,4.213,4.213,0,0,1,1.556.377c-.148.1-.292.187-.44.28l-.28.175a12.335,12.335,0,0,0-1.1.767c-.553.447-1.082.942-1.6,1.42-.222.214-.447.424-.677.634a.619.619,0,0,0-.171.767l.1.2a6.85,6.85,0,0,0,.673,1.152,1.831,1.831,0,0,0,1.5.805,2.529,2.529,0,0,0,.79-.14l1.7-.56q1.541-.514,3.086-1.016a.907.907,0,0,1,.241-.031.884.884,0,0,1,.23.027,19.318,19.318,0,0,1,6.144,3.132,1.811,1.811,0,0,1,.206.175A.919.919,0,0,1,86.293,111.525Zm-.222-2.428c-.5-.327-.988-.65-1.483-.957a18.037,18.037,0,0,0-4.833-2.113,1.432,1.432,0,0,0-.346-.039,1.255,1.255,0,0,0-.389.054c-1.218.389-2.428.79-3.642,1.195l-1.175.389a2.038,2.038,0,0,1-.58.117c-.307,0-.506-.16-.79-.646-.222-.374-.222-.374.078-.677A14.581,14.581,0,0,1,79,102.781a2.361,2.361,0,0,1,.7-.105,4.773,4.773,0,0,1,1.953.6.856.856,0,0,1,.125.082,2.29,2.29,0,0,0,1.4.444,4.68,4.68,0,0,0,.953-.117c.125-.027.245-.062.381-.1l.109-.027,1.887,5.829C86.363,109.291,86.211,109.19,86.071,109.1Z" transform="translate(-61.837 -98.653)" fill="#0c38ed"/>
      <path id="Path_205" data-name="Path 205" d="M75.188,105.537a.613.613,0,0,1-.16.455.621.621,0,0,1-.447.2h-.016a.591.591,0,0,1-.611-.58.6.6,0,0,1,.163-.463.575.575,0,0,1,.428-.195A.633.633,0,0,1,75.188,105.537Z" transform="translate(-69.239 -102.502)" fill="#0c38ed"/>
      <path id="Path_206" data-name="Path 206" d="M74.727,105.242a.516.516,0,0,1,.521.48.5.5,0,0,1-.492.532.484.484,0,0,1-.516-.472A.5.5,0,0,1,74.727,105.242Z" transform="translate(-69.414 -102.678)" fill="#0c38ed"/>
      <path id="Path_207" data-name="Path 207" d="M125.5,105.407a.617.617,0,0,1-.63.6h-.023a.619.619,0,0,1,.019-1.237.649.649,0,0,1,.455.195A.584.584,0,0,1,125.5,105.407Z" transform="translate(-99.963 -102.392)" fill="#0c38ed"/>
      <path id="Path_208" data-name="Path 208" d="M125.563,105.585a.51.51,0,0,1-.538.494.5.5,0,0,1-.482-.511.5.5,0,0,1,.5-.5A.52.52,0,0,1,125.563,105.585Z" transform="translate(-100.143 -102.573)" fill="#0c38ed"/>
    </g>
    <g id="Group_192" data-name="Group 192" transform="translate(73.868 67.225)">
      <path id="Path_209" data-name="Path 209" d="M140.359,98.013l-.14,4.872-.2,7.078-7.677.062H132.3l0-1.311v0h.023l6.483.035.21-5.86.128-3.646-9.339.039-.56.16-.7.2-.331-1.167v0l.07-.019.615-.175h.008l.724-.21,10.23-.043Z" transform="translate(-128.207 -98.013)" fill="#0c38ed"/>
    </g>
    <g id="Group_193" data-name="Group 193" transform="translate(39.638 67.474)">
      <path id="Path_210" data-name="Path 210" d="M53.463,99.023l-.385,1.156-.922-.307h-10.7l.109,3.4.187,5.86,7.315-.008v.008l-.2,1.233H48.8l-8.269-.016-.179-7.078-.117-4.623H52.354l.1.035Z" transform="translate(-40.237 -98.653)" fill="#0c38ed"/>
    </g>
    <g id="Group_195" data-name="Group 195" transform="translate(52.168 53.384)">
      <g id="Group_194" data-name="Group 194" transform="translate(0 1.819)">
        <path id="Path_211" data-name="Path 211" d="M83.034,76.181l-3.59-6.155L73.6,74.446a.724.724,0,0,1-.874-1.155l7.145-5.406L83.4,73.928l7.518-6.63a.724.724,0,0,1,.958,1.086Z" transform="translate(-72.44 -67.117)" fill="#fff"/>
      </g>
      <path id="Path_212" data-name="Path 212" d="M113.183,63.948c-.2-.05-.33-.07-.451-.116a.671.671,0,0,1-.461-.744.639.639,0,0,1,.639-.645,19.627,19.627,0,0,1,2.3.132.663.663,0,0,1,.554.766c-.036.647-.074,1.294-.123,1.94a.74.74,0,0,1-.719.772c-.422.009-.7-.284-.746-.788,0-.054-.006-.109-.013-.251-.641.569-4.354,3.886-4.936,4.4-.413.364-.805.378-1.114.049s-.266-.755.156-1.133C108.841,67.818,112.551,64.51,113.183,63.948Z" transform="translate(-94.106 -62.443)" fill="#fff"/>
    </g>
    <path id="Path_213" data-name="Path 213" d="M110.32,127.9l.884.469h-2a.652.652,0,0,1,.072-.3.6.6,0,0,1,.545-.347.722.722,0,0,1,.3.068A2.093,2.093,0,0,1,110.32,127.9Z" transform="translate(-42.727 -48.939)" fill="#0c38ed"/>
    <g id="Group_197" data-name="Group 197" transform="translate(39.256 47.614)">
      <g id="Group_196" data-name="Group 196">
        <path id="Path_214" data-name="Path 214" d="M44.572,79.178H39.84l-.584-29.5,0-.039a2.226,2.226,0,0,1,2.167-2.022H84.681a2.057,2.057,0,0,1,2.057,2.135L85.675,79.166H81.81V77.984h2.726l1.022-28.279a.875.875,0,0,0-.876-.909H41.428a1.056,1.056,0,0,0-.988.939L41,78h3.572Z" transform="translate(-39.256 -47.614)" fill="#0c38ed"/>
      </g>
    </g>
    <path id="Path_215" data-name="Path 215" d="M125.317,104.968a.584.584,0,0,1,.179.44.617.617,0,0,1-.63.6h-.023a.619.619,0,0,1,.019-1.237A.649.649,0,0,1,125.317,104.968Z" transform="translate(-51.92 -34.918)" fill="#0c38ed"/>
    <path id="Path_216" data-name="Path 216" d="M75.188,105.537a.613.613,0,0,1-.16.455.621.621,0,0,1-.447.2h-.016a.591.591,0,0,1-.611-.58.6.6,0,0,1,.163-.463.575.575,0,0,1,.428-.195A.633.633,0,0,1,75.188,105.537Z" transform="translate(-21.196 -35.028)" fill="#0c38ed"/>
  </g>
</svg>
