<svg xmlns="http://www.w3.org/2000/svg" width="55.162" height="38.596" viewBox="0 0 55.162 38.596">
  <g id="Group_205" data-name="Group 205" transform="translate(-26.526 -48.643)">
    <path id="Path_249" data-name="Path 249" d="M39.557,52.558V81.538H41.4q6.416,0,12.827,0h.007a1.053,1.053,0,0,1,1.064.625,3,3,0,0,0,.865,1.041H68.227a3.2,3.2,0,0,0,.891-1.082.9.9,0,0,1,.869-.588q6.753.011,13.513.007h1.165v-29.3a4.811,4.811,0,0,0-2.079-1.992H41.8Z" transform="translate(-8.088 -0.938)" fill="#ff9401"/>
    <path id="Path_250" data-name="Path 250" d="M80.685,79.237h-.094c-.4.019-.79.022-1.191.022-.292,0-.584,0-.876,0s-.588-.007-.888-.007a.413.413,0,0,1-.412-.412V71.188q.006-8.635,0-17.273a5.4,5.4,0,0,0-.648-2.618A4.811,4.811,0,0,0,74.5,49.3a5.438,5.438,0,0,0-2.464-.562H36.087a4.473,4.473,0,0,0-.8.049,5.876,5.876,0,0,0-1.573.513,4.758,4.758,0,0,0-2.243,2.315,5.616,5.616,0,0,0-.483,2.345V78.836a.411.411,0,0,1-.412.412H28.683c-.423,0-.839,0-1.255,0-.569,0-.794.225-.8.8a7.018,7.018,0,0,0,2.067,4.94,7.154,7.154,0,0,0,5.022,2.146q9.758,0,19.516,0,10.612,0,21.232,0a7.135,7.135,0,0,0,6.693-4.756c.12-.341.213-.693.307-1.067.041-.154.079-.307.124-.461V79.7A.913.913,0,0,0,80.685,79.237ZM32.338,54.125a3.745,3.745,0,0,1,4.037-4.034h35.46a3.745,3.745,0,0,1,4.037,4.034l0,24.711a.413.413,0,0,1-.412.412H60.993c-.828,0-.9.056-1.045.861a1.513,1.513,0,0,1-1.539,1.311c-1.446.007-2.888.011-4.333.011q-2.14,0-4.273-.011a1.516,1.516,0,0,1-1.547-1.374c-.1-.678-.243-.8-.925-.8H32.75a.411.411,0,0,1-.412-.412ZM75.4,85.675a8.937,8.937,0,0,1-1.307.1q-12.241.006-24.486.007l-15.49,0a5.887,5.887,0,0,1-5.843-4.067,4.02,4.02,0,0,1-.1-.393l-.045-.187a.414.414,0,0,1,.067-.348.43.43,0,0,1,.311-.165l.176-.007c.124-.007.24-.015.352-.015h4.273q6.416,0,12.827,0h.007a1.053,1.053,0,0,1,1.064.625,3,3,0,0,0,.865,1.041,2.742,2.742,0,0,0,1.67.513c1.464,0,2.933.007,4.4.007q2.157,0,4.315-.007a2.785,2.785,0,0,0,1.682-.513,3.2,3.2,0,0,0,.891-1.082.9.9,0,0,1,.869-.588q6.753.011,13.513.007h1.165l2.858,0a1.033,1.033,0,0,1,.213.022l.052.007a.408.408,0,0,1,.352.457A5.733,5.733,0,0,1,75.4,85.675Z" transform="translate(0)" fill="#0c38ed" stroke="#0c38ed" stroke-width="0.2"/>
    <path id="Path_251" data-name="Path 251" d="M74.093,85.079a.916.916,0,0,0-.618-.15h-4.5a.413.413,0,0,1-.412-.412V82.8c0-.97,0-1.944,0-2.914,0-.449-.172-.625-.637-.625a7.6,7.6,0,0,0-1.019.09,6.291,6.291,0,0,0-5.052,6.835,6.21,6.21,0,0,0,6.2,5.468,7.155,7.155,0,0,0,1.09-.082,6.229,6.229,0,0,0,5.09-5.9A.874.874,0,0,0,74.093,85.079ZM68.007,90.6A5.18,5.18,0,0,1,62.9,85.66a5.057,5.057,0,0,1,4.15-5.176.127.127,0,0,1,.037,0,.4.4,0,0,1,.277.109.4.4,0,0,1,.135.3v4.341c0,.625.135.76.753.76h4.341a.414.414,0,0,1,.3.127.42.42,0,0,1,.109.307C72.872,88.574,70.46,90.6,68.007,90.6Z" transform="translate(-21.999 -19.09)" fill="#0c38ed" stroke="#0c38ed" stroke-width="0.2"/>
    <path id="Path_252" data-name="Path 252" d="M83.957,79.294c-.531,0-.693-.159-.694-.672q0-2.712,0-5.425c0-.46.174-.633.636-.637h.051A6.221,6.221,0,0,1,89.9,77.625a7.555,7.555,0,0,1,.093,1.11.505.505,0,0,1-.566.557q-.578.006-1.156,0Z" transform="translate(-35.424 -14.897)" fill="#fff" stroke="#fff" stroke-width="0.2"/>
    <path id="Path_253" data-name="Path 253" d="M113.036,80.309a.778.778,0,0,1-.552-.173.494.494,0,0,1-.124-.368c.005-.345.227-.52.66-.521h3.787l4.092,0c.3,0,.649.091.652.525a.5.5,0,0,1-.13.368.7.7,0,0,1-.508.168l-1.633,0Z" transform="translate(-53.624 -19.079)" fill="#fff" stroke="#fff" stroke-width="0.2"/>
    <path id="Path_254" data-name="Path 254" d="M113.018,90.408c-.433,0-.654-.177-.658-.522a.493.493,0,0,1,.124-.367.77.77,0,0,1,.554-.173h7.832a.787.787,0,0,1,.558.173.489.489,0,0,1,.124.364c0,.13-.005.524-.7.525l-6.153,0Z" transform="translate(-53.624 -25.396)" fill="#fff" stroke="#fff" stroke-width="0.2"/>
    <path id="Path_255" data-name="Path 255" d="M113.021,100.5c-.434,0-.655-.176-.661-.521a.5.5,0,0,1,.124-.369.769.769,0,0,1,.552-.172h7.832a.794.794,0,0,1,.56.173.49.49,0,0,1,.124.363c0,.13,0,.525-.7.527h-7.831Z" transform="translate(-53.624 -31.711)" fill="#fff" stroke="#fff" stroke-width="0.2"/>
    <path id="Path_256" data-name="Path 256" d="M113.044,110.6a.783.783,0,0,1-.56-.173.49.49,0,0,1-.124-.363c0-.13,0-.525.7-.526h7.784c.7,0,.706.378.708.52a.484.484,0,0,1-.119.364.861.861,0,0,1-.6.179h-7.784Z" transform="translate(-53.624 -38.026)" fill="#fff" stroke="#fff" stroke-width="0.2"/>
  </g>
</svg>
