<svg xmlns="http://www.w3.org/2000/svg" width="43.098" height="29.888" viewBox="0 0 43.098 29.888">
  <g id="Group_229" data-name="Group 229" transform="translate(-57.505 -521)">
    <g id="Group_227" data-name="Group 227" transform="translate(81.785 521.49)">
      <path id="Path_241" data-name="Path 241" d="M99.2,50.92l-1.675-1.567H83.113a.893.893,0,0,0-.894.891V76.268a.893.893,0,0,0,.894.891H98.86a.893.893,0,0,0,.894-.891V51.44C99.569,51.269,99.384,51.1,99.2,50.92Zm-2.644-.739c0-.172.006-.338.006-.512,0,0,2.256,2.126,2.821,2.661l-.844,0c-.235,0-.465,0-.7-.006a4.172,4.172,0,0,1-.723-.05.609.609,0,0,1-.54-.556C96.546,51.211,96.551,50.71,96.557,50.181Z" transform="translate(-81.693 -48.363)" fill="#50a8ff"/>
      <path id="Path_245" data-name="Path 245" d="M99.034,50.79a1.363,1.363,0,0,0-.457-1.066c-.066-.061-.13-.122-.2-.185-.186-.172-.371-.343-.554-.52-.083-.075-.163-.155-.246-.233-.476-.448-.95-.9-1.429-1.334l-.116-.108a4.4,4.4,0,0,0-.554-.418c-.091-.064-.18-.125-.269-.191a.064.064,0,0,0-.039-.011l-10.96,0H81.238a1.392,1.392,0,0,0-.919,1.506c0,.183.006.695.006,1.451,0,.443,0,.969,0,1.561,0,1.143,0,2.536,0,4.067,0,.509,0,1.035,0,1.57,0,3.032,0,6.406,0,9.355V67.8c0,1.595,0,3,0,4.067v2.619a1.611,1.611,0,0,0,.047.377,1.123,1.123,0,0,0,.933.861,1.528,1.528,0,0,0,.3.028H84.22l4.85,0c2.447,0,6.215,0,8.663.011h.006a1.277,1.277,0,0,0,1.3-1.307C99.023,68,99.028,57.138,99.034,50.79Zm-.9.537V74.356c0,.429-.072.507-.5.507H81.709l-.094,0-.047,0a.442.442,0,0,1-.21-.055.331.331,0,0,1-.13-.288c0-.028,0-.432,0-1.094,0-.424,0-.955,0-1.559,0-1.157,0-2.586,0-4.061V66.241c0-2.1,0-4.133,0-5.482V48.093c0-.4.072-.479.471-.479H94.253v.526c0,.479,0,.947,0,1.412a1.684,1.684,0,0,0,1.752,1.761c.277.006.554.006.833.006h1.091c.047,0,.091,0,.144.006A.407.407,0,0,0,98.134,51.327Zm-.125-.9-.844,0c-.235,0-.465,0-.7-.006a4.171,4.171,0,0,1-.723-.05.609.609,0,0,1-.54-.556c-.028-.509-.022-1.011-.017-1.539,0-.172.006-.338.006-.512C95.188,47.767,97.445,49.893,98.009,50.427Z" transform="translate(-80.319 -46.461)" fill="#0c38ed" stroke="#0c38ed" stroke-width="0.2"/>
      <path id="Path_246" data-name="Path 246" d="M104.332,125.719a.455.455,0,0,1-.292.265,1.088,1.088,0,0,1-.359.052c-.069,0-.138-.005-.205-.007s-.131-.007-.2-.007l-7.647,0q-.364,0-.728-.007a.444.444,0,0,1-.438-.448.46.46,0,0,1,.421-.44.532.532,0,0,1,.089,0h.087l2.288,0,.93,0,1.356,0h.111c.344,0,3.084,0,3.428,0,.077,0,.153,0,.23-.01s.168-.01.252-.01h.042a.781.781,0,0,1,.468.141A.434.434,0,0,1,104.332,125.719Z" transform="translate(-90.552 -103.143)" fill="#0c38ed" stroke="#0c38ed" stroke-width="0.2"/>
      <path id="Path_247" data-name="Path 247" d="M102.205,133.792a.376.376,0,0,1-.124.174.725.725,0,0,1-.4.137,5.2,5.2,0,0,1-.529,0c-.265-.007-.532-.01-.8-.01H95.634q-.364,0-.728-.007a.444.444,0,0,1-.438-.448.46.46,0,0,1,.421-.44.531.531,0,0,1,.089,0h.087l2.288,0,.93,0,1.356,0h.111c.3,0,.6,0,.9,0s.589-.033.884-.023a.926.926,0,0,1,.463.119A.439.439,0,0,1,102.205,133.792Z" transform="translate(-90.552 -108.98)" fill="#0c38ed" stroke="#0c38ed" stroke-width="0.2"/>
      <path id="Path_248" data-name="Path 248" d="M105.748,117.579a.453.453,0,0,1-.43.455c-.027,0-.054,0-.082,0l-.091,0-10.155,0c-.032,0-.067,0-.1,0a.471.471,0,0,1-.421-.473.448.448,0,0,1,.435-.418c.04,0,.077,0,.116,0l9.844,0c.146,0,.292,0,.438,0A.432.432,0,0,1,105.748,117.579Z" transform="translate(-90.552 -97.382)" fill="#0c38ed" stroke="#0c38ed" stroke-width="0.2"/>
      <text id="_" data-name="?" transform="translate(3.215 16.51)" fill="#0c38ed" font-size="17" font-family="Lato-Medium, Lato" font-weight="500"><tspan x="0" y="0">?</tspan></text>
    </g>
    <path id="Icon_ionic-ios-globe" data-name="Icon ionic-ios-globe" d="M15.512,3.375h-.041a12.137,12.137,0,0,0,.006,24.274h.041a12.137,12.137,0,1,0-.006-24.274ZM26.027,14.7H21.5a22.979,22.979,0,0,0-.572-4.446,17.776,17.776,0,0,0,2.9-1.225A10.454,10.454,0,0,1,26.027,14.7ZM14.7,14.7H11.089a20.741,20.741,0,0,1,.513-4.032,17.753,17.753,0,0,0,3.093.414Zm0,1.634v3.612a17.828,17.828,0,0,0-3.093.414,20.738,20.738,0,0,1-.513-4.026Zm1.634,0h3.577a20.619,20.619,0,0,1-.513,4.02,17.417,17.417,0,0,0-3.063-.408Zm0-1.634V11.077a17.828,17.828,0,0,0,3.063-.408,20.68,20.68,0,0,1,.513,4.026Zm6.384-6.88a16.21,16.21,0,0,1-2.217.9,12.048,12.048,0,0,0-1.546-3.18A10.559,10.559,0,0,1,22.713,7.816ZM18.955,9.14a16.422,16.422,0,0,1-2.626.35V5.207A7.07,7.07,0,0,1,18.955,9.14ZM14.7,5.184v4.3a16.139,16.139,0,0,1-2.655-.356A7.067,7.067,0,0,1,14.7,5.184Zm-2.661.373A12.143,12.143,0,0,0,10.5,8.714a16.575,16.575,0,0,1-2.188-.9A10.4,10.4,0,0,1,12.034,5.557ZM7.2,9.029a17.424,17.424,0,0,0,2.871,1.214A22.053,22.053,0,0,0,9.5,14.689H5A10.4,10.4,0,0,1,7.2,9.029ZM5,16.329H9.49a22.92,22.92,0,0,0,.572,4.446,18.487,18.487,0,0,0-2.871,1.214A10.456,10.456,0,0,1,5,16.329Zm3.309,6.88a16.331,16.331,0,0,1,2.194-.9,12.187,12.187,0,0,0,1.535,3.163A10.66,10.66,0,0,1,8.306,23.209ZM12.04,21.89a16.223,16.223,0,0,1,2.655-.356v4.306C13.692,25.31,12.717,23.862,12.04,21.89Zm4.289,3.927V21.528a16.422,16.422,0,0,1,2.626.35A7.067,7.067,0,0,1,16.329,25.817Zm2.626-.333A12.048,12.048,0,0,0,20.5,22.3a15.944,15.944,0,0,1,2.217.91A10.68,10.68,0,0,1,18.955,25.485ZM23.827,22a17.776,17.776,0,0,0-2.9-1.225,22.859,22.859,0,0,0,.572-4.441h4.528A10.408,10.408,0,0,1,23.827,22Z" transform="translate(54.13 523.138)" fill="#0c38ed"/>
  </g>
</svg>
