<svg xmlns="http://www.w3.org/2000/svg" width="43.098" height="29.891" viewBox="0 0 43.098 29.891">
  <g id="Group_230" data-name="Group 230" transform="translate(-57.505 -475)">
    <path id="Path_241" data-name="Path 241" d="M99.2,50.92l-1.675-1.567H83.113a.893.893,0,0,0-.894.891V76.269a.893.893,0,0,0,.894.891H98.86a.893.893,0,0,0,.894-.891V51.44C99.569,51.269,99.384,51.1,99.2,50.92Zm-2.644-.739c0-.172.006-.338.006-.512,0,0,2.256,2.126,2.821,2.661l-.844,0c-.235,0-.465,0-.7-.006a4.172,4.172,0,0,1-.723-.05.609.609,0,0,1-.54-.556C96.546,51.211,96.551,50.71,96.557,50.181Z" transform="translate(0.092 427.13)" fill="#ff9401"/>
    <path id="Path_245" data-name="Path 245" d="M99.034,50.79a1.363,1.363,0,0,0-.457-1.066c-.066-.061-.13-.122-.2-.185-.186-.172-.371-.343-.554-.52-.083-.075-.163-.155-.246-.233-.476-.448-.95-.9-1.429-1.334l-.116-.108a4.4,4.4,0,0,0-.554-.418c-.091-.064-.18-.125-.269-.191a.064.064,0,0,0-.039-.011l-10.96,0H81.238a1.392,1.392,0,0,0-.919,1.506c0,.183.006.695.006,1.451,0,.443,0,.969,0,1.561,0,1.143,0,2.536,0,4.067,0,.509,0,1.035,0,1.57,0,3.032,0,6.406,0,9.355V67.8c0,1.595,0,3,0,4.067v2.619a1.611,1.611,0,0,0,.047.377,1.123,1.123,0,0,0,.933.861,1.528,1.528,0,0,0,.3.028H84.22l4.85,0c2.447,0,6.215,0,8.663.011h.006a1.277,1.277,0,0,0,1.3-1.307C99.023,68,99.028,57.138,99.034,50.79Zm-.9.537V74.356c0,.429-.072.507-.5.507H81.709l-.094,0-.047,0a.442.442,0,0,1-.21-.055.331.331,0,0,1-.13-.288c0-.028,0-.432,0-1.094,0-.424,0-.955,0-1.559,0-1.157,0-2.586,0-4.061V66.241c0-2.1,0-4.133,0-5.482V48.093c0-.4.072-.479.471-.479H94.253v.526c0,.479,0,.947,0,1.412a1.684,1.684,0,0,0,1.752,1.761c.277.006.554.006.833.006h1.091c.047,0,.091,0,.144.006A.407.407,0,0,0,98.134,51.327Zm-.125-.9-.844,0c-.235,0-.465,0-.7-.006a4.171,4.171,0,0,1-.723-.05.609.609,0,0,1-.54-.556c-.028-.509-.022-1.011-.017-1.539,0-.172.006-.338.006-.512C95.188,47.767,97.445,49.893,98.009,50.427Z" transform="translate(1.467 429.032)" fill="#0c38ed" stroke="#0c38ed" stroke-width="0.2"/>
    <path id="Path_246" data-name="Path 246" d="M104.835,125.75a.478.478,0,0,1-.307.278,1.144,1.144,0,0,1-.377.055c-.073,0-.145-.005-.216-.008s-.138-.008-.205-.008l-8.036,0q-.382,0-.765-.008a.467.467,0,0,1-.46-.471.483.483,0,0,1,.442-.463.559.559,0,0,1,.093-.005H95.1l2.405,0,.978,0,1.425,0h.117c.361,0,3.242,0,3.6-.005.081,0,.161-.005.242-.01s.177-.01.265-.01h.044a.821.821,0,0,1,.491.148A.456.456,0,0,1,104.835,125.75Z" transform="translate(-9.521 371.976)" fill="#0c38ed" stroke="#0c38ed" stroke-width="0.2"/>
    <path id="Path_247" data-name="Path 247" d="M102.6,133.823a.4.4,0,0,1-.13.182.762.762,0,0,1-.423.144,5.469,5.469,0,0,1-.556,0c-.279-.007-.559-.01-.838-.01H95.694q-.382,0-.765-.008a.467.467,0,0,1-.46-.47.483.483,0,0,1,.442-.463A.558.558,0,0,1,95,133.2H95.1l2.405,0,.978,0,1.425,0h.117c.315,0,.629,0,.944,0s.619-.034.929-.024a.973.973,0,0,1,.486.125A.461.461,0,0,1,102.6,133.823Z" transform="translate(-9.521 366.253)" fill="#0c38ed" stroke="#0c38ed" stroke-width="0.2"/>
    <path id="Path_248" data-name="Path 248" d="M106.323,117.6a.477.477,0,0,1-.452.478c-.029,0-.057.005-.086.005l-.1,0-10.673,0c-.034,0-.07,0-.1-.005a.5.5,0,0,1-.442-.5.471.471,0,0,1,.457-.439c.042,0,.081,0,.122,0l10.345,0c.153,0,.307,0,.46.005A.454.454,0,0,1,106.323,117.6Z" transform="translate(-9.521 377.625)" fill="#0c38ed" stroke="#0c38ed" stroke-width="0.2"/>
    <text id="_" data-name="?" transform="translate(85 492)" fill="#fff" font-size="17" font-family="Lato-Medium, Lato" font-weight="500"><tspan x="0" y="0">?</tspan></text>
    <path id="Icon_ionic-ios-globe" data-name="Icon ionic-ios-globe" d="M15.512,3.375h-.041a12.137,12.137,0,0,0,.006,24.274h.041a12.137,12.137,0,1,0-.006-24.274ZM26.027,14.7H21.5a22.979,22.979,0,0,0-.572-4.446,17.776,17.776,0,0,0,2.9-1.225A10.454,10.454,0,0,1,26.027,14.7ZM14.7,14.7H11.089a20.741,20.741,0,0,1,.513-4.032,17.753,17.753,0,0,0,3.093.414Zm0,1.634v3.612a17.828,17.828,0,0,0-3.093.414,20.738,20.738,0,0,1-.513-4.026Zm1.634,0h3.577a20.619,20.619,0,0,1-.513,4.02,17.417,17.417,0,0,0-3.063-.408Zm0-1.634V11.077a17.828,17.828,0,0,0,3.063-.408,20.68,20.68,0,0,1,.513,4.026Zm6.384-6.88a16.21,16.21,0,0,1-2.217.9,12.048,12.048,0,0,0-1.546-3.18A10.559,10.559,0,0,1,22.713,7.816ZM18.955,9.14a16.422,16.422,0,0,1-2.626.35V5.207A7.07,7.07,0,0,1,18.955,9.14ZM14.7,5.184v4.3a16.139,16.139,0,0,1-2.655-.356A7.067,7.067,0,0,1,14.7,5.184Zm-2.661.373A12.143,12.143,0,0,0,10.5,8.714a16.575,16.575,0,0,1-2.188-.9A10.4,10.4,0,0,1,12.034,5.557ZM7.2,9.029a17.424,17.424,0,0,0,2.871,1.214A22.053,22.053,0,0,0,9.5,14.689H5A10.4,10.4,0,0,1,7.2,9.029ZM5,16.329H9.49a22.92,22.92,0,0,0,.572,4.446,18.487,18.487,0,0,0-2.871,1.214A10.456,10.456,0,0,1,5,16.329Zm3.309,6.88a16.331,16.331,0,0,1,2.194-.9,12.187,12.187,0,0,0,1.535,3.163A10.66,10.66,0,0,1,8.306,23.209ZM12.04,21.89a16.223,16.223,0,0,1,2.655-.356v4.306C13.692,25.31,12.717,23.862,12.04,21.89Zm4.289,3.927V21.528a16.422,16.422,0,0,1,2.626.35A7.067,7.067,0,0,1,16.329,25.817Zm2.626-.333A12.048,12.048,0,0,0,20.5,22.3a15.944,15.944,0,0,1,2.217.91A10.68,10.68,0,0,1,18.955,25.485ZM23.827,22a17.776,17.776,0,0,0-2.9-1.225,22.86,22.86,0,0,0,.572-4.441h4.528A10.408,10.408,0,0,1,23.827,22Z" transform="translate(54.13 477.142)" fill="#ff9401"/>
  </g>
</svg>
